<?xml version="1.0" encoding="UTF-8" standalone="no"?>
<!DOCTYPE svg PUBLIC "-//W3C//DTD SVG 1.1//EN"
 "http://www.w3.org/Graphics/SVG/1.1/DTD/svg11.dtd">
<!-- Generated by graphviz version 12.2.1 (20241206.2353)
 -->
<!-- Pages: 1 -->
<svg width="1231pt" height="614pt"
 viewBox="0.00 0.00 1230.60 613.65" xmlns="http://www.w3.org/2000/svg" xmlns:xlink="http://www.w3.org/1999/xlink">
<g id="graph0" class="graph" transform="scale(1 1) rotate(0) translate(28.8 584.85)">
<g id="clust1" class="cluster">
<title>cluster_api</title>
<path fill="#f8f9fa" stroke="#555555" stroke-width="1.5" d="M20,-179.78C20,-179.78 236,-179.78 236,-179.78 242,-179.78 248,-185.78 248,-191.78 248,-191.78 248,-461.05 248,-461.05 248,-467.05 242,-473.05 236,-473.05 236,-473.05 20,-473.05 20,-473.05 14,-473.05 8,-467.05 8,-461.05 8,-461.05 8,-191.78 8,-191.78 8,-185.78 14,-179.78 20,-179.78"/>
<text text-anchor="middle" x="81.62" y="-454.8" font-family="Helvetica,sans-Serif" font-size="15.00" fill="#333333">Stateless API Layer</text>
</g>
<g id="clust2" class="cluster">
<title>cluster_data</title>
<path fill="#f8f9fa" stroke="#555555" stroke-width="1.5" d="M268,-8C268,-8 452,-8 452,-8 458,-8 464,-14 464,-20 464,-20 464,-291.81 464,-291.81 464,-297.81 458,-303.81 452,-303.81 452,-303.81 268,-303.81 268,-303.81 262,-303.81 256,-297.81 256,-291.81 256,-291.81 256,-20 256,-20 256,-14 262,-8 268,-8"/>
<text text-anchor="middle" x="360" y="-285.56" font-family="Helvetica,sans-Serif" font-size="15.00" fill="#333333">Data Layer</text>
</g>
<g id="clust3" class="cluster">
<title>cluster_jobs</title>
<path fill="#f8f9fa" stroke="#555555" stroke-width="1.5" d="M668,-163.34C668,-163.34 1153,-163.34 1153,-163.34 1159,-163.34 1165,-169.34 1165,-175.34 1165,-175.34 1165,-305.96 1165,-305.96 1165,-311.96 1159,-317.96 1153,-317.96 1153,-317.96 668,-317.96 668,-317.96 662,-317.96 656,-311.96 656,-305.96 656,-305.96 656,-175.34 656,-175.34 656,-169.34 662,-163.34 668,-163.34"/>
<text text-anchor="middle" x="910.5" y="-299.71" font-family="Helvetica,sans-Serif" font-size="15.00" fill="#333333">Background Jobs</text>
</g>
<!-- client_a -->
<g id="node1" class="node">
<title>client_a</title>
<path fill="none" stroke="none" stroke-width="1.2" d="M97.38,-556.05C97.38,-556.05 44.62,-556.05 44.62,-556.05 38.62,-556.05 32.62,-550.05 32.62,-544.05 32.62,-544.05 32.62,-532.05 32.62,-532.05 32.62,-526.05 38.62,-520.05 44.62,-520.05 44.62,-520.05 97.38,-520.05 97.38,-520.05 103.38,-520.05 109.38,-526.05 109.38,-532.05 109.38,-532.05 109.38,-544.05 109.38,-544.05 109.38,-550.05 103.38,-556.05 97.38,-556.05"/>
<text text-anchor="middle" x="71" y="-530.33" font-family="Helvetica,sans-Serif" font-size="18.00" fill="#333333">Client A</text>
</g>
<!-- api -->
<g id="node3" class="node">
<title>api</title>
<ellipse fill="#ffffff" stroke="#555555" stroke-width="1.2" cx="128" cy="-397.13" rx="99.88" ry="32.17"/>
<text text-anchor="middle" x="128" y="-398.78" font-family="Helvetica,sans-Serif" font-size="18.00" fill="#333333">API Service</text>
<text text-anchor="middle" x="128" y="-380.03" font-family="Helvetica,sans-Serif" font-size="18.00" fill="#333333">(business rules)</text>
</g>
<!-- client_a&#45;&gt;api -->
<g id="edge1" class="edge">
<title>client_a&#45;&gt;api</title>
<path fill="none" stroke="#555555" d="M69.07,-520.48C68.31,-509.12 68.43,-493.84 72.5,-481.05 77.65,-464.89 86.98,-448.96 96.54,-435.44"/>
<polygon fill="#555555" stroke="#555555" points="98.49,-436.93 100.64,-429.83 94.53,-434.04 98.49,-436.93"/>
<text text-anchor="middle" x="106.25" y="-482.75" font-family="Helvetica,sans-Serif" font-size="14.00" fill="#666666"> &#160;add item &#160;</text>
</g>
<!-- client_b -->
<g id="node2" class="node">
<title>client_b</title>
<path fill="none" stroke="none" stroke-width="1.2" d="M212.12,-556.05C212.12,-556.05 157.88,-556.05 157.88,-556.05 151.88,-556.05 145.88,-550.05 145.88,-544.05 145.88,-544.05 145.88,-532.05 145.88,-532.05 145.88,-526.05 151.88,-520.05 157.88,-520.05 157.88,-520.05 212.12,-520.05 212.12,-520.05 218.12,-520.05 224.12,-526.05 224.12,-532.05 224.12,-532.05 224.12,-544.05 224.12,-544.05 224.12,-550.05 218.12,-556.05 212.12,-556.05"/>
<text text-anchor="middle" x="185" y="-530.33" font-family="Helvetica,sans-Serif" font-size="18.00" fill="#333333">Client B</text>
</g>
<!-- client_b&#45;&gt;api -->
<g id="edge2" class="edge">
<title>client_b&#45;&gt;api</title>
<path fill="none" stroke="#555555" d="M178.12,-520.3C169.74,-499.87 155.31,-464.69 144.08,-437.31"/>
<polygon fill="#555555" stroke="#555555" points="146.35,-436.4 141.43,-430.85 141.82,-438.26 146.35,-436.4"/>
<text text-anchor="middle" x="201.91" y="-482.75" font-family="Helvetica,sans-Serif" font-size="14.00" fill="#666666"> &#160;add item &#160;</text>
</g>
<!-- lock_check -->
<g id="node4" class="node">
<title>lock_check</title>
<ellipse fill="#ffffff" stroke="#b91c1c" stroke-width="1.2" stroke-dasharray="5,2" cx="135" cy="-228.78" rx="89.8" ry="28.99"/>
<text text-anchor="middle" x="135" y="-230.08" font-family="Helvetica,sans-Serif" font-size="16.00" fill="#b91c1c">Optimistic Lock</text>
<text text-anchor="middle" x="135" y="-213.58" font-family="Helvetica,sans-Serif" font-size="16.00" fill="#b91c1c">Check</text>
</g>
<!-- api&#45;&gt;lock_check -->
<g id="edge5" class="edge">
<title>api&#45;&gt;lock_check</title>
<path fill="none" stroke="#555555" d="M129.32,-364.84C130.49,-336.91 132.21,-296 133.45,-266.52"/>
<polygon fill="#555555" stroke="#555555" points="135.9,-266.76 133.74,-259.66 131,-266.55 135.9,-266.76"/>
</g>
<!-- db -->
<g id="node5" class="node">
<title>db</title>
<path fill="#0f766e" stroke="#0f766e" stroke-width="1.5" d="M443.62,-108.31C443.62,-112.74 411.97,-116.34 373,-116.34 334.03,-116.34 302.38,-112.74 302.38,-108.31 302.38,-108.31 302.38,-36.03 302.38,-36.03 302.38,-31.6 334.03,-28 373,-28 411.97,-28 443.62,-31.6 443.62,-36.03 443.62,-36.03 443.62,-108.31 443.62,-108.31"/>
<path fill="none" stroke="#0f766e" stroke-width="1.5" d="M443.62,-108.31C443.62,-103.88 411.97,-100.28 373,-100.28 334.03,-100.28 302.38,-103.88 302.38,-108.31"/>
<text text-anchor="middle" x="373" y="-83.2" font-family="Helvetica,sans-Serif" font-size="18.00" fill="#ffffff">Database</text>
<text text-anchor="middle" x="373" y="-64.45" font-family="Helvetica,sans-Serif" font-size="18.00" fill="#ffffff">(cart state +</text>
<text text-anchor="middle" x="373" y="-45.7" font-family="Helvetica,sans-Serif" font-size="18.00" fill="#ffffff">version column)</text>
</g>
<!-- api&#45;&gt;db -->
<g id="edge4" class="edge">
<title>api&#45;&gt;db</title>
<path fill="none" stroke="#555555" d="M223.26,-386.89C311.25,-376.16 432.63,-355 462,-317.96 511.05,-256.1 497.85,-209.62 460,-140.34 455.87,-132.78 450.48,-125.79 444.42,-119.42"/>
<polygon fill="#555555" stroke="#555555" points="446.45,-117.98 439.75,-114.8 443.01,-121.46 446.45,-117.98"/>
<text text-anchor="middle" x="553.83" y="-222.98" font-family="Helvetica,sans-Serif" font-size="14.00" fill="#666666"> &#160;read&#45;modify&#45;write &#160;</text>
</g>
<!-- cache -->
<g id="node6" class="node">
<title>cache</title>
<path fill="#0f766e" stroke="#0f766e" stroke-width="1.5" d="M444.12,-254.37C444.12,-257.51 406.42,-260.06 360,-260.06 313.58,-260.06 275.88,-257.51 275.88,-254.37 275.88,-254.37 275.88,-203.18 275.88,-203.18 275.88,-200.04 313.58,-197.49 360,-197.49 406.42,-197.49 444.12,-200.04 444.12,-203.18 444.12,-203.18 444.12,-254.37 444.12,-254.37"/>
<path fill="none" stroke="#0f766e" stroke-width="1.5" d="M444.12,-254.37C444.12,-251.23 406.42,-248.68 360,-248.68 313.58,-248.68 275.88,-251.23 275.88,-254.37"/>
<text text-anchor="middle" x="360" y="-230.43" font-family="Helvetica,sans-Serif" font-size="18.00" fill="#ffffff">Redis Cache</text>
<text text-anchor="middle" x="360" y="-211.68" font-family="Helvetica,sans-Serif" font-size="18.00" fill="#ffffff">(read performance)</text>
</g>
<!-- api&#45;&gt;cache -->
<g id="edge3" class="edge">
<title>api&#45;&gt;cache</title>
<path fill="none" stroke="#555555" d="M177.29,-368.8C201.86,-354.56 231.65,-336.3 257,-317.96 279.1,-301.96 302.3,-282.38 321.08,-265.73"/>
<polygon fill="#555555" stroke="#555555" points="322.55,-267.7 326.14,-261.21 319.28,-264.05 322.55,-267.7"/>
<text text-anchor="middle" x="264.62" y="-327.66" font-family="Helvetica,sans-Serif" font-size="14.00" fill="#666666"> &#160;read &#160;</text>
</g>
<!-- api&#45;&gt;cache -->
<g id="edge8" class="edge">
<title>api&#45;&gt;cache</title>
<path fill="none" stroke="#999999" stroke-dasharray="5,2" d="M214.17,-380.41C242.12,-372.15 271.86,-359.69 295,-340.96 318.52,-321.92 335.34,-291.93 345.97,-267.9"/>
<polygon fill="#999999" stroke="#999999" points="348.11,-269.11 348.61,-261.71 343.61,-267.19 348.11,-269.11"/>
<text text-anchor="middle" x="345.99" y="-327.66" font-family="Helvetica,sans-Serif" font-size="14.00" fill="#999999"> &#160;invalidate &#160;</text>
</g>
<!-- lock_check&#45;&gt;db -->
<g id="edge6" class="edge">
<title>lock_check&#45;&gt;db</title>
<path fill="none" stroke="#b91c1c" stroke-dasharray="5,2" d="M170.45,-201.77C195.09,-183.98 228.88,-160.11 259.5,-140.34 271.24,-132.76 283.83,-124.98 296.2,-117.52"/>
<polygon fill="#b91c1c" stroke="#b91c1c" points="297.41,-119.65 302.15,-113.95 294.89,-115.45 297.41,-119.65"/>
<text text-anchor="middle" x="308.25" y="-142.04" font-family="Helvetica,sans-Serif" font-size="14.00" fill="#b91c1c"> &#160;version check &#160;</text>
</g>
<!-- cache&#45;&gt;db -->
<g id="edge7" class="edge">
<title>cache&#45;&gt;db</title>
<path fill="none" stroke="#999999" stroke-dasharray="5,2" d="M362.57,-197.23C364.3,-176.69 366.62,-149.08 368.63,-125.13"/>
<polygon fill="#999999" stroke="#999999" points="371.06,-125.51 369.2,-118.33 366.17,-125.1 371.06,-125.51"/>
<text text-anchor="middle" x="408.9" y="-142.04" font-family="Helvetica,sans-Serif" font-size="14.00" fill="#999999"> &#160;cache miss &#160;</text>
</g>
<!-- cron -->
<g id="node7" class="node">
<title>cron</title>
<ellipse fill="#ffffff" stroke="#555555" stroke-width="1.2" cx="791" cy="-228.78" rx="115.26" ry="45.43"/>
<text text-anchor="middle" x="791" y="-239.8" font-family="Helvetica,sans-Serif" font-size="18.00" fill="#333333">Cron Job</text>
<text text-anchor="middle" x="791" y="-221.05" font-family="Helvetica,sans-Serif" font-size="18.00" fill="#333333">(expire abandoned</text>
<text text-anchor="middle" x="791" y="-202.3" font-family="Helvetica,sans-Serif" font-size="18.00" fill="#333333">carts)</text>
</g>
<!-- cron&#45;&gt;db -->
<g id="edge9" class="edge">
<title>cron&#45;&gt;db</title>
<path fill="none" stroke="#555555" d="M717.3,-193.61C694.33,-183.41 668.78,-172.51 645,-163.34 580.84,-138.62 506.69,-114.31 452.02,-97.17"/>
<polygon fill="#555555" stroke="#555555" points="452.96,-94.9 445.55,-95.15 451.5,-99.58 452.96,-94.9"/>
<text text-anchor="middle" x="685.15" y="-142.04" font-family="Helvetica,sans-Serif" font-size="14.00" fill="#666666"> &#160;scan expired rows &#160;</text>
</g>
<!-- cleanup -->
<g id="node8" class="node">
<title>cleanup</title>
<ellipse fill="#ffffff" stroke="#555555" stroke-width="1.2" cx="1044" cy="-228.78" rx="101.47" ry="45.43"/>
<text text-anchor="middle" x="1044" y="-239.8" font-family="Helvetica,sans-Serif" font-size="18.00" fill="#333333">Cleanup Worker</text>
<text text-anchor="middle" x="1044" y="-221.05" font-family="Helvetica,sans-Serif" font-size="18.00" fill="#333333">(delete expired</text>
<text text-anchor="middle" x="1044" y="-202.3" font-family="Helvetica,sans-Serif" font-size="18.00" fill="#333333">data)</text>
</g>
<!-- cleanup&#45;&gt;db -->
<g id="edge10" class="edge">
<title>cleanup&#45;&gt;db</title>
<path fill="none" stroke="#999999" stroke-dasharray="5,2" d="M985.33,-191.28C966.35,-180.85 944.82,-170.42 924,-163.34 761.87,-108.27 561.14,-86.26 452.27,-77.92"/>
<polygon fill="#999999" stroke="#999999" points="452.62,-75.49 445.46,-77.4 452.26,-80.37 452.62,-75.49"/>
<text text-anchor="middle" x="921.32" y="-142.04" font-family="Helvetica,sans-Serif" font-size="14.00" fill="#999999"> &#160;delete &#160;</text>
</g>
<!-- race_note -->
<g id="node9" class="node">
<title>race_note</title>
<polygon fill="#ffffff" stroke="#b91c1c" stroke-width="1.2" points="859,-423.63 717,-423.63 717,-370.63 865,-370.63 865,-417.63 859,-423.63"/>
<polyline fill="none" stroke="#b91c1c" stroke-width="1.2" points="859,-423.63 859,-417.63"/>
<polyline fill="none" stroke="#b91c1c" stroke-width="1.2" points="865,-417.63 859,-417.63"/>
<text text-anchor="middle" x="791" y="-406.33" font-family="Helvetica,sans-Serif" font-size="14.00" fill="#b91c1c">Race condition:</text>
<text text-anchor="middle" x="791" y="-391.33" font-family="Helvetica,sans-Serif" font-size="14.00" fill="#b91c1c">Client adds item while</text>
<text text-anchor="middle" x="791" y="-376.33" font-family="Helvetica,sans-Serif" font-size="14.00" fill="#b91c1c">cron expires the cart</text>
</g>
<!-- race_note&#45;&gt;cron -->
<g id="edge11" class="edge">
<title>race_note&#45;&gt;cron</title>
<path fill="none" stroke="#b91c1c" stroke-dasharray="1,5" d="M791,-370.14C791,-344.64 791,-305.25 791,-274.68"/>
</g>
</g>
</svg>
