<?plantuml 1.2026.2?><svg xmlns="http://www.w3.org/2000/svg" xmlns:xlink="http://www.w3.org/1999/xlink" contentStyleType="text/css" data-diagram-type="SEQUENCE" height="731px" preserveAspectRatio="none" style="width:424px;height:731px;" version="1.1" viewBox="0 0 424 731" width="424px" zoomAndPan="magnify"><defs/><g><g class="participant-lifeline" data-entity-uid="part1" data-qualified-name="a" id="part1-lifeline"><g><title>Client A</title><rect fill="#000000" fill-opacity="0.00000" height="193.3965" width="8" x="30.7969" y="81.4883"/><line style="stroke:#555555;stroke-width:0.5;stroke-dasharray:5,5;" x1="34" x2="34" y1="81.4883" y2="274.8848"/></g><line style="stroke:#555555;stroke-width:0.5;stroke-dasharray:1,4;" x1="34" x2="34" y1="274.8848" y2="315.8398"/><g><title>Client A</title><rect fill="#000000" fill-opacity="0.00000" height="104.5313" width="8" x="30.7969" y="315.8398"/><line style="stroke:#555555;stroke-width:0.5;stroke-dasharray:5,5;" x1="34" x2="34" y1="315.8398" y2="420.3711"/></g><line style="stroke:#555555;stroke-width:0.5;stroke-dasharray:1,4;" x1="34" x2="34" y1="420.3711" y2="461.3262"/><g><title>Client A</title><rect fill="#000000" fill-opacity="0.00000" height="262.9727" width="8" x="30.7969" y="461.3262"/><line style="stroke:#555555;stroke-width:0.5;stroke-dasharray:5,5;" x1="34" x2="34" y1="461.3262" y2="724.2988"/></g></g><g class="participant-lifeline" data-entity-uid="part2" data-qualified-name="cart" id="part2-lifeline"><g><title>..wf..</title><rect fill="#000000" fill-opacity="0.00000" height="193.3965" width="8" x="195.188" y="81.4883"/><line style="stroke:#555555;stroke-width:0.5;stroke-dasharray:5,5;" x1="198.606" x2="198.606" y1="81.4883" y2="274.8848"/></g><line style="stroke:#555555;stroke-width:0.5;stroke-dasharray:1,4;" x1="198.606" x2="198.606" y1="274.8848" y2="315.8398"/><g><title>..wf..</title><rect fill="#000000" fill-opacity="0.00000" height="104.5313" width="8" x="195.188" y="315.8398"/><line style="stroke:#555555;stroke-width:0.5;stroke-dasharray:5,5;" x1="198.606" x2="198.606" y1="315.8398" y2="420.3711"/></g><line style="stroke:#555555;stroke-width:0.5;stroke-dasharray:1,4;" x1="198.606" x2="198.606" y1="420.3711" y2="461.3262"/><g><title>..wf..</title><rect fill="#000000" fill-opacity="0.00000" height="262.9727" width="8" x="195.188" y="461.3262"/><line style="stroke:#555555;stroke-width:0.5;stroke-dasharray:5,5;" x1="198.606" x2="198.606" y1="461.3262" y2="724.2988"/></g></g><g class="participant-lifeline" data-entity-uid="part3" data-qualified-name="b" id="part3-lifeline"><g><title>Client B</title><rect fill="#000000" fill-opacity="0.00000" height="193.3965" width="8" x="390.3018" y="81.4883"/><line style="stroke:#555555;stroke-width:0.5;stroke-dasharray:5,5;" x1="393.3081" x2="393.3081" y1="81.4883" y2="274.8848"/></g><line style="stroke:#555555;stroke-width:0.5;stroke-dasharray:1,4;" x1="393.3081" x2="393.3081" y1="274.8848" y2="315.8398"/><g><title>Client B</title><rect fill="#000000" fill-opacity="0.00000" height="104.5313" width="8" x="390.3018" y="315.8398"/><line style="stroke:#555555;stroke-width:0.5;stroke-dasharray:5,5;" x1="393.3081" x2="393.3081" y1="315.8398" y2="420.3711"/></g><line style="stroke:#555555;stroke-width:0.5;stroke-dasharray:1,4;" x1="393.3081" x2="393.3081" y1="420.3711" y2="461.3262"/><g><title>Client B</title><rect fill="#000000" fill-opacity="0.00000" height="262.9727" width="8" x="390.3018" y="461.3262"/><line style="stroke:#555555;stroke-width:0.5;stroke-dasharray:5,5;" x1="393.3081" x2="393.3081" y1="461.3262" y2="724.2988"/></g></g><g class="participant participant-head" data-entity-uid="part1" data-qualified-name="a" id="part1-head"><text fill="#000000" font-family="sans-serif" font-size="14" lengthAdjust="spacing" textLength="53.5938" x="5" y="78.5352">Client A</text><ellipse cx="34.7969" cy="13.5" fill="#E2E2F0" rx="8" ry="8" style="stroke:#555555;stroke-width:0.5;"/><path d="M34.7969,21.5 L34.7969,48.5 M21.7969,29.5 L47.7969,29.5 M34.7969,48.5 L21.7969,63.5 M34.7969,48.5 L47.7969,63.5" fill="none" style="stroke:#555555;stroke-width:0.5;"/></g><g class="participant participant-head" data-entity-uid="part2" data-qualified-name="cart" id="part2-head"><rect fill="#4338CA" height="63.4648" rx="2.5" ry="2.5" style="stroke:#4338CA;stroke-width:0.5;" width="133.1641" x="132.606" y="17.0234"/><text fill="#FFFFFF" font-family="sans-serif" font-size="14" font-style="italic" lengthAdjust="spacing" textLength="30.6045" x="183.8857" y="37.5586">&#171;wf&#187;</text><text fill="#FFFFFF" font-family="sans-serif" font-size="14" lengthAdjust="spacing" textLength="95.8809" x="155.6772" y="54.0469">Cart Workflow</text><text fill="#FFFFFF" font-family="sans-serif" font-size="14" lengthAdjust="spacing" textLength="101.4453" x="148.4653" y="70.5352">(cart-abc-123)</text></g><g class="participant participant-head" data-entity-uid="part3" data-qualified-name="b" id="part3-head"><text fill="#000000" font-family="sans-serif" font-size="14" lengthAdjust="spacing" textLength="51.9873" x="365.3081" y="78.5352">Client B</text><ellipse cx="394.3018" cy="13.5" fill="#E2E2F0" rx="8" ry="8" style="stroke:#555555;stroke-width:0.5;"/><path d="M394.3018,21.5 L394.3018,48.5 M381.3018,29.5 L407.3018,29.5 M394.3018,48.5 L381.3018,63.5 M394.3018,48.5 L407.3018,63.5" fill="none" style="stroke:#555555;stroke-width:0.5;"/></g><path d="M94,96.4883 L94,144.4883 L304,144.4883 L304,106.4883 L294,96.4883 L94,96.4883" fill="#FFFFFF" style="stroke:#999999;stroke-width:0.5;"/><path d="M294,96.4883 L294,106.4883 L304,106.4883 L294,96.4883" fill="#FFFFFF" style="stroke:#999999;stroke-width:0.5;"/><text fill="#666666" font-family="sans-serif" font-size="11" font-weight="bold" lengthAdjust="spacing" textLength="98.9678" x="100" y="112.123">Event loop starts.</text><text fill="#666666" font-family="sans-serif" font-size="11" lengthAdjust="spacing" textLength="120.9785" x="100" y="125.0781">Local state: empty cart</text><text fill="#666666" font-family="sans-serif" font-size="11" lengthAdjust="spacing" textLength="189.127" x="100" y="138.0332">Selector blocks, waiting for signals.</text><g class="message" data-entity-1="part1" data-entity-2="part2" id="msg1"><polygon fill="#555555" points="187.188,167.6641,197.188,171.6641,187.188,175.6641,191.188,171.6641" style="stroke:#555555;stroke-width:1;"/><line style="stroke:#555555;stroke-width:1;" x1="34.7969" x2="193.188" y1="171.6641" y2="171.6641"/><text fill="#000000" font-family="sans-serif" font-size="13" font-weight="bold" lengthAdjust="spacing" textLength="54.6724" x="41.7969" y="166.9219">addItem</text><text fill="#000000" font-family="sans-serif" font-size="13" lengthAdjust="spacing" textLength="85.7188" x="96.4692" y="166.9219">(T-shirt, $25)</text></g><path d="M204,184.6641 L204,206.6641 L346,206.6641 L346,194.6641 L336,184.6641 L204,184.6641" fill="#FFFFFF" style="stroke:#999999;stroke-width:0.5;"/><path d="M336,184.6641 L336,194.6641 L346,194.6641 L336,184.6641" fill="#FFFFFF" style="stroke:#999999;stroke-width:0.5;"/><text fill="#666666" font-family="sans-serif" font-size="11" lengthAdjust="spacing" textLength="121.4297" x="210" y="200.2988">state = [{T-shirt, $25}]</text><g class="message" data-entity-1="part1" data-entity-2="part2" id="msg2"><polygon fill="#555555" points="187.188,229.9297,197.188,233.9297,187.188,237.9297,191.188,233.9297" style="stroke:#555555;stroke-width:1;"/><line style="stroke:#555555;stroke-width:1;" x1="34.7969" x2="193.188" y1="233.9297" y2="233.9297"/><text fill="#000000" font-family="sans-serif" font-size="13" font-weight="bold" lengthAdjust="spacing" textLength="54.6724" x="41.7969" y="229.1875">addItem</text><text fill="#000000" font-family="sans-serif" font-size="13" lengthAdjust="spacing" textLength="68.7134" x="96.4692" y="229.1875">(Mug, $15)</text></g><path d="M204,246.9297 L204,268.9297 L411,268.9297 L411,256.9297 L401,246.9297 L204,246.9297" fill="#FFFFFF" style="stroke:#999999;stroke-width:0.5;"/><path d="M401,246.9297 L401,256.9297 L411,256.9297 L401,246.9297" fill="#FFFFFF" style="stroke:#999999;stroke-width:0.5;"/><text fill="#666666" font-family="sans-serif" font-size="11" lengthAdjust="spacing" textLength="186.5327" x="210" y="262.5645">state = [{T-shirt, $25}, {Mug, $15}]</text><text fill="#000000" font-family="sans-serif" font-size="11" lengthAdjust="spacing" textLength="57.9971" x="185.5508" y="299.5195">hours later</text><g class="message" data-entity-1="part3" data-entity-2="part2" id="msg3"><polygon fill="#555555" points="210.188,333.1504,200.188,337.1504,210.188,341.1504,206.188,337.1504" style="stroke:#555555;stroke-width:1;"/><line style="stroke:#555555;stroke-width:1;" x1="204.188" x2="393.3018" y1="337.1504" y2="337.1504"/><text fill="#000000" font-family="sans-serif" font-size="13" lengthAdjust="spacing" textLength="35.604" x="216.188" y="332.4082">query</text><text fill="#000000" font-family="sans-serif" font-size="13" font-weight="bold" lengthAdjust="spacing" textLength="59.1792" x="255.9053" y="332.4082">getCart()</text></g><g class="message" data-entity-1="part2" data-entity-2="part3" id="msg4"><polygon fill="#555555" points="382.3018,362.4609,392.3018,366.4609,382.3018,370.4609,386.3018,366.4609" style="stroke:#555555;stroke-width:1;"/><line style="stroke:#555555;stroke-width:1;stroke-dasharray:2,2;" x1="199.188" x2="388.3018" y1="366.4609" y2="366.4609"/><text fill="#000000" font-family="sans-serif" font-size="13" lengthAdjust="spacing" textLength="171.1138" x="206.188" y="361.7188">[{T-shirt, $25}, {Mug, $15}]</text></g><path d="M204,379.4609 L204,414.4609 L350,414.4609 L350,389.4609 L340,379.4609 L204,379.4609" fill="#FFFFFF" style="stroke:#999999;stroke-width:0.5;"/><path d="M340,379.4609 L340,389.4609 L350,389.4609 L340,379.4609" fill="#FFFFFF" style="stroke:#999999;stroke-width:0.5;"/><text fill="#666666" font-family="sans-serif" font-size="11" lengthAdjust="spacing" textLength="125.3774" x="210" y="395.0957">query reads local var &#8212;</text><text fill="#666666" font-family="sans-serif" font-size="11" lengthAdjust="spacing" textLength="85.9536" x="210" y="408.0508">no DB, no cache</text><text fill="#000000" font-family="sans-serif" font-size="11" lengthAdjust="spacing" textLength="46.041" x="191.5288" y="445.0059">next day</text><polygon fill="#FFFFFF" points="116,466.3262,282,466.3262,292,489.3262,282,512.3262,116,512.3262,106,489.3262,116,466.3262" style="stroke:#999999;stroke-width:0.5;"/><text fill="#666666" font-family="sans-serif" font-size="11" lengthAdjust="spacing" textLength="152.5015" x="118" y="480.9609">Worker crashes and restarts.</text><text fill="#666666" font-family="sans-serif" font-size="11" lengthAdjust="spacing" textLength="162.0083" x="118" y="493.916">Runtime replays event history.</text><text fill="#666666" font-family="sans-serif" font-size="11" lengthAdjust="spacing" textLength="119.2813" x="118" y="506.8711">State is reconstructed.</text><g class="message" data-entity-1="part1" data-entity-2="part2" id="msg5"><polygon fill="#555555" points="187.188,535.502,197.188,539.502,187.188,543.502,191.188,539.502" style="stroke:#555555;stroke-width:1;"/><line style="stroke:#555555;stroke-width:1;" x1="34.7969" x2="193.188" y1="539.502" y2="539.502"/><text fill="#000000" font-family="sans-serif" font-size="13" font-weight="bold" lengthAdjust="spacing" textLength="79.5679" x="41.7969" y="534.7598">removeItem</text><text fill="#000000" font-family="sans-serif" font-size="13" lengthAdjust="spacing" textLength="52.8315" x="121.3647" y="534.7598">(T-shirt)</text></g><path d="M204,552.502 L204,574.502 L332,574.502 L332,562.502 L322,552.502 L204,552.502" fill="#FFFFFF" style="stroke:#999999;stroke-width:0.5;"/><path d="M322,552.502 L322,562.502 L332,562.502 L322,552.502" fill="#FFFFFF" style="stroke:#999999;stroke-width:0.5;"/><text fill="#666666" font-family="sans-serif" font-size="11" lengthAdjust="spacing" textLength="107.0405" x="210" y="568.1367">state = [{Mug, $15}]</text><g class="message" data-entity-1="part3" data-entity-2="part2" id="msg6"><polygon fill="#555555" points="210.188,597.7676,200.188,601.7676,210.188,605.7676,206.188,601.7676" style="stroke:#555555;stroke-width:1;"/><line style="stroke:#555555;stroke-width:1;" x1="204.188" x2="393.3018" y1="601.7676" y2="601.7676"/><text fill="#000000" font-family="sans-serif" font-size="13" lengthAdjust="spacing" textLength="35.604" x="216.188" y="597.0254">query</text><text fill="#000000" font-family="sans-serif" font-size="13" font-weight="bold" lengthAdjust="spacing" textLength="59.1792" x="255.9053" y="597.0254">getCart()</text></g><g class="message" data-entity-1="part2" data-entity-2="part3" id="msg7"><polygon fill="#555555" points="382.3018,627.0781,392.3018,631.0781,382.3018,635.0781,386.3018,631.0781" style="stroke:#555555;stroke-width:1;"/><line style="stroke:#555555;stroke-width:1;stroke-dasharray:2,2;" x1="199.188" x2="388.3018" y1="631.0781" y2="631.0781"/><text fill="#000000" font-family="sans-serif" font-size="13" lengthAdjust="spacing" textLength="77.1685" x="206.188" y="626.3359">[{Mug, $15}]</text></g><g class="message" data-entity-1="part1" data-entity-2="part2" id="msg8"><polygon fill="#555555" points="187.188,656.3887,197.188,660.3887,187.188,664.3887,191.188,660.3887" style="stroke:#555555;stroke-width:1;"/><line style="stroke:#555555;stroke-width:1;" x1="34.7969" x2="193.188" y1="660.3887" y2="660.3887"/><text fill="#000000" font-family="sans-serif" font-size="13" font-weight="bold" lengthAdjust="spacing" textLength="60.3281" x="41.7969" y="655.6465">checkout</text></g><path d="M81,673.3887 L81,708.3887 L316,708.3887 L316,683.3887 L306,673.3887 L81,673.3887" fill="#FFFFFF" style="stroke:#999999;stroke-width:0.5;"/><path d="M306,673.3887 L306,683.3887 L316,683.3887 L306,673.3887" fill="#FFFFFF" style="stroke:#999999;stroke-width:0.5;"/><text fill="#666666" font-family="sans-serif" font-size="11" font-weight="bold" lengthAdjust="spacing" textLength="61.2788" x="87" y="689.0234">Loop exits.</text><text fill="#666666" font-family="sans-serif" font-size="11" lengthAdjust="spacing" textLength="149.9717" x="151.7593" y="689.0234">Terminal condition reached.</text><text fill="#666666" font-family="sans-serif" font-size="11" lengthAdjust="spacing" textLength="173.9429" x="87" y="701.9785">Workflow returns final CartState.</text><?plantuml-src dLFRZX9147sVhwYmFW014fPTesGb0TJ411CZc_ZW-j0pKyDq6BgnkeVB4X8_mY_qIwpkmML08AlzrbMdwfokKsscKiq5YHc48ffEIESg7kfC4rWIod0AbGtC4yhWznnLXB090Ff4UbcWhsxzuU189ZYI2WUQOgIpsIEsgyGVHdmIP6KavqBPqotAWETqUQ-LtQKx_loT7ij7XFQDUr9aDPtYtPQ6eBGj1d2U_w35QtyukkTgxsuxn4j_3aZcUubtTykarplDUDFfl1hsZncVeYMEdRPj4AGoHaYqjg5U1O5mJuRAC9DiDVGh80o8e4GF5O0XN-6BfccIwUM30gX676cAC6gshpir05_cOb2eFMexyFam2Fpiz0Af0EydLg-_MpXaflKSZEMaQTNhRcLq938NiTW5dCtjsfToPemPUfOmqz7KD60ff9LgmcyZC7AYH6PQ0QhOEyOlXMQleEqodOZZ3nPdzNhrlcbIIRO1BwvlQuL2afFKWauEL7OB5V06lcxADTjlvtj_p2UCQVzVtmPi_jGxZbQhbUgS36IC9hu5GLYYvPz9QoQVe7LsLMiyFfzgCYPamCNkb-GLdGb5pDpUZeKW-FNZvuDI6juE6ZnWBebIz28LhYp4OkqLfcSTT-laeYHCYhnpx1FXpdbEVywLbJFMXFDCh0sWNuzK6dPyxG1ZFpHf615fPIpbaSMuC3mzvJZXZ7KSclvSNye-_EFGowM7WdXWqLJdbcikVOoH-nAualv7m3tIJF9g0pywvdtNoZd3hUBMRgZkZtBCvgGC91xhjFbvbVx3Rm00?></g></svg>