<?xml version="1.0" encoding="UTF-8" standalone="no"?>
<!DOCTYPE svg PUBLIC "-//W3C//DTD SVG 1.1//EN"
 "http://www.w3.org/Graphics/SVG/1.1/DTD/svg11.dtd">
<!-- Generated by graphviz version 2.43.0 (0)
 -->
<!-- Title: %3 Pages: 1 -->
<svg width="1234pt" height="630pt"
 viewBox="0.00 0.00 1233.60 630.15" xmlns="http://www.w3.org/2000/svg" xmlns:xlink="http://www.w3.org/1999/xlink">
<g id="graph0" class="graph" transform="scale(1 1) rotate(0) translate(28.8 601.35)">
<title>%3</title>
<g id="clust1" class="cluster">
<title>cluster_api</title>
<path fill="#f8f9fa" stroke="#555555" stroke-width="1.5" d="M20,-185.47C20,-185.47 236,-185.47 236,-185.47 242,-185.47 248,-191.47 248,-197.47 248,-197.47 248,-477.55 248,-477.55 248,-483.55 242,-489.55 236,-489.55 236,-489.55 20,-489.55 20,-489.55 14,-489.55 8,-483.55 8,-477.55 8,-477.55 8,-197.47 8,-197.47 8,-191.47 14,-185.47 20,-185.47"/>
<text text-anchor="middle" x="82" y="-473.55" font-family="Helvetica,sans-Serif" font-size="15.00" fill="#333333">Stateless API Layer</text>
</g>
<g id="clust2" class="cluster">
<title>cluster_data</title>
<path fill="#f8f9fa" stroke="#555555" stroke-width="1.5" d="M268,-8C268,-8 452,-8 452,-8 458,-8 464,-14 464,-20 464,-20 464,-302.58 464,-302.58 464,-308.58 458,-314.58 452,-314.58 452,-314.58 268,-314.58 268,-314.58 262,-314.58 256,-308.58 256,-302.58 256,-302.58 256,-20 256,-20 256,-14 262,-8 268,-8"/>
<text text-anchor="middle" x="360" y="-298.58" font-family="Helvetica,sans-Serif" font-size="15.00" fill="#333333">Data Layer</text>
</g>
<g id="clust3" class="cluster">
<title>cluster_jobs</title>
<path fill="#f8f9fa" stroke="#555555" stroke-width="1.5" d="M670,-168.5C670,-168.5 1156,-168.5 1156,-168.5 1162,-168.5 1168,-174.5 1168,-180.5 1168,-180.5 1168,-317.67 1168,-317.67 1168,-323.67 1162,-329.67 1156,-329.67 1156,-329.67 670,-329.67 670,-329.67 664,-329.67 658,-323.67 658,-317.67 658,-317.67 658,-180.5 658,-180.5 658,-174.5 664,-168.5 670,-168.5"/>
<text text-anchor="middle" x="913" y="-313.67" font-family="Helvetica,sans-Serif" font-size="15.00" fill="#333333">Background Jobs</text>
</g>
<!-- client_a -->
<g id="node1" class="node">
<title>client_a</title>
<path fill="transparent" stroke="transparent" stroke-width="1.2" d="M98.5,-572.55C98.5,-572.55 43.5,-572.55 43.5,-572.55 37.5,-572.55 31.5,-566.55 31.5,-560.55 31.5,-560.55 31.5,-548.55 31.5,-548.55 31.5,-542.55 37.5,-536.55 43.5,-536.55 43.5,-536.55 98.5,-536.55 98.5,-536.55 104.5,-536.55 110.5,-542.55 110.5,-548.55 110.5,-548.55 110.5,-560.55 110.5,-560.55 110.5,-566.55 104.5,-572.55 98.5,-572.55"/>
<text text-anchor="middle" x="71" y="-550.15" font-family="Helvetica,sans-Serif" font-size="18.00" fill="#333333">Client A</text>
</g>
<!-- api -->
<g id="node3" class="node">
<title>api</title>
<ellipse fill="#ffffff" stroke="#555555" stroke-width="1.2" cx="128" cy="-410.61" rx="100.32" ry="33.88"/>
<text text-anchor="middle" x="128" y="-416.21" font-family="Helvetica,sans-Serif" font-size="18.00" fill="#333333">API Service</text>
<text text-anchor="middle" x="128" y="-396.21" font-family="Helvetica,sans-Serif" font-size="18.00" fill="#333333">(business rules)</text>
</g>
<!-- client_a&#45;&gt;api -->
<g id="edge1" class="edge">
<title>client_a&#45;&gt;api</title>
<path fill="none" stroke="#555555" d="M69.31,-536.5C68.74,-525.19 69.06,-510.18 73,-497.55 78.31,-480.53 87.94,-463.62 97.68,-449.35"/>
<polygon fill="#555555" stroke="#555555" points="99.84,-450.54 101.85,-443.4 95.82,-447.73 99.84,-450.54"/>
<text text-anchor="middle" x="107" y="-501.35" font-family="Helvetica,sans-Serif" font-size="14.00" fill="#666666"> &#160;add item &#160;</text>
</g>
<!-- client_b -->
<g id="node2" class="node">
<title>client_b</title>
<path fill="transparent" stroke="transparent" stroke-width="1.2" d="M213.5,-572.55C213.5,-572.55 158.5,-572.55 158.5,-572.55 152.5,-572.55 146.5,-566.55 146.5,-560.55 146.5,-560.55 146.5,-548.55 146.5,-548.55 146.5,-542.55 152.5,-536.55 158.5,-536.55 158.5,-536.55 213.5,-536.55 213.5,-536.55 219.5,-536.55 225.5,-542.55 225.5,-548.55 225.5,-548.55 225.5,-560.55 225.5,-560.55 225.5,-566.55 219.5,-572.55 213.5,-572.55"/>
<text text-anchor="middle" x="186" y="-550.15" font-family="Helvetica,sans-Serif" font-size="18.00" fill="#333333">Client B</text>
</g>
<!-- client_b&#45;&gt;api -->
<g id="edge2" class="edge">
<title>client_b&#45;&gt;api</title>
<path fill="none" stroke="#555555" d="M179,-536.43C170.41,-515.4 155.57,-479.08 144.11,-451.02"/>
<polygon fill="#555555" stroke="#555555" points="146.33,-450 141.42,-444.45 141.8,-451.85 146.33,-450"/>
<text text-anchor="middle" x="203" y="-501.35" font-family="Helvetica,sans-Serif" font-size="14.00" fill="#666666"> &#160;add item &#160;</text>
</g>
<!-- lock_check -->
<g id="node4" class="node">
<title>lock_check</title>
<ellipse fill="#ffffff" stroke="#b91c1c" stroke-width="1.2" stroke-dasharray="5,2" cx="134" cy="-236.58" rx="90.52" ry="31.23"/>
<text text-anchor="middle" x="134" y="-241.78" font-family="Helvetica,sans-Serif" font-size="16.00" fill="#b91c1c">Optimistic Lock</text>
<text text-anchor="middle" x="134" y="-223.78" font-family="Helvetica,sans-Serif" font-size="16.00" fill="#b91c1c">Check</text>
</g>
<!-- api&#45;&gt;lock_check -->
<g id="edge5" class="edge">
<title>api&#45;&gt;lock_check</title>
<path fill="none" stroke="#555555" d="M129.16,-376.44C130.17,-347.33 131.65,-305.05 132.7,-274.8"/>
<polygon fill="#555555" stroke="#555555" points="135.15,-274.85 132.95,-267.77 130.25,-274.68 135.15,-274.85"/>
</g>
<!-- db -->
<g id="node5" class="node">
<title>db</title>
<path fill="#0f766e" stroke="#0f766e" stroke-width="1.5" d="M444,-113.21C444,-117.92 412.18,-121.75 373,-121.75 333.82,-121.75 302,-117.92 302,-113.21 302,-113.21 302,-36.29 302,-36.29 302,-31.58 333.82,-27.75 373,-27.75 412.18,-27.75 444,-31.58 444,-36.29 444,-36.29 444,-113.21 444,-113.21"/>
<path fill="none" stroke="#0f766e" stroke-width="1.5" d="M444,-113.21C444,-108.49 412.18,-104.66 373,-104.66 333.82,-104.66 302,-108.49 302,-113.21"/>
<text text-anchor="middle" x="373" y="-90.35" font-family="Helvetica,sans-Serif" font-size="18.00" fill="#ffffff">Database</text>
<text text-anchor="middle" x="373" y="-70.35" font-family="Helvetica,sans-Serif" font-size="18.00" fill="#ffffff">(cart state +</text>
<text text-anchor="middle" x="373" y="-50.35" font-family="Helvetica,sans-Serif" font-size="18.00" fill="#ffffff">version column)</text>
</g>
<!-- api&#45;&gt;db -->
<g id="edge4" class="edge">
<title>api&#45;&gt;db</title>
<path fill="none" stroke="#555555" d="M223.57,-399.89C311.83,-388.71 433.59,-366.92 463,-329.67 513.72,-265.41 500.13,-216.85 460,-145.5 455.61,-137.7 449.98,-130.45 443.68,-123.79"/>
<polygon fill="#555555" stroke="#555555" points="445.42,-122.06 438.75,-118.82 441.94,-125.51 445.42,-122.06"/>
<text text-anchor="middle" x="555.5" y="-232.88" font-family="Helvetica,sans-Serif" font-size="14.00" fill="#666666"> &#160;read&#45;modify&#45;write &#160;</text>
</g>
<!-- cache -->
<g id="node6" class="node">
<title>cache</title>
<path fill="#0f766e" stroke="#0f766e" stroke-width="1.5" d="M444.5,-263.58C444.5,-266.89 406.63,-269.58 360,-269.58 313.37,-269.58 275.5,-266.89 275.5,-263.58 275.5,-263.58 275.5,-209.58 275.5,-209.58 275.5,-206.27 313.37,-203.58 360,-203.58 406.63,-203.58 444.5,-206.27 444.5,-209.58 444.5,-209.58 444.5,-263.58 444.5,-263.58"/>
<path fill="none" stroke="#0f766e" stroke-width="1.5" d="M444.5,-263.58C444.5,-260.27 406.63,-257.58 360,-257.58 313.37,-257.58 275.5,-260.27 275.5,-263.58"/>
<text text-anchor="middle" x="360" y="-242.18" font-family="Helvetica,sans-Serif" font-size="18.00" fill="#ffffff">Redis Cache</text>
<text text-anchor="middle" x="360" y="-222.18" font-family="Helvetica,sans-Serif" font-size="18.00" fill="#ffffff">(read performance)</text>
</g>
<!-- api&#45;&gt;cache -->
<g id="edge3" class="edge">
<title>api&#45;&gt;cache</title>
<path fill="none" stroke="#555555" d="M178.34,-381.19C202.75,-366.73 232.1,-348.29 257,-329.67 279.47,-312.86 302.92,-292.18 321.75,-274.68"/>
<polygon fill="#555555" stroke="#555555" points="323.5,-276.4 326.94,-269.83 320.15,-272.82 323.5,-276.4"/>
<text text-anchor="middle" x="264.5" y="-341.47" font-family="Helvetica,sans-Serif" font-size="14.00" fill="#666666"> &#160;read &#160;</text>
</g>
<!-- api&#45;&gt;cache -->
<g id="edge8" class="edge">
<title>api&#45;&gt;cache</title>
<path fill="none" stroke="#999999" stroke-dasharray="5,2" d="M214.35,-393.09C242.32,-384.54 272.02,-371.74 295,-352.67 319.15,-332.62 336.05,-301.15 346.55,-276.18"/>
<polygon fill="#999999" stroke="#999999" points="348.84,-277.06 349.22,-269.65 344.3,-275.2 348.84,-277.06"/>
<text text-anchor="middle" x="343.5" y="-341.47" font-family="Helvetica,sans-Serif" font-size="14.00" fill="#999999"> &#160;invalidate &#160;</text>
</g>
<!-- lock_check&#45;&gt;db -->
<g id="edge6" class="edge">
<title>lock_check&#45;&gt;db</title>
<path fill="none" stroke="#b91c1c" stroke-dasharray="5,2" d="M170.68,-208.04C195.32,-189.81 228.71,-165.64 259,-145.5 270.79,-137.66 283.43,-129.6 295.86,-121.86"/>
<polygon fill="#b91c1c" stroke="#b91c1c" points="297.28,-123.86 301.93,-118.09 294.69,-119.7 297.28,-123.86"/>
<text text-anchor="middle" x="308" y="-149.3" font-family="Helvetica,sans-Serif" font-size="14.00" fill="#b91c1c"> &#160;version check &#160;</text>
</g>
<!-- cache&#45;&gt;db -->
<g id="edge7" class="edge">
<title>cache&#45;&gt;db</title>
<path fill="none" stroke="#999999" stroke-dasharray="5,2" d="M362.63,-203.24C364.37,-181.9 366.68,-153.45 368.68,-128.84"/>
<polygon fill="#999999" stroke="#999999" points="371.14,-128.85 369.26,-121.68 366.26,-128.45 371.14,-128.85"/>
<text text-anchor="middle" x="409" y="-149.3" font-family="Helvetica,sans-Serif" font-size="14.00" fill="#999999"> &#160;cache miss &#160;</text>
</g>
<!-- cron -->
<g id="node7" class="node">
<title>cron</title>
<ellipse fill="#ffffff" stroke="#555555" stroke-width="1.2" cx="794" cy="-236.58" rx="115.93" ry="48.17"/>
<text text-anchor="middle" x="794" y="-252.18" font-family="Helvetica,sans-Serif" font-size="18.00" fill="#333333">Cron Job</text>
<text text-anchor="middle" x="794" y="-232.18" font-family="Helvetica,sans-Serif" font-size="18.00" fill="#333333">(expire abandoned</text>
<text text-anchor="middle" x="794" y="-212.18" font-family="Helvetica,sans-Serif" font-size="18.00" fill="#333333">carts)</text>
</g>
<!-- cron&#45;&gt;db -->
<g id="edge9" class="edge">
<title>cron&#45;&gt;db</title>
<path fill="none" stroke="#555555" d="M719.1,-199.62C696.17,-189.1 670.73,-177.9 647,-168.5 581.85,-142.69 506.32,-117.46 451.08,-99.85"/>
<polygon fill="#555555" stroke="#555555" points="451.52,-97.41 444.11,-97.63 450.04,-102.08 451.52,-97.41"/>
<text text-anchor="middle" x="687" y="-149.3" font-family="Helvetica,sans-Serif" font-size="14.00" fill="#666666"> &#160;scan expired rows &#160;</text>
</g>
<!-- cleanup -->
<g id="node8" class="node">
<title>cleanup</title>
<ellipse fill="#ffffff" stroke="#555555" stroke-width="1.2" cx="1047" cy="-236.58" rx="101.23" ry="48.17"/>
<text text-anchor="middle" x="1047" y="-252.18" font-family="Helvetica,sans-Serif" font-size="18.00" fill="#333333">Cleanup Worker</text>
<text text-anchor="middle" x="1047" y="-232.18" font-family="Helvetica,sans-Serif" font-size="18.00" fill="#333333">(delete expired</text>
<text text-anchor="middle" x="1047" y="-212.18" font-family="Helvetica,sans-Serif" font-size="18.00" fill="#333333">data)</text>
</g>
<!-- cleanup&#45;&gt;db -->
<g id="edge10" class="edge">
<title>cleanup&#45;&gt;db</title>
<path fill="none" stroke="#999999" stroke-dasharray="5,2" d="M988.39,-197.21C969.73,-186.47 948.57,-175.77 928,-168.5 764.4,-110.73 560.68,-88.48 451.24,-80.26"/>
<polygon fill="#999999" stroke="#999999" points="451.33,-77.81 444.17,-79.74 450.97,-82.7 451.33,-77.81"/>
<text text-anchor="middle" x="925" y="-149.3" font-family="Helvetica,sans-Serif" font-size="14.00" fill="#999999"> &#160;delete &#160;</text>
</g>
<!-- race_note -->
<g id="node9" class="node">
<title>race_note</title>
<polygon fill="#ffffff" stroke="#b91c1c" stroke-width="1.2" points="862.5,-437.11 719.5,-437.11 719.5,-384.11 868.5,-384.11 868.5,-431.11 862.5,-437.11"/>
<polyline fill="none" stroke="#b91c1c" stroke-width="1.2" points="862.5,-437.11 862.5,-431.11 "/>
<polyline fill="none" stroke="#b91c1c" stroke-width="1.2" points="868.5,-431.11 862.5,-431.11 "/>
<text text-anchor="middle" x="794" y="-421.91" font-family="Helvetica,sans-Serif" font-size="14.00" fill="#b91c1c">Race condition:</text>
<text text-anchor="middle" x="794" y="-406.91" font-family="Helvetica,sans-Serif" font-size="14.00" fill="#b91c1c">Client adds item while</text>
<text text-anchor="middle" x="794" y="-391.91" font-family="Helvetica,sans-Serif" font-size="14.00" fill="#b91c1c">cron expires the cart</text>
</g>
<!-- race_note&#45;&gt;cron -->
<g id="edge11" class="edge">
<title>race_note&#45;&gt;cron</title>
<path fill="none" stroke="#b91c1c" stroke-dasharray="1,5" d="M794,-383.85C794,-357.8 794,-316.91 794,-284.99"/>
</g>
</g>
</svg>
