<?xml version="1.0" encoding="UTF-8" standalone="no"?>
<!DOCTYPE svg PUBLIC "-//W3C//DTD SVG 1.1//EN"
 "http://www.w3.org/Graphics/SVG/1.1/DTD/svg11.dtd">
<!-- Generated by graphviz version 12.2.1 (20241206.2353)
 -->
<!-- Pages: 1 -->
<svg width="1584pt" height="420pt"
 viewBox="0.00 0.00 1583.60 419.61" xmlns="http://www.w3.org/2000/svg" xmlns:xlink="http://www.w3.org/1999/xlink">
<g id="graph0" class="graph" transform="scale(1 1) rotate(0) translate(28.8 390.81)">
<g id="clust1" class="cluster">
<title>cluster_api</title>
<path fill="#f8f9fa" stroke="#555555" stroke-width="1.5" d="M1169,-152.66C1169,-152.66 1479,-152.66 1479,-152.66 1485,-152.66 1491,-158.66 1491,-164.66 1491,-164.66 1491,-252.75 1491,-252.75 1491,-258.75 1485,-264.75 1479,-264.75 1479,-264.75 1169,-264.75 1169,-264.75 1163,-264.75 1157,-258.75 1157,-252.75 1157,-252.75 1157,-164.66 1157,-164.66 1157,-158.66 1163,-152.66 1169,-152.66"/>
<text text-anchor="middle" x="1324" y="-246.5" font-family="Helvetica,sans-Serif" font-size="15.00" fill="#333333">API Layer</text>
</g>
<g id="clust2" class="cluster">
<title>cluster_workers</title>
<path fill="#f8f9fa" stroke="#555555" stroke-width="1.5" d="M20,-139.4C20,-139.4 827,-139.4 827,-139.4 833,-139.4 839,-145.4 839,-151.4 839,-151.4 839,-266.01 839,-266.01 839,-272.01 833,-278.01 827,-278.01 827,-278.01 20,-278.01 20,-278.01 14,-278.01 8,-272.01 8,-266.01 8,-266.01 8,-151.4 8,-151.4 8,-145.4 14,-139.4 20,-139.4"/>
<text text-anchor="middle" x="423.5" y="-259.76" font-family="Helvetica,sans-Serif" font-size="15.00" fill="#333333">Background Workers</text>
</g>
<!-- employee -->
<g id="node1" class="node">
<title>employee</title>
<path fill="none" stroke="none" stroke-width="1.2" d="M1280.38,-362.01C1280.38,-362.01 1209.62,-362.01 1209.62,-362.01 1203.62,-362.01 1197.62,-356.01 1197.62,-350.01 1197.62,-350.01 1197.62,-338.01 1197.62,-338.01 1197.62,-332.01 1203.62,-326.01 1209.62,-326.01 1209.62,-326.01 1280.38,-326.01 1280.38,-326.01 1286.38,-326.01 1292.38,-332.01 1292.38,-338.01 1292.38,-338.01 1292.38,-350.01 1292.38,-350.01 1292.38,-356.01 1286.38,-362.01 1280.38,-362.01"/>
<text text-anchor="middle" x="1245" y="-336.29" font-family="Helvetica,sans-Serif" font-size="18.00" fill="#333333">Employee</text>
</g>
<!-- submit_api -->
<g id="node3" class="node">
<title>submit_api</title>
<ellipse fill="#ffffff" stroke="#555555" stroke-width="1.2" cx="1245" cy="-196.83" rx="76.01" ry="32.17"/>
<text text-anchor="middle" x="1245" y="-198.48" font-family="Helvetica,sans-Serif" font-size="18.00" fill="#333333">Submission</text>
<text text-anchor="middle" x="1245" y="-179.73" font-family="Helvetica,sans-Serif" font-size="18.00" fill="#333333">API</text>
</g>
<!-- employee&#45;&gt;submit_api -->
<g id="edge1" class="edge">
<title>employee&#45;&gt;submit_api</title>
<path fill="none" stroke="#555555" d="M1245,-326.07C1245,-304.56 1245,-266.75 1245,-237.74"/>
<polygon fill="#555555" stroke="#555555" points="1247.45,-237.95 1245,-230.95 1242.55,-237.95 1247.45,-237.95"/>
<text text-anchor="middle" x="1297.12" y="-287.71" font-family="Helvetica,sans-Serif" font-size="14.00" fill="#666666"> &#160;submit request &#160;</text>
</g>
<!-- manager -->
<g id="node2" class="node">
<title>manager</title>
<path fill="none" stroke="none" stroke-width="1.2" d="M1448.88,-362.01C1448.88,-362.01 1387.12,-362.01 1387.12,-362.01 1381.12,-362.01 1375.12,-356.01 1375.12,-350.01 1375.12,-350.01 1375.12,-338.01 1375.12,-338.01 1375.12,-332.01 1381.12,-326.01 1387.12,-326.01 1387.12,-326.01 1448.88,-326.01 1448.88,-326.01 1454.88,-326.01 1460.88,-332.01 1460.88,-338.01 1460.88,-338.01 1460.88,-350.01 1460.88,-350.01 1460.88,-356.01 1454.88,-362.01 1448.88,-362.01"/>
<text text-anchor="middle" x="1418" y="-336.29" font-family="Helvetica,sans-Serif" font-size="18.00" fill="#333333">Manager</text>
</g>
<!-- approve_api -->
<g id="node4" class="node">
<title>approve_api</title>
<ellipse fill="#ffffff" stroke="#555555" stroke-width="1.2" cx="1418" cy="-196.83" rx="60.63" ry="32.17"/>
<text text-anchor="middle" x="1418" y="-198.48" font-family="Helvetica,sans-Serif" font-size="18.00" fill="#333333">Approval</text>
<text text-anchor="middle" x="1418" y="-179.73" font-family="Helvetica,sans-Serif" font-size="18.00" fill="#333333">API</text>
</g>
<!-- manager&#45;&gt;approve_api -->
<g id="edge2" class="edge">
<title>manager&#45;&gt;approve_api</title>
<path fill="none" stroke="#555555" d="M1418,-326.07C1418,-304.56 1418,-266.75 1418,-237.74"/>
<polygon fill="#555555" stroke="#555555" points="1420.45,-237.95 1418,-230.95 1415.55,-237.95 1420.45,-237.95"/>
<text text-anchor="middle" x="1472" y="-287.71" font-family="Helvetica,sans-Serif" font-size="14.00" fill="#666666"> &#160;approve / reject &#160;</text>
</g>
<!-- db -->
<g id="node5" class="node">
<title>db</title>
<path fill="#0f766e" stroke="#0f766e" stroke-width="1.5" d="M1019.62,-78.55C1019.62,-82.88 975.87,-86.4 922,-86.4 868.13,-86.4 824.38,-82.88 824.38,-78.55 824.38,-78.55 824.38,-7.85 824.38,-7.85 824.38,-3.52 868.13,0 922,0 975.87,0 1019.62,-3.52 1019.62,-7.85 1019.62,-7.85 1019.62,-78.55 1019.62,-78.55"/>
<path fill="none" stroke="#0f766e" stroke-width="1.5" d="M1019.62,-78.55C1019.62,-74.21 975.87,-70.69 922,-70.69 868.13,-70.69 824.38,-74.21 824.38,-78.55"/>
<text text-anchor="middle" x="922" y="-44.5" font-family="Helvetica,sans-Serif" font-size="16.00" fill="#ffffff">Database</text>
<text text-anchor="middle" x="922" y="-28" font-family="Helvetica,sans-Serif" font-size="16.00" fill="#ffffff">(pending_requests table)</text>
</g>
<!-- submit_api&#45;&gt;db -->
<g id="edge3" class="edge">
<title>submit_api&#45;&gt;db</title>
<path fill="none" stroke="#555555" d="M1204.09,-169.49C1187.86,-159.52 1168.84,-148.4 1151,-139.4 1111.63,-119.53 1067.11,-100.33 1027.86,-84.43"/>
<polygon fill="#555555" stroke="#555555" points="1028.89,-82.2 1021.48,-81.86 1027.06,-86.75 1028.89,-82.2"/>
<text text-anchor="middle" x="1165.68" y="-113.1" font-family="Helvetica,sans-Serif" font-size="14.00" fill="#666666"> &#160;INSERT row &#160;</text>
</g>
<!-- approve_api&#45;&gt;db -->
<g id="edge4" class="edge">
<title>approve_api&#45;&gt;db</title>
<path fill="none" stroke="#555555" d="M1386.7,-169.17C1372.85,-158.55 1355.89,-147.06 1339,-139.4 1238.76,-93.95 1114.81,-69.22 1028.2,-56.45"/>
<polygon fill="#555555" stroke="#555555" points="1028.72,-54.05 1021.44,-55.46 1028.01,-58.89 1028.72,-54.05"/>
<text text-anchor="middle" x="1361.89" y="-113.1" font-family="Helvetica,sans-Serif" font-size="14.00" fill="#666666"> &#160;UPDATE status &#160;</text>
</g>
<!-- notify_worker -->
<g id="node6" class="node">
<title>notify_worker</title>
<ellipse fill="#ffffff" stroke="#555555" stroke-width="1.2" cx="408" cy="-196.83" rx="120.56" ry="45.43"/>
<text text-anchor="middle" x="408" y="-207.86" font-family="Helvetica,sans-Serif" font-size="18.00" fill="#333333">Notification</text>
<text text-anchor="middle" x="408" y="-189.11" font-family="Helvetica,sans-Serif" font-size="18.00" fill="#333333">Worker</text>
<text text-anchor="middle" x="408" y="-170.36" font-family="Helvetica,sans-Serif" font-size="18.00" fill="#333333">(polls for new rows)</text>
</g>
<!-- notify_worker&#45;&gt;db -->
<g id="edge5" class="edge">
<title>notify_worker&#45;&gt;db</title>
<path fill="none" stroke="#555555" d="M486.32,-161.85C505.94,-153.94 527.08,-145.94 547,-139.4 636.44,-110.04 740.34,-84.3 816.06,-67.01"/>
<polygon fill="#555555" stroke="#555555" points="816.46,-69.43 822.75,-65.49 815.38,-64.65 816.46,-69.43"/>
<text text-anchor="middle" x="656.4" y="-113.1" font-family="Helvetica,sans-Serif" font-size="14.00" fill="#666666"> &#160;poll &#160;</text>
</g>
<!-- email -->
<g id="node9" class="node">
<title>email</title>
<ellipse fill="#ffffff" stroke="#555555" stroke-width="1.2" cx="408" cy="-43.2" rx="88.21" ry="18.92"/>
<text text-anchor="middle" x="408" y="-35.47" font-family="Helvetica,sans-Serif" font-size="18.00" fill="#333333">Email Service</text>
</g>
<!-- notify_worker&#45;&gt;email -->
<g id="edge8" class="edge">
<title>notify_worker&#45;&gt;email</title>
<path fill="none" stroke="#555555" d="M408,-151.16C408,-124.94 408,-92.7 408,-70.51"/>
<polygon fill="#555555" stroke="#555555" points="410.45,-70.76 408,-63.76 405.55,-70.76 410.45,-70.76"/>
<text text-anchor="middle" x="430.12" y="-113.1" font-family="Helvetica,sans-Serif" font-size="14.00" fill="#666666"> &#160;send &#160;</text>
</g>
<!-- cron -->
<g id="node7" class="node">
<title>cron</title>
<ellipse fill="#ffffff" stroke="#555555" stroke-width="1.2" cx="136" cy="-196.83" rx="115.79" ry="45.43"/>
<text text-anchor="middle" x="136" y="-207.86" font-family="Helvetica,sans-Serif" font-size="18.00" fill="#333333">Timeout</text>
<text text-anchor="middle" x="136" y="-189.11" font-family="Helvetica,sans-Serif" font-size="18.00" fill="#333333">Scheduler</text>
<text text-anchor="middle" x="136" y="-170.36" font-family="Helvetica,sans-Serif" font-size="18.00" fill="#333333">(scans for expired)</text>
</g>
<!-- cron&#45;&gt;db -->
<g id="edge6" class="edge">
<title>cron&#45;&gt;db</title>
<path fill="none" stroke="#555555" d="M212.2,-162.14C230.66,-154.35 250.44,-146.33 269,-139.4 306.86,-125.27 316.03,-120.04 355.5,-111.4 440.69,-92.75 676.78,-67.95 815.83,-54.3"/>
<polygon fill="#555555" stroke="#555555" points="815.79,-56.76 822.51,-53.64 815.31,-51.89 815.79,-56.76"/>
<text text-anchor="middle" x="377.25" y="-113.1" font-family="Helvetica,sans-Serif" font-size="14.00" fill="#666666"> &#160;scan &#160;</text>
</g>
<!-- dlq -->
<g id="node10" class="node">
<title>dlq</title>
<ellipse fill="#b91c1c" stroke="#b91c1c" stroke-width="1.2" cx="136" cy="-43.2" rx="77.07" ry="32.17"/>
<text text-anchor="middle" x="136" y="-44.85" font-family="Helvetica,sans-Serif" font-size="18.00" fill="#ffffff">Dead Letter</text>
<text text-anchor="middle" x="136" y="-26.1" font-family="Helvetica,sans-Serif" font-size="18.00" fill="#ffffff">Queue</text>
</g>
<!-- cron&#45;&gt;dlq -->
<g id="edge9" class="edge">
<title>cron&#45;&gt;dlq</title>
<path fill="none" stroke="#b91c1c" stroke-dasharray="5,2" d="M136,-151.16C136,-129.81 136,-104.48 136,-83.83"/>
<polygon fill="#b91c1c" stroke="#b91c1c" points="138.45,-84.1 136,-77.1 133.55,-84.1 138.45,-84.1"/>
<text text-anchor="middle" x="184.38" y="-113.1" font-family="Helvetica,sans-Serif" font-size="14.00" fill="#b91c1c"> &#160;move expired &#160;</text>
</g>
<!-- reconciler -->
<g id="node8" class="node">
<title>reconciler</title>
<ellipse fill="#ffffff" stroke="#555555" stroke-width="1.2" cx="696" cy="-196.83" rx="131.17" ry="45.43"/>
<text text-anchor="middle" x="696" y="-207.86" font-family="Helvetica,sans-Serif" font-size="18.00" fill="#333333">Reconciliation</text>
<text text-anchor="middle" x="696" y="-189.11" font-family="Helvetica,sans-Serif" font-size="18.00" fill="#333333">Job</text>
<text text-anchor="middle" x="696" y="-170.36" font-family="Helvetica,sans-Serif" font-size="18.00" fill="#333333">(catches edge cases)</text>
</g>
<!-- reconciler&#45;&gt;db -->
<g id="edge7" class="edge">
<title>reconciler&#45;&gt;db</title>
<path fill="none" stroke="#555555" d="M755.38,-155.99C785.17,-136.01 821.43,-111.68 852.51,-90.83"/>
<polygon fill="#555555" stroke="#555555" points="853.76,-92.94 858.21,-87 851.03,-88.87 853.76,-92.94"/>
<text text-anchor="middle" x="837.53" y="-113.1" font-family="Helvetica,sans-Serif" font-size="14.00" fill="#666666"> &#160;scan &#160;</text>
</g>
<!-- race_note -->
<g id="node11" class="node">
<title>race_note</title>
<polygon fill="#ffffff" stroke="#b91c1c" stroke-width="1.2" points="1126.75,-224.46 863.25,-224.46 863.25,-169.21 1132.75,-169.21 1132.75,-218.46 1126.75,-224.46"/>
<polyline fill="none" stroke="#b91c1c" stroke-width="1.2" points="1126.75,-224.46 1126.75,-218.46"/>
<polyline fill="none" stroke="#b91c1c" stroke-width="1.2" points="1132.75,-218.46 1126.75,-218.46"/>
<text text-anchor="middle" x="998" y="-206.21" font-family="Helvetica,sans-Serif" font-size="15.00" fill="#b91c1c">Race: manager approves at 71h 59m,</text>
<text text-anchor="middle" x="998" y="-190.46" font-family="Helvetica,sans-Serif" font-size="15.00" fill="#b91c1c">cron expires at 72h 1m.</text>
<text text-anchor="middle" x="998" y="-174.71" font-family="Helvetica,sans-Serif" font-size="15.00" fill="#b91c1c">Requires optimistic locking.</text>
</g>
<!-- race_note&#45;&gt;db -->
<g id="edge10" class="edge">
<title>race_note&#45;&gt;db</title>
<path fill="none" stroke="#b91c1c" stroke-dasharray="1,5" d="M984.41,-168.72C973.01,-145.98 956.53,-113.09 943.37,-86.83"/>
</g>
</g>
</svg>
