<?xml version="1.0" encoding="UTF-8" standalone="no"?>
<!DOCTYPE svg PUBLIC "-//W3C//DTD SVG 1.1//EN"
 "http://www.w3.org/Graphics/SVG/1.1/DTD/svg11.dtd">
<!-- Generated by graphviz version 2.43.0 (0)
 -->
<!-- Title: %3 Pages: 1 -->
<svg width="1584pt" height="426pt"
 viewBox="0.00 0.00 1583.60 425.77" xmlns="http://www.w3.org/2000/svg" xmlns:xlink="http://www.w3.org/1999/xlink">
<g id="graph0" class="graph" transform="scale(1 1) rotate(0) translate(28.8 396.97)">
<title>%3</title>
<g id="clust1" class="cluster">
<title>cluster_api</title>
<path fill="#f8f9fa" stroke="#555555" stroke-width="1.5" d="M1168,-153.14C1168,-153.14 1478,-153.14 1478,-153.14 1484,-153.14 1490,-159.14 1490,-165.14 1490,-165.14 1490,-258.02 1490,-258.02 1490,-264.02 1484,-270.02 1478,-270.02 1478,-270.02 1168,-270.02 1168,-270.02 1162,-270.02 1156,-264.02 1156,-258.02 1156,-258.02 1156,-165.14 1156,-165.14 1156,-159.14 1162,-153.14 1168,-153.14"/>
<text text-anchor="middle" x="1323" y="-254.02" font-family="Helvetica,sans-Serif" font-size="15.00" fill="#333333">API Layer</text>
</g>
<g id="clust2" class="cluster">
<title>cluster_workers</title>
<path fill="#f8f9fa" stroke="#555555" stroke-width="1.5" d="M20,-139C20,-139 826,-139 826,-139 832,-139 838,-145 838,-151 838,-151 838,-272.17 838,-272.17 838,-278.17 832,-284.17 826,-284.17 826,-284.17 20,-284.17 20,-284.17 14,-284.17 8,-278.17 8,-272.17 8,-272.17 8,-151 8,-151 8,-145 14,-139 20,-139"/>
<text text-anchor="middle" x="423" y="-268.17" font-family="Helvetica,sans-Serif" font-size="15.00" fill="#333333">Background Workers</text>
</g>
<!-- employee -->
<g id="node1" class="node">
<title>employee</title>
<path fill="transparent" stroke="transparent" stroke-width="1.2" d="M1279.5,-368.17C1279.5,-368.17 1208.5,-368.17 1208.5,-368.17 1202.5,-368.17 1196.5,-362.17 1196.5,-356.17 1196.5,-356.17 1196.5,-344.17 1196.5,-344.17 1196.5,-338.17 1202.5,-332.17 1208.5,-332.17 1208.5,-332.17 1279.5,-332.17 1279.5,-332.17 1285.5,-332.17 1291.5,-338.17 1291.5,-344.17 1291.5,-344.17 1291.5,-356.17 1291.5,-356.17 1291.5,-362.17 1285.5,-368.17 1279.5,-368.17"/>
<text text-anchor="middle" x="1244" y="-345.77" font-family="Helvetica,sans-Serif" font-size="18.00" fill="#333333">Employee</text>
</g>
<!-- submit_api -->
<g id="node3" class="node">
<title>submit_api</title>
<ellipse fill="#ffffff" stroke="#555555" stroke-width="1.2" cx="1244" cy="-199.08" rx="76.24" ry="33.88"/>
<text text-anchor="middle" x="1244" y="-204.68" font-family="Helvetica,sans-Serif" font-size="18.00" fill="#333333">Submission</text>
<text text-anchor="middle" x="1244" y="-184.68" font-family="Helvetica,sans-Serif" font-size="18.00" fill="#333333">API</text>
</g>
<!-- employee&#45;&gt;submit_api -->
<g id="edge1" class="edge">
<title>employee&#45;&gt;submit_api</title>
<path fill="none" stroke="#555555" d="M1244,-332.06C1244,-309.83 1244,-270.3 1244,-240.28"/>
<polygon fill="#555555" stroke="#555555" points="1246.45,-240.26 1244,-233.26 1241.55,-240.26 1246.45,-240.26"/>
<text text-anchor="middle" x="1296.5" y="-295.97" font-family="Helvetica,sans-Serif" font-size="14.00" fill="#666666"> &#160;submit request &#160;</text>
</g>
<!-- manager -->
<g id="node2" class="node">
<title>manager</title>
<path fill="transparent" stroke="transparent" stroke-width="1.2" d="M1448,-368.17C1448,-368.17 1386,-368.17 1386,-368.17 1380,-368.17 1374,-362.17 1374,-356.17 1374,-356.17 1374,-344.17 1374,-344.17 1374,-338.17 1380,-332.17 1386,-332.17 1386,-332.17 1448,-332.17 1448,-332.17 1454,-332.17 1460,-338.17 1460,-344.17 1460,-344.17 1460,-356.17 1460,-356.17 1460,-362.17 1454,-368.17 1448,-368.17"/>
<text text-anchor="middle" x="1417" y="-345.77" font-family="Helvetica,sans-Serif" font-size="18.00" fill="#333333">Manager</text>
</g>
<!-- approve_api -->
<g id="node4" class="node">
<title>approve_api</title>
<ellipse fill="#ffffff" stroke="#555555" stroke-width="1.2" cx="1417" cy="-199.08" rx="60.62" ry="33.88"/>
<text text-anchor="middle" x="1417" y="-204.68" font-family="Helvetica,sans-Serif" font-size="18.00" fill="#333333">Approval</text>
<text text-anchor="middle" x="1417" y="-184.68" font-family="Helvetica,sans-Serif" font-size="18.00" fill="#333333">API</text>
</g>
<!-- manager&#45;&gt;approve_api -->
<g id="edge2" class="edge">
<title>manager&#45;&gt;approve_api</title>
<path fill="none" stroke="#555555" d="M1417,-332.06C1417,-309.83 1417,-270.3 1417,-240.28"/>
<polygon fill="#555555" stroke="#555555" points="1419.45,-240.26 1417,-233.26 1414.55,-240.26 1419.45,-240.26"/>
<text text-anchor="middle" x="1471.5" y="-295.97" font-family="Helvetica,sans-Serif" font-size="14.00" fill="#666666"> &#160;approve / reject &#160;</text>
</g>
<!-- db -->
<g id="node5" class="node">
<title>db</title>
<path fill="#0f766e" stroke="#0f766e" stroke-width="1.5" d="M1019,-78.18C1019,-82.5 975.07,-86 921,-86 866.93,-86 823,-82.5 823,-78.18 823,-78.18 823,-7.82 823,-7.82 823,-3.5 866.93,0 921,0 975.07,0 1019,-3.5 1019,-7.82 1019,-7.82 1019,-78.18 1019,-78.18"/>
<path fill="none" stroke="#0f766e" stroke-width="1.5" d="M1019,-78.18C1019,-73.87 975.07,-70.36 921,-70.36 866.93,-70.36 823,-73.87 823,-78.18"/>
<text text-anchor="middle" x="921" y="-48.2" font-family="Helvetica,sans-Serif" font-size="16.00" fill="#ffffff">Database</text>
<text text-anchor="middle" x="921" y="-30.2" font-family="Helvetica,sans-Serif" font-size="16.00" fill="#ffffff">(pending_requests table)</text>
</g>
<!-- submit_api&#45;&gt;db -->
<g id="edge3" class="edge">
<title>submit_api&#45;&gt;db</title>
<path fill="none" stroke="#555555" d="M1203.23,-170.37C1187.02,-159.91 1167.98,-148.3 1150,-139 1110.42,-118.54 1065.41,-99.09 1025.83,-83.18"/>
<polygon fill="#555555" stroke="#555555" points="1026.43,-80.78 1019.02,-80.46 1024.61,-85.33 1026.43,-80.78"/>
<text text-anchor="middle" x="1165.5" y="-114.8" font-family="Helvetica,sans-Serif" font-size="14.00" fill="#666666"> &#160;INSERT row &#160;</text>
</g>
<!-- approve_api&#45;&gt;db -->
<g id="edge4" class="edge">
<title>approve_api&#45;&gt;db</title>
<path fill="none" stroke="#555555" d="M1385.5,-169.84C1371.74,-158.8 1354.91,-146.91 1338,-139 1237.81,-92.13 1113.02,-67.64 1026.19,-55.35"/>
<polygon fill="#555555" stroke="#555555" points="1026.49,-52.92 1019.22,-54.38 1025.81,-57.78 1026.49,-52.92"/>
<text text-anchor="middle" x="1361.5" y="-114.8" font-family="Helvetica,sans-Serif" font-size="14.00" fill="#666666"> &#160;UPDATE status &#160;</text>
</g>
<!-- notify_worker -->
<g id="node6" class="node">
<title>notify_worker</title>
<ellipse fill="#ffffff" stroke="#555555" stroke-width="1.2" cx="408" cy="-199.08" rx="120.42" ry="48.17"/>
<text text-anchor="middle" x="408" y="-214.68" font-family="Helvetica,sans-Serif" font-size="18.00" fill="#333333">Notification</text>
<text text-anchor="middle" x="408" y="-194.68" font-family="Helvetica,sans-Serif" font-size="18.00" fill="#333333">Worker</text>
<text text-anchor="middle" x="408" y="-174.68" font-family="Helvetica,sans-Serif" font-size="18.00" fill="#333333">(polls for new rows)</text>
</g>
<!-- notify_worker&#45;&gt;db -->
<g id="edge5" class="edge">
<title>notify_worker&#45;&gt;db</title>
<path fill="none" stroke="#555555" d="M485.63,-162.33C505.11,-154.06 526.13,-145.73 546,-139 635.36,-108.76 739.56,-83.1 815.41,-66.1"/>
<polygon fill="#555555" stroke="#555555" points="816.36,-68.4 822.66,-64.49 815.29,-63.62 816.36,-68.4"/>
<text text-anchor="middle" x="645.5" y="-114.8" font-family="Helvetica,sans-Serif" font-size="14.00" fill="#666666"> &#160;poll &#160;</text>
</g>
<!-- email -->
<g id="node9" class="node">
<title>email</title>
<ellipse fill="#ffffff" stroke="#555555" stroke-width="1.2" cx="408" cy="-43" rx="89.19" ry="19.6"/>
<text text-anchor="middle" x="408" y="-38.6" font-family="Helvetica,sans-Serif" font-size="18.00" fill="#333333">Email Service</text>
</g>
<!-- notify_worker&#45;&gt;email -->
<g id="edge8" class="edge">
<title>notify_worker&#45;&gt;email</title>
<path fill="none" stroke="#555555" d="M408,-150.6C408,-124.06 408,-92.01 408,-70.03"/>
<polygon fill="#555555" stroke="#555555" points="410.45,-69.98 408,-62.98 405.55,-69.98 410.45,-69.98"/>
<text text-anchor="middle" x="430.5" y="-114.8" font-family="Helvetica,sans-Serif" font-size="14.00" fill="#666666"> &#160;send &#160;</text>
</g>
<!-- cron -->
<g id="node7" class="node">
<title>cron</title>
<ellipse fill="#ffffff" stroke="#555555" stroke-width="1.2" cx="136" cy="-199.08" rx="115.93" ry="48.17"/>
<text text-anchor="middle" x="136" y="-214.68" font-family="Helvetica,sans-Serif" font-size="18.00" fill="#333333">Timeout</text>
<text text-anchor="middle" x="136" y="-194.68" font-family="Helvetica,sans-Serif" font-size="18.00" fill="#333333">Scheduler</text>
<text text-anchor="middle" x="136" y="-174.68" font-family="Helvetica,sans-Serif" font-size="18.00" fill="#333333">(scans for expired)</text>
</g>
<!-- cron&#45;&gt;db -->
<g id="edge6" class="edge">
<title>cron&#45;&gt;db</title>
<path fill="none" stroke="#555555" d="M212.35,-162.89C231.06,-154.69 251.13,-146.25 270,-139 307.13,-124.74 316.17,-119.6 355,-111 440.18,-92.13 676.58,-67.46 815.45,-53.94"/>
<polygon fill="#555555" stroke="#555555" points="816.08,-56.34 822.81,-53.23 815.6,-51.47 816.08,-56.34"/>
<text text-anchor="middle" x="377" y="-114.8" font-family="Helvetica,sans-Serif" font-size="14.00" fill="#666666"> &#160;scan &#160;</text>
</g>
<!-- dlq -->
<g id="node10" class="node">
<title>dlq</title>
<ellipse fill="#b91c1c" stroke="#b91c1c" stroke-width="1.2" cx="136" cy="-43" rx="77.15" ry="33.88"/>
<text text-anchor="middle" x="136" y="-48.6" font-family="Helvetica,sans-Serif" font-size="18.00" fill="#ffffff">Dead Letter</text>
<text text-anchor="middle" x="136" y="-28.6" font-family="Helvetica,sans-Serif" font-size="18.00" fill="#ffffff">Queue</text>
</g>
<!-- cron&#45;&gt;dlq -->
<g id="edge9" class="edge">
<title>cron&#45;&gt;dlq</title>
<path fill="none" stroke="#b91c1c" stroke-dasharray="5,2" d="M136,-150.6C136,-129.49 136,-104.9 136,-84.65"/>
<polygon fill="#b91c1c" stroke="#b91c1c" points="138.45,-84.41 136,-77.41 133.55,-84.41 138.45,-84.41"/>
<text text-anchor="middle" x="184.5" y="-114.8" font-family="Helvetica,sans-Serif" font-size="14.00" fill="#b91c1c"> &#160;move expired &#160;</text>
</g>
<!-- reconciler -->
<g id="node8" class="node">
<title>reconciler</title>
<ellipse fill="#ffffff" stroke="#555555" stroke-width="1.2" cx="695" cy="-199.08" rx="130.63" ry="48.17"/>
<text text-anchor="middle" x="695" y="-214.68" font-family="Helvetica,sans-Serif" font-size="18.00" fill="#333333">Reconciliation</text>
<text text-anchor="middle" x="695" y="-194.68" font-family="Helvetica,sans-Serif" font-size="18.00" fill="#333333">Job</text>
<text text-anchor="middle" x="695" y="-174.68" font-family="Helvetica,sans-Serif" font-size="18.00" fill="#333333">(catches edge cases)</text>
</g>
<!-- reconciler&#45;&gt;db -->
<g id="edge7" class="edge">
<title>reconciler&#45;&gt;db</title>
<path fill="none" stroke="#555555" d="M756.16,-156.39C786.43,-135.75 823.04,-110.79 854.06,-89.64"/>
<polygon fill="#555555" stroke="#555555" points="855.78,-91.43 860.18,-85.46 853.02,-87.38 855.78,-91.43"/>
<text text-anchor="middle" x="844" y="-114.8" font-family="Helvetica,sans-Serif" font-size="14.00" fill="#666666"> &#160;scan &#160;</text>
</g>
<!-- race_note -->
<g id="node11" class="node">
<title>race_note</title>
<polygon fill="#ffffff" stroke="#b91c1c" stroke-width="1.2" points="1126,-228.58 862,-228.58 862,-169.58 1132,-169.58 1132,-222.58 1126,-228.58"/>
<polyline fill="none" stroke="#b91c1c" stroke-width="1.2" points="1126,-228.58 1126,-222.58 "/>
<polyline fill="none" stroke="#b91c1c" stroke-width="1.2" points="1132,-222.58 1126,-222.58 "/>
<text text-anchor="middle" x="997" y="-212.58" font-family="Helvetica,sans-Serif" font-size="15.00" fill="#b91c1c">Race: manager approves at 71h 59m,</text>
<text text-anchor="middle" x="997" y="-195.58" font-family="Helvetica,sans-Serif" font-size="15.00" fill="#b91c1c">cron expires at 72h 1m.</text>
<text text-anchor="middle" x="997" y="-178.58" font-family="Helvetica,sans-Serif" font-size="15.00" fill="#b91c1c">Requires optimistic locking.</text>
</g>
<!-- race_note&#45;&gt;db -->
<g id="edge10" class="edge">
<title>race_note&#45;&gt;db</title>
<path fill="none" stroke="#b91c1c" stroke-dasharray="1,5" d="M982.88,-169.46C971.34,-146.05 954.84,-112.61 941.78,-86.14"/>
</g>
</g>
</svg>
