<?plantuml 1.2026.2?><svg xmlns="http://www.w3.org/2000/svg" xmlns:xlink="http://www.w3.org/1999/xlink" contentStyleType="text/css" data-diagram-type="SEQUENCE" height="544px" preserveAspectRatio="none" style="width:629px;height:544px;" version="1.1" viewBox="0 0 629 544" width="629px" zoomAndPan="magnify"><defs/><g><g><title>  Temporal</title><rect fill="#FFFFFF" height="340.8613" style="stroke:#181818;stroke-width:1;" width="10" x="252.917" y="106.9102"/></g><g><title>Approval Workflow</title><rect fill="#FFFFFF" height="187.1523" style="stroke:#181818;stroke-width:1;" width="10" x="448.7236" y="132.6875"/></g><g><title>Approval Workflow</title><rect fill="#FFFFFF" height="30.7773" style="stroke:#181818;stroke-width:1;" width="10" x="448.7236" y="416.9941"/></g><g class="participant-lifeline" data-entity-uid="part1" data-qualified-name="Req" id="part1-lifeline"><g><title>Requester</title><rect fill="#000000" fill-opacity="0.00000" height="386.6387" width="8" x="82.231" y="79.1328"/><line style="stroke:#555555;stroke-width:0.5;stroke-dasharray:5,5;" x1="86" x2="86" y1="79.1328" y2="465.7715"/></g></g><g class="participant-lifeline" data-entity-uid="part2" data-qualified-name="TS" id="part2-lifeline"><g><title>  Temporal</title><rect fill="#000000" fill-opacity="0.00000" height="386.6387" width="8" x="253.917" y="79.1328"/><line style="stroke:#555555;stroke-width:0.5;stroke-dasharray:5,5;" x1="257.4619" x2="257.4619" y1="79.1328" y2="465.7715"/></g></g><g class="participant-lifeline" data-entity-uid="part3" data-qualified-name="WF" id="part3-lifeline"><g><title>Approval Workflow</title><rect fill="#000000" fill-opacity="0.00000" height="386.6387" width="8" x="449.7236" y="79.1328"/><line style="stroke:#555555;stroke-width:0.5;stroke-dasharray:5,5;" x1="453.3721" x2="453.3721" y1="79.1328" y2="465.7715"/></g></g><g class="participant-lifeline" data-entity-uid="part4" data-qualified-name="App" id="part4-lifeline"><g><title>Approver</title><rect fill="#000000" fill-opacity="0.00000" height="386.6387" width="8" x="594.8115" y="79.1328"/><line style="stroke:#555555;stroke-width:0.5;stroke-dasharray:5,5;" x1="598.0752" x2="598.0752" y1="79.1328" y2="465.7715"/></g></g><g class="participant participant-head" data-entity-uid="part1" data-qualified-name="Req" id="part1-head"><rect fill="#FFFFFF" height="42" rx="2.5" ry="2.5" style="stroke:#555555;stroke-width:0.5;" width="82.4619" x="45" y="36.1328"/><text fill="#333333" font-family="Helvetica" font-size="14" lengthAdjust="spacing" textLength="64.5928" x="53.9346" y="53.9131">Requester</text><text fill="#333333" font-family="Helvetica" font-size="14" lengthAdjust="spacing" textLength="68.4619" x="52" y="67.9131">(API client)</text></g><g class="participant participant-tail" data-entity-uid="part1" data-qualified-name="Req" id="part1-tail"><rect fill="#FFFFFF" height="42" rx="2.5" ry="2.5" style="stroke:#555555;stroke-width:0.5;" width="82.4619" x="45" y="464.7715"/><text fill="#333333" font-family="Helvetica" font-size="14" lengthAdjust="spacing" textLength="64.5928" x="53.9346" y="482.5518">Requester</text><text fill="#333333" font-family="Helvetica" font-size="14" lengthAdjust="spacing" textLength="68.4619" x="52" y="496.5518">(API client)</text></g><g class="participant participant-head" data-entity-uid="part2" data-qualified-name="TS" id="part2-head"><rect fill="#FFFFFF" height="42" rx="2.5" ry="2.5" style="stroke:#555555;stroke-width:0.5;" width="80.9102" x="217.4619" y="36.1328"/><text fill="#333333" font-family="Helvetica" font-size="14" lengthAdjust="spacing" textLength="59.1309" x="232.2412" y="53.9131">Temporal</text><text fill="#333333" font-family="Helvetica" font-size="14" lengthAdjust="spacing" textLength="41.2344" x="241.1895" y="67.9131">Server</text></g><g class="participant participant-tail" data-entity-uid="part2" data-qualified-name="TS" id="part2-tail"><rect fill="#FFFFFF" height="42" rx="2.5" ry="2.5" style="stroke:#555555;stroke-width:0.5;" width="80.9102" x="217.4619" y="464.7715"/><text fill="#333333" font-family="Helvetica" font-size="14" lengthAdjust="spacing" textLength="59.1309" x="232.2412" y="482.5518">Temporal</text><text fill="#333333" font-family="Helvetica" font-size="14" lengthAdjust="spacing" textLength="41.2344" x="241.1895" y="496.5518">Server</text></g><g class="participant participant-head" data-entity-uid="part3" data-qualified-name="WF" id="part3-head"><rect fill="#FFFFFF" height="42" rx="2.5" ry="2.5" style="stroke:#555555;stroke-width:0.5;" width="130.7031" x="388.3721" y="36.1328"/><text fill="#333333" font-family="Helvetica" font-size="14" lengthAdjust="spacing" textLength="116.7031" x="395.3721" y="53.9131">Approval Workflow</text><text fill="#333333" font-family="Helvetica" font-size="14" lengthAdjust="spacing" textLength="70.793" x="418.3271" y="67.9131">(on worker)</text></g><g class="participant participant-tail" data-entity-uid="part3" data-qualified-name="WF" id="part3-tail"><rect fill="#FFFFFF" height="42" rx="2.5" ry="2.5" style="stroke:#555555;stroke-width:0.5;" width="130.7031" x="388.3721" y="464.7715"/><text fill="#333333" font-family="Helvetica" font-size="14" lengthAdjust="spacing" textLength="116.7031" x="395.3721" y="482.5518">Approval Workflow</text><text fill="#333333" font-family="Helvetica" font-size="14" lengthAdjust="spacing" textLength="70.793" x="418.3271" y="496.5518">(on worker)</text></g><g class="participant participant-head" data-entity-uid="part4" data-qualified-name="App" id="part4-head"><text fill="#000000" font-family="sans-serif" font-size="12" lengthAdjust="spacing" textLength="53.4727" x="569.0752" y="76.6016">Approver</text><ellipse cx="598.8115" cy="13.5" fill="#E2E2F0" rx="8" ry="8" style="stroke:#555555;stroke-width:0.5;"/><path d="M598.8115,21.5 L598.8115,48.5 M585.8115,29.5 L611.8115,29.5 M598.8115,48.5 L585.8115,63.5 M598.8115,48.5 L611.8115,63.5" fill="none" style="stroke:#555555;stroke-width:0.5;"/></g><g class="participant participant-tail" data-entity-uid="part4" data-qualified-name="App" id="part4-tail"><text fill="#000000" font-family="sans-serif" font-size="12" lengthAdjust="spacing" textLength="53.4727" x="569.0752" y="476.373">Approver</text><ellipse cx="598.8115" cy="487.4043" fill="#E2E2F0" rx="8" ry="8" style="stroke:#555555;stroke-width:0.5;"/><path d="M598.8115,495.4043 L598.8115,522.4043 M585.8115,503.4043 L611.8115,503.4043 M598.8115,522.4043 L585.8115,537.4043 M598.8115,522.4043 L611.8115,537.4043" fill="none" style="stroke:#555555;stroke-width:0.5;"/></g><g><title>  Temporal</title><rect fill="#FFFFFF" height="340.8613" style="stroke:#181818;stroke-width:1;" width="10" x="252.917" y="106.9102"/></g><g><title>Approval Workflow</title><rect fill="#FFFFFF" height="187.1523" style="stroke:#181818;stroke-width:1;" width="10" x="448.7236" y="132.6875"/></g><g><title>Approval Workflow</title><rect fill="#FFFFFF" height="30.7773" style="stroke:#181818;stroke-width:1;" width="10" x="448.7236" y="416.9941"/></g><g class="message" data-entity-1="part1" data-entity-2="part2" id="msg1"><polygon fill="#555555" points="240.917,102.9102,250.917,106.9102,240.917,110.9102,244.917,106.9102" style="stroke:#555555;stroke-width:1;"/><line style="stroke:#555555;stroke-width:1;" x1="86.231" x2="246.917" y1="106.9102" y2="106.9102"/><text fill="#000000" font-family="sans-serif" font-size="10" lengthAdjust="spacing" textLength="83.5205" x="93.231" y="102.8008">(1) StartWorkflow</text></g><g class="message" data-entity-1="part2" data-entity-2="part3" id="msg2"><polygon fill="#555555" points="436.7236,128.6875,446.7236,132.6875,436.7236,136.6875,440.7236,132.6875" style="stroke:#555555;stroke-width:1;"/><line style="stroke:#555555;stroke-width:1;" x1="262.917" x2="442.7236" y1="132.6875" y2="132.6875"/><text fill="#000000" font-family="sans-serif" font-size="10" lengthAdjust="spacing" textLength="106.8164" x="269.917" y="128.5781">(2) dispatch to worker</text></g><g class="message" data-entity-1="part3" data-entity-2="part4" id="msg3"><polygon fill="#555555" points="586.8115,174.4648,596.8115,178.4648,586.8115,182.4648,590.8115,178.4648" style="stroke:#555555;stroke-width:1;"/><line style="stroke:#555555;stroke-width:1;" x1="458.7236" x2="592.8115" y1="178.4648" y2="178.4648"/><text fill="#000000" font-family="sans-serif" font-size="10" lengthAdjust="spacing" textLength="89.6143" x="465.7236" y="174.3555">(3) NotifyApprover</text></g><g class="message" data-entity-1="part3" data-entity-2="part3" id="msg4"><line style="stroke:#555555;stroke-width:1;" x1="458.7236" x2="500.7236" y1="209.2422" y2="209.2422"/><line style="stroke:#555555;stroke-width:1;" x1="500.7236" x2="500.7236" y1="209.2422" y2="222.2422"/><line style="stroke:#555555;stroke-width:1;" x1="459.7236" x2="500.7236" y1="222.2422" y2="222.2422"/><polygon fill="#555555" points="469.7236,218.2422,459.7236,222.2422,469.7236,226.2422,465.7236,222.2422" style="stroke:#555555;stroke-width:1;"/><text fill="#000000" font-family="sans-serif" font-size="10" lengthAdjust="spacing" textLength="73.667" x="465.7236" y="205.1328">(4) await Signal</text></g><path d="M463,235.2422 L463,296.2422 L606,296.2422 L606,245.2422 L596,235.2422 L463,235.2422" fill="#FFFFFF" style="stroke:#999999;stroke-width:0.5;"/><path d="M596,235.2422 L596,245.2422 L606,245.2422 L596,235.2422" fill="#FFFFFF" style="stroke:#999999;stroke-width:0.5;"/><text fill="#666666" font-family="sans-serif" font-size="11" font-weight="bold" lengthAdjust="spacing" textLength="66.5264" x="469" y="250.877">SUSPENDED</text><text fill="#666666" font-family="sans-serif" font-size="11" lengthAdjust="spacing" textLength="122.9497" x="469" y="263.832">No threads, no polling,</text><text fill="#666666" font-family="sans-serif" font-size="11" lengthAdjust="spacing" textLength="106.8096" x="469" y="276.7871">no DB row to check.</text><text fill="#666666" font-family="sans-serif" font-size="11" lengthAdjust="spacing" textLength="102.6738" x="469" y="289.7422">Zero resource cost.</text><g class="message" data-entity-1="part3" data-entity-2="part2" id="msg5"><polygon fill="#555555" points="273.917,315.8398,263.917,319.8398,273.917,323.8398,269.917,319.8398" style="stroke:#555555;stroke-width:1;"/><line style="stroke:#555555;stroke-width:1;stroke-dasharray:2,2;" x1="267.917" x2="452.7236" y1="319.8398" y2="319.8398"/><text fill="#000000" font-family="sans-serif" font-size="10" lengthAdjust="spacing" textLength="22.8711" x="279.917" y="315.7305">yield</text></g><path d="M267,342.8398 L267,362.8398 L403,362.8398 L403,352.8398 L393,342.8398 L267,342.8398" fill="#FFFFFF"/><path d="M393,342.8398 L393,352.8398 L403,352.8398 L393,342.8398" fill="#FFFFFF"/><text fill="#999999" font-family="sans-serif" font-size="9" lengthAdjust="spacing" textLength="115.6553" x="273" y="356.541">time passes (hours / days)</text><g class="message" data-entity-1="part4" data-entity-2="part2" id="msg6"><polygon fill="#555555" points="273.917,387.2168,263.917,391.2168,273.917,395.2168,269.917,391.2168" style="stroke:#555555;stroke-width:1;"/><line style="stroke:#555555;stroke-width:1;" x1="267.917" x2="597.8115" y1="391.2168" y2="391.2168"/><text fill="#000000" font-family="sans-serif" font-size="10" lengthAdjust="spacing" textLength="130.8984" x="279.917" y="387.1074">(5) Signal(approved = true)</text></g><g class="message" data-entity-1="part2" data-entity-2="part3" id="msg7"><polygon fill="#555555" points="436.7236,412.9941,446.7236,416.9941,436.7236,420.9941,440.7236,416.9941" style="stroke:#555555;stroke-width:1;"/><line style="stroke:#555555;stroke-width:1;" x1="262.917" x2="442.7236" y1="416.9941" y2="416.9941"/><text fill="#000000" font-family="sans-serif" font-size="10" lengthAdjust="spacing" textLength="80.4834" x="269.917" y="412.8848">(6) deliver signal</text></g><g class="message" data-entity-1="part3" data-entity-2="part1" id="msg8"><polygon fill="#555555" points="97.231,443.7715,87.231,447.7715,97.231,451.7715,93.231,447.7715" style="stroke:#555555;stroke-width:1;"/><line style="stroke:#555555;stroke-width:1;stroke-dasharray:2,2;" x1="91.231" x2="452.7236" y1="447.7715" y2="447.7715"/><text fill="#000000" font-family="sans-serif" font-size="10" lengthAdjust="spacing" textLength="143.96" x="103.231" y="443.6621">(7) WorkflowResult: Approved</text></g><?plantuml-src ZLJRRjf047tVhnY55upIS4yRIf78XRHIX52S2gdAozOUy0gpw-uk85hwxvsr3JOaIDqdTkRCcTapnvY5a0dNV0a_UR2OQxMIuPsAbGQhkJIKGccPEQ0C_bgX313-C82XrcgJeIlTz53mISpmIKYyLJf4VJPxqgqoImyX9bnR4OY4I_i-HHdmFomZ9MsURgVdRTeNln6QdRU9CLyYVCLuZHJb-oSN9GqN2gpIxu-QfWfqYqAFD6voVkuiNIRhjDkVxeR7eqru60evXqw3_IqjHogRBUOy_n7rJNeeMfBeEZrvB1kxIKrOKdI7YsVd0cDHlyhgSF8DWbYGJRmBu0OeTmm6UC5beZIFNoM0ZtgDEaM--CV0OP9ejUOnJ9LUp6Ar8NObOKCtr1dvTCIuqtGFpfdemXWrXWy3OeKUL9iU-9R8zrIkJAmvwKDT2KB0wSW1Mnw4WdnkWmYiofiLQ6h8ThjMOxTZXASgQkNAsXwCbHMpxNuEGdKFe8owum7VS6715tF9OvQkHujvP47D73D0hUP_zoSFu_k7-rgDxcC5DjB8GtD9suH4nJ7j-P8oTBk_1JAVcpA8C5XSKVG7QWKQZLff-YO3PUmLGnccJaXdsGko5HY7BCIJXpNTmuxd8dXb4mcBdwarzjAVrAblo0kzcq4_S3xfvTuPM44VICADGGFLYCOmK8UGRutNhwV8GR_kAWV5M9bGp0bvM5VNoqMgyapF4BxGFz0AlQDbNTEoC1OaDvXCq_9xYWrGWNC3LNpq3cvwHhEARG_oZPsgKRgHHVu1?></g></svg>