<?xml version="1.0" encoding="utf-8" ?>
<svg baseProfile="full" height="230" version="1.1" viewBox="0 0 620 230" width="620" xmlns="http://www.w3.org/2000/svg" xmlns:ev="http://www.w3.org/2001/xml-events" xmlns:xlink="http://www.w3.org/1999/xlink"><defs><marker id="id1" markerHeight="8" markerUnits="strokeWidth" markerWidth="8" orient="auto" refX="8" refY="4"><path d="M0,0 L8,4 L0,8 Z" fill="#555555" /></marker><marker id="arrow_danger" markerHeight="8" markerUnits="strokeWidth" markerWidth="8" orient="auto" refX="8" refY="4"><path d="M0,0 L8,4 L0,8 Z" fill="#b91c1c" /></marker></defs><style type="text/css"><![CDATA[text { font-family: Helvetica, Arial, sans-serif; }]]></style><rect fill="#f8f9fa" height="170" rx="6" ry="6" stroke="#4338CA" stroke-width="1.5" width="270" x="310" y="30" /><text fill="#4338CA" font-size="13" font-weight="600" text-anchor="middle" x="445" y="55">Workflow Runtime</text><rect fill="#fff" height="45" rx="4" ry="4" stroke="#555555" stroke-width="1" width="130" x="30" y="55" /><text fill="#333333" font-size="14" text-anchor="middle" x="95" y="83">Client A</text><rect fill="#fff" height="45" rx="4" ry="4" stroke="#555555" stroke-width="1" width="130" x="30" y="130" /><text fill="#333333" font-size="14" text-anchor="middle" x="95" y="158">Client B</text><rect fill="#4338CA" height="60" rx="4" ry="4" stroke="#4338CA" stroke-width="1.5" width="200" x="360" y="80" /><text fill="#ffffff" font-size="14" font-weight="500" text-anchor="middle" x="460" y="107">payment-pay123</text><text fill="#ccccdd" font-size="11" text-anchor="middle" x="460" y="125">(Active)</text><line marker-end="url(#id1)" stroke="#555555" stroke-width="1" x1="160" x2="360" y1="77" y2="103" /><text fill="#666666" font-size="11" text-anchor="middle" x="250" y="80">Start → OK</text><line marker-end="url(#arrow_danger)" stroke="#b91c1c" stroke-dasharray="5,3" stroke-width="1" x1="160" x2="360" y1="152" y2="118" /><text fill="#b91c1c" font-size="11" text-anchor="middle" x="250" y="165">Start → Already Exists</text></svg>