<?xml version="1.0" encoding="UTF-8" standalone="no"?>
<!DOCTYPE svg PUBLIC "-//W3C//DTD SVG 1.1//EN"
 "http://www.w3.org/Graphics/SVG/1.1/DTD/svg11.dtd">
<!-- Generated by graphviz version 2.43.0 (0)
 -->
<!-- Title: saga Pages: 1 -->
<svg width="506pt" height="431pt"
 viewBox="0.00 0.00 505.70 431.20" xmlns="http://www.w3.org/2000/svg" xmlns:xlink="http://www.w3.org/1999/xlink">
<g id="graph0" class="graph" transform="scale(1 1) rotate(0) translate(21.6 409.6)">
<title>saga</title>
<g id="clust1" class="cluster">
<title>cluster_forward</title>
<path fill="#f8f9fa" stroke="#555555" stroke-width="1.5" d="M20,-105C20,-105 109,-105 109,-105 115,-105 121,-111 121,-117 121,-117 121,-368 121,-368 121,-374 115,-380 109,-380 109,-380 20,-380 20,-380 14,-380 8,-374 8,-368 8,-368 8,-117 8,-117 8,-111 14,-105 20,-105"/>
<text text-anchor="middle" x="64.5" y="-365.6" font-family="Helvetica,sans-Serif" font-size="13.00" fill="#333333">Forward Flow</text>
</g>
<g id="clust2" class="cluster">
<title>cluster_compensate</title>
<path fill="#f8f9fa" stroke="#555555" stroke-width="1.5" d="M178,-196C178,-196 286,-196 286,-196 292,-196 298,-202 298,-208 298,-208 298,-368 298,-368 298,-374 292,-380 286,-380 286,-380 178,-380 178,-380 172,-380 166,-374 166,-368 166,-368 166,-208 166,-208 166,-202 172,-196 178,-196"/>
<text text-anchor="middle" x="232" y="-365.6" font-family="Helvetica,sans-Serif" font-size="13.00" fill="#333333">Compensation Flow</text>
</g>
<!-- reserve_flight -->
<g id="node1" class="node">
<title>reserve_flight</title>
<path fill="#047857" stroke="#047857" stroke-width="1.2" d="M93,-342C93,-342 49,-342 49,-342 43,-342 37,-336 37,-330 37,-330 37,-316 37,-316 37,-310 43,-304 49,-304 49,-304 93,-304 93,-304 99,-304 105,-310 105,-316 105,-316 105,-330 105,-330 105,-336 99,-342 93,-342"/>
<text text-anchor="middle" x="71" y="-326.8" font-family="Helvetica,sans-Serif" font-size="14.00" fill="#ffffff">Reserve</text>
<text text-anchor="middle" x="71" y="-311.8" font-family="Helvetica,sans-Serif" font-size="14.00" fill="#ffffff">Flight</text>
</g>
<!-- reserve_hotel -->
<g id="node2" class="node">
<title>reserve_hotel</title>
<path fill="#047857" stroke="#047857" stroke-width="1.2" d="M93,-250C93,-250 49,-250 49,-250 43,-250 37,-244 37,-238 37,-238 37,-224 37,-224 37,-218 43,-212 49,-212 49,-212 93,-212 93,-212 99,-212 105,-218 105,-224 105,-224 105,-238 105,-238 105,-244 99,-250 93,-250"/>
<text text-anchor="middle" x="71" y="-234.8" font-family="Helvetica,sans-Serif" font-size="14.00" fill="#ffffff">Reserve</text>
<text text-anchor="middle" x="71" y="-219.8" font-family="Helvetica,sans-Serif" font-size="14.00" fill="#ffffff">Hotel</text>
</g>
<!-- reserve_flight&#45;&gt;reserve_hotel -->
<g id="edge1" class="edge">
<title>reserve_flight&#45;&gt;reserve_hotel</title>
<path fill="none" stroke="#047857" stroke-width="1.5" d="M71,-303.79C71,-290.49 71,-272.29 71,-257.54"/>
<polygon fill="#047857" stroke="#047857" stroke-width="1.5" points="73.45,-257.19 71,-250.19 68.55,-257.19 73.45,-257.19"/>
<text text-anchor="middle" x="82.5" y="-271" font-family="Helvetica,sans-Serif" font-size="10.00" fill="#047857"> &#160;ok &#160;</text>
</g>
<!-- cancel_flight -->
<g id="node6" class="node">
<title>cancel_flight</title>
<path fill="#4338ca" stroke="#4338ca" stroke-width="1.2" d="M267.5,-342C267.5,-342 232.5,-342 232.5,-342 226.5,-342 220.5,-336 220.5,-330 220.5,-330 220.5,-316 220.5,-316 220.5,-310 226.5,-304 232.5,-304 232.5,-304 267.5,-304 267.5,-304 273.5,-304 279.5,-310 279.5,-316 279.5,-316 279.5,-330 279.5,-330 279.5,-336 273.5,-342 267.5,-342"/>
<text text-anchor="middle" x="250" y="-326.8" font-family="Helvetica,sans-Serif" font-size="14.00" fill="#ffffff">Cancel</text>
<text text-anchor="middle" x="250" y="-311.8" font-family="Helvetica,sans-Serif" font-size="14.00" fill="#ffffff">Flight</text>
</g>
<!-- reserve_flight&#45;&gt;cancel_flight -->
<!-- charge_payment -->
<g id="node3" class="node">
<title>charge_payment</title>
<path fill="#b91c1c" stroke="#b91c1c" stroke-width="1.2" d="M92.5,-159C92.5,-159 45.5,-159 45.5,-159 39.5,-159 33.5,-153 33.5,-147 33.5,-147 33.5,-133 33.5,-133 33.5,-127 39.5,-121 45.5,-121 45.5,-121 92.5,-121 92.5,-121 98.5,-121 104.5,-127 104.5,-133 104.5,-133 104.5,-147 104.5,-147 104.5,-153 98.5,-159 92.5,-159"/>
<text text-anchor="middle" x="69" y="-143.8" font-family="Helvetica,sans-Serif" font-size="14.00" fill="#ffffff">Charge</text>
<text text-anchor="middle" x="69" y="-128.8" font-family="Helvetica,sans-Serif" font-size="14.00" fill="#ffffff">Payment</text>
</g>
<!-- reserve_hotel&#45;&gt;charge_payment -->
<g id="edge2" class="edge">
<title>reserve_hotel&#45;&gt;charge_payment</title>
<path fill="none" stroke="#047857" stroke-width="1.5" d="M70.6,-211.99C70.3,-198.93 69.9,-181.08 69.57,-166.54"/>
<polygon fill="#047857" stroke="#047857" stroke-width="1.5" points="72.02,-166.23 69.41,-159.29 67.12,-166.34 72.02,-166.23"/>
<text text-anchor="middle" x="81.5" y="-180" font-family="Helvetica,sans-Serif" font-size="10.00" fill="#047857"> &#160;ok &#160;</text>
</g>
<!-- cancel_hotel -->
<g id="node5" class="node">
<title>cancel_hotel</title>
<path fill="#4338ca" stroke="#4338ca" stroke-width="1.2" d="M267.5,-250C267.5,-250 232.5,-250 232.5,-250 226.5,-250 220.5,-244 220.5,-238 220.5,-238 220.5,-224 220.5,-224 220.5,-218 226.5,-212 232.5,-212 232.5,-212 267.5,-212 267.5,-212 273.5,-212 279.5,-218 279.5,-224 279.5,-224 279.5,-238 279.5,-238 279.5,-244 273.5,-250 267.5,-250"/>
<text text-anchor="middle" x="250" y="-234.8" font-family="Helvetica,sans-Serif" font-size="14.00" fill="#ffffff">Cancel</text>
<text text-anchor="middle" x="250" y="-219.8" font-family="Helvetica,sans-Serif" font-size="14.00" fill="#ffffff">Hotel</text>
</g>
<!-- reserve_hotel&#45;&gt;cancel_hotel -->
<!-- failure -->
<g id="node4" class="node">
<title>failure</title>
<path fill="#ffffff" stroke="#b91c1c" stroke-width="1.5" d="M58.48,-62.23C58.48,-62.23 17.52,-39.77 17.52,-39.77 12.26,-36.88 12.26,-31.12 17.52,-28.23 17.52,-28.23 58.48,-5.77 58.48,-5.77 63.74,-2.88 74.26,-2.88 79.52,-5.77 79.52,-5.77 120.48,-28.23 120.48,-28.23 125.74,-31.12 125.74,-36.88 120.48,-39.77 120.48,-39.77 79.52,-62.23 79.52,-62.23 74.26,-65.12 63.74,-65.12 58.48,-62.23"/>
<text text-anchor="middle" x="69" y="-37.4" font-family="Helvetica,sans-Serif" font-size="12.00" fill="#b91c1c">Payment</text>
<text text-anchor="middle" x="69" y="-24.4" font-family="Helvetica,sans-Serif" font-size="12.00" fill="#b91c1c">Failed!</text>
</g>
<!-- charge_payment&#45;&gt;failure -->
<g id="edge5" class="edge">
<title>charge_payment&#45;&gt;failure</title>
<path fill="none" stroke="#b91c1c" stroke-width="1.5" stroke-dasharray="5,2" d="M69,-120.88C69,-108.27 69,-90.94 69,-75.15"/>
<polygon fill="#b91c1c" stroke="#b91c1c" stroke-width="1.5" points="71.45,-75.02 69,-68.02 66.55,-75.02 71.45,-75.02"/>
<text text-anchor="middle" x="85" y="-89" font-family="Helvetica,sans-Serif" font-size="10.00" fill="#b91c1c"> &#160;error &#160;</text>
</g>
<!-- failure&#45;&gt;cancel_hotel -->
<g id="edge6" class="edge">
<title>failure&#45;&gt;cancel_hotel</title>
<path fill="none" stroke="#4338ca" stroke-width="1.5" d="M89.88,-57C102.9,-70.76 119.97,-88.87 135,-105 167.7,-140.11 205.28,-181.08 228.34,-206.28"/>
<polygon fill="#4338ca" stroke="#4338ca" stroke-width="1.5" points="226.78,-208.21 233.31,-211.72 230.39,-204.9 226.78,-208.21"/>
<text text-anchor="middle" x="218" y="-137.5" font-family="Helvetica,sans-Serif" font-size="10.00" fill="#4338ca"> &#160;compensate &#160;</text>
</g>
<!-- cancel_hotel&#45;&gt;cancel_flight -->
<g id="edge7" class="edge">
<title>cancel_hotel&#45;&gt;cancel_flight</title>
<path fill="none" stroke="#4338ca" stroke-width="1.5" d="M250,-250.19C250,-263.48 250,-281.68 250,-296.43"/>
<polygon fill="#4338ca" stroke="#4338ca" stroke-width="1.5" points="247.55,-296.79 250,-303.79 252.45,-296.79 247.55,-296.79"/>
<text text-anchor="middle" x="267" y="-271" font-family="Helvetica,sans-Serif" font-size="10.00" fill="#4338ca"> &#160;undo &#160;</text>
</g>
<!-- stack -->
<g id="node7" class="node">
<title>stack</title>
<polygon fill="#ffffff" stroke="#999999" stroke-width="1.2" points="456.5,-349 337.5,-349 337.5,-297 462.5,-297 462.5,-343 456.5,-349"/>
<polyline fill="none" stroke="#999999" stroke-width="1.2" points="456.5,-349 456.5,-343 "/>
<polyline fill="none" stroke="#999999" stroke-width="1.2" points="462.5,-343 456.5,-343 "/>
<text text-anchor="middle" x="400" y="-337" font-family="Courier,monospace" font-size="10.00" fill="#4338ca">Compensation Stack</text>
<text text-anchor="middle" x="400" y="-326" font-family="Courier,monospace" font-size="10.00" fill="#4338ca">─────────────────</text>
<text text-anchor="middle" x="400" y="-315" font-family="Courier,monospace" font-size="10.00" fill="#4338ca">1. Cancel Flight</text>
<text text-anchor="middle" x="400" y="-304" font-family="Courier,monospace" font-size="10.00" fill="#4338ca">2. Cancel Hotel</text>
</g>
<!-- stack&#45;&gt;failure -->
<g id="edge8" class="edge">
<title>stack&#45;&gt;failure</title>
<path fill="none" stroke="#999999" stroke-dasharray="1,5" d="M390.79,-296.72C373.2,-251.82 330.62,-157.92 265,-105 221.26,-69.73 158.34,-51.48 115.68,-42.59"/>
</g>
</g>
</svg>
