<?xml version="1.0" encoding="UTF-8" standalone="no"?>
<!DOCTYPE svg PUBLIC "-//W3C//DTD SVG 1.1//EN"
 "http://www.w3.org/Graphics/SVG/1.1/DTD/svg11.dtd">
<!-- Generated by graphviz version 12.2.1 (20241206.2353)
 -->
<!-- Title: saga Pages: 1 -->
<svg width="504pt" height="434pt"
 viewBox="0.00 0.00 504.20 433.95" xmlns="http://www.w3.org/2000/svg" xmlns:xlink="http://www.w3.org/1999/xlink">
<g id="graph0" class="graph" transform="scale(1 1) rotate(0) translate(21.6 412.35)">
<title>saga</title>
<g id="clust1" class="cluster">
<title>cluster_forward</title>
<path fill="#f8f9fa" stroke="#555555" stroke-width="1.5" d="M20,-104.25C20,-104.25 109,-104.25 109,-104.25 115,-104.25 121,-110.25 121,-116.25 121,-116.25 121,-370.75 121,-370.75 121,-376.75 115,-382.75 109,-382.75 109,-382.75 20,-382.75 20,-382.75 14,-382.75 8,-376.75 8,-370.75 8,-370.75 8,-116.25 8,-116.25 8,-110.25 14,-104.25 20,-104.25"/>
<text text-anchor="middle" x="64.5" y="-366.4" font-family="Helvetica,sans-Serif" font-size="13.00" fill="#333333">Forward Flow</text>
</g>
<g id="clust2" class="cluster">
<title>cluster_compensate</title>
<path fill="#f8f9fa" stroke="#555555" stroke-width="1.5" d="M179,-195.5C179,-195.5 289,-195.5 289,-195.5 295,-195.5 301,-201.5 301,-207.5 301,-207.5 301,-370.75 301,-370.75 301,-376.75 295,-382.75 289,-382.75 289,-382.75 179,-382.75 179,-382.75 173,-382.75 167,-376.75 167,-370.75 167,-370.75 167,-207.5 167,-207.5 167,-201.5 173,-195.5 179,-195.5"/>
<text text-anchor="middle" x="234" y="-366.4" font-family="Helvetica,sans-Serif" font-size="13.00" fill="#333333">Compensation Flow</text>
</g>
<!-- reserve_flight -->
<g id="node1" class="node">
<title>reserve_flight</title>
<path fill="#047857" stroke="#047857" stroke-width="1.2" d="M93.12,-345.25C93.12,-345.25 50.88,-345.25 50.88,-345.25 44.88,-345.25 38.88,-339.25 38.88,-333.25 38.88,-333.25 38.88,-319.25 38.88,-319.25 38.88,-313.25 44.88,-307.25 50.88,-307.25 50.88,-307.25 93.12,-307.25 93.12,-307.25 99.12,-307.25 105.12,-313.25 105.12,-319.25 105.12,-319.25 105.12,-333.25 105.12,-333.25 105.12,-339.25 99.12,-345.25 93.12,-345.25"/>
<text text-anchor="middle" x="72" y="-327.95" font-family="Helvetica,sans-Serif" font-size="14.00" fill="#ffffff">Reserve</text>
<text text-anchor="middle" x="72" y="-312.95" font-family="Helvetica,sans-Serif" font-size="14.00" fill="#ffffff">Flight</text>
</g>
<!-- reserve_hotel -->
<g id="node2" class="node">
<title>reserve_hotel</title>
<path fill="#047857" stroke="#047857" stroke-width="1.2" d="M93.12,-249.5C93.12,-249.5 50.88,-249.5 50.88,-249.5 44.88,-249.5 38.88,-243.5 38.88,-237.5 38.88,-237.5 38.88,-223.5 38.88,-223.5 38.88,-217.5 44.88,-211.5 50.88,-211.5 50.88,-211.5 93.12,-211.5 93.12,-211.5 99.12,-211.5 105.12,-217.5 105.12,-223.5 105.12,-223.5 105.12,-237.5 105.12,-237.5 105.12,-243.5 99.12,-249.5 93.12,-249.5"/>
<text text-anchor="middle" x="72" y="-232.2" font-family="Helvetica,sans-Serif" font-size="14.00" fill="#ffffff">Reserve</text>
<text text-anchor="middle" x="72" y="-217.2" font-family="Helvetica,sans-Serif" font-size="14.00" fill="#ffffff">Hotel</text>
</g>
<!-- reserve_flight&#45;&gt;reserve_hotel -->
<g id="edge1" class="edge">
<title>reserve_flight&#45;&gt;reserve_hotel</title>
<path fill="none" stroke="#047857" stroke-width="1.5" d="M72,-307.17C72,-293.51 72,-274.53 72,-258.99"/>
<polygon fill="#047857" stroke="#047857" stroke-width="1.5" points="74.45,-259.11 72,-252.11 69.55,-259.11 74.45,-259.11"/>
<text text-anchor="middle" x="83.25" y="-269.25" font-family="Helvetica,sans-Serif" font-size="10.00" fill="#047857"> &#160;ok &#160;</text>
</g>
<!-- cancel_flight -->
<g id="node6" class="node">
<title>cancel_flight</title>
<path fill="#4338ca" stroke="#4338ca" stroke-width="1.2" d="M267,-345.25C267,-345.25 233,-345.25 233,-345.25 227,-345.25 221,-339.25 221,-333.25 221,-333.25 221,-319.25 221,-319.25 221,-313.25 227,-307.25 233,-307.25 233,-307.25 267,-307.25 267,-307.25 273,-307.25 279,-313.25 279,-319.25 279,-319.25 279,-333.25 279,-333.25 279,-339.25 273,-345.25 267,-345.25"/>
<text text-anchor="middle" x="250" y="-327.95" font-family="Helvetica,sans-Serif" font-size="14.00" fill="#ffffff">Cancel</text>
<text text-anchor="middle" x="250" y="-312.95" font-family="Helvetica,sans-Serif" font-size="14.00" fill="#ffffff">Flight</text>
</g>
<!-- reserve_flight&#45;&gt;cancel_flight -->
<!-- charge_payment -->
<g id="node3" class="node">
<title>charge_payment</title>
<path fill="#b91c1c" stroke="#b91c1c" stroke-width="1.2" d="M93,-158.25C93,-158.25 47,-158.25 47,-158.25 41,-158.25 35,-152.25 35,-146.25 35,-146.25 35,-132.25 35,-132.25 35,-126.25 41,-120.25 47,-120.25 47,-120.25 93,-120.25 93,-120.25 99,-120.25 105,-126.25 105,-132.25 105,-132.25 105,-146.25 105,-146.25 105,-152.25 99,-158.25 93,-158.25"/>
<text text-anchor="middle" x="70" y="-140.95" font-family="Helvetica,sans-Serif" font-size="14.00" fill="#ffffff">Charge</text>
<text text-anchor="middle" x="70" y="-125.95" font-family="Helvetica,sans-Serif" font-size="14.00" fill="#ffffff">Payment</text>
</g>
<!-- reserve_hotel&#45;&gt;charge_payment -->
<g id="edge2" class="edge">
<title>reserve_hotel&#45;&gt;charge_payment</title>
<path fill="none" stroke="#047857" stroke-width="1.5" d="M71.59,-211.01C71.31,-198.56 70.93,-181.93 70.62,-167.92"/>
<polygon fill="#047857" stroke="#047857" stroke-width="1.5" points="73.07,-167.93 70.46,-160.99 68.17,-168.04 73.07,-167.93"/>
<text text-anchor="middle" x="82.25" y="-178" font-family="Helvetica,sans-Serif" font-size="10.00" fill="#047857"> &#160;ok &#160;</text>
</g>
<!-- cancel_hotel -->
<g id="node5" class="node">
<title>cancel_hotel</title>
<path fill="#4338ca" stroke="#4338ca" stroke-width="1.2" d="M267,-249.5C267,-249.5 233,-249.5 233,-249.5 227,-249.5 221,-243.5 221,-237.5 221,-237.5 221,-223.5 221,-223.5 221,-217.5 227,-211.5 233,-211.5 233,-211.5 267,-211.5 267,-211.5 273,-211.5 279,-217.5 279,-223.5 279,-223.5 279,-237.5 279,-237.5 279,-243.5 273,-249.5 267,-249.5"/>
<text text-anchor="middle" x="250" y="-232.2" font-family="Helvetica,sans-Serif" font-size="14.00" fill="#ffffff">Cancel</text>
<text text-anchor="middle" x="250" y="-217.2" font-family="Helvetica,sans-Serif" font-size="14.00" fill="#ffffff">Hotel</text>
</g>
<!-- reserve_hotel&#45;&gt;cancel_hotel -->
<!-- failure -->
<g id="node4" class="node">
<title>failure</title>
<path fill="#ffffff" stroke="#b91c1c" stroke-width="1.5" d="M59.4,-61.38C59.4,-61.38 17.35,-39.12 17.35,-39.12 12.05,-36.31 12.05,-30.69 17.35,-27.88 17.35,-27.88 59.4,-5.62 59.4,-5.62 64.7,-2.81 75.3,-2.81 80.6,-5.62 80.6,-5.62 122.65,-27.88 122.65,-27.88 127.95,-30.69 127.95,-36.31 122.65,-39.12 122.65,-39.12 80.6,-61.38 80.6,-61.38 75.3,-64.19 64.7,-64.19 59.4,-61.38"/>
<text text-anchor="middle" x="70" y="-34.85" font-family="Helvetica,sans-Serif" font-size="12.00" fill="#b91c1c">Payment</text>
<text text-anchor="middle" x="70" y="-22.1" font-family="Helvetica,sans-Serif" font-size="12.00" fill="#b91c1c">Failed!</text>
</g>
<!-- charge_payment&#45;&gt;failure -->
<g id="edge5" class="edge">
<title>charge_payment&#45;&gt;failure</title>
<path fill="none" stroke="#b91c1c" stroke-width="1.5" stroke-dasharray="5,2" d="M70,-120.18C70,-108.16 70,-91.85 70,-76.69"/>
<polygon fill="#b91c1c" stroke="#b91c1c" stroke-width="1.5" points="72.45,-76.71 70,-69.71 67.55,-76.71 72.45,-76.71"/>
<text text-anchor="middle" x="85.75" y="-86.75" font-family="Helvetica,sans-Serif" font-size="10.00" fill="#b91c1c"> &#160;error &#160;</text>
</g>
<!-- failure&#45;&gt;cancel_hotel -->
<g id="edge6" class="edge">
<title>failure&#45;&gt;cancel_hotel</title>
<path fill="none" stroke="#4338ca" stroke-width="1.5" d="M90.53,-56.45C103.35,-70.17 120.16,-88.21 135,-104.25 167.07,-138.91 203.96,-179.16 227.13,-204.48"/>
<polygon fill="#4338ca" stroke="#4338ca" stroke-width="1.5" points="225.22,-206.02 231.75,-209.53 228.83,-202.71 225.22,-206.02"/>
<text text-anchor="middle" x="216.82" y="-135.38" font-family="Helvetica,sans-Serif" font-size="10.00" fill="#4338ca"> &#160;compensate &#160;</text>
</g>
<!-- cancel_hotel&#45;&gt;cancel_flight -->
<g id="edge7" class="edge">
<title>cancel_hotel&#45;&gt;cancel_flight</title>
<path fill="none" stroke="#4338ca" stroke-width="1.5" d="M250,-249.84C250,-263.57 250,-282.57 250,-298.06"/>
<polygon fill="#4338ca" stroke="#4338ca" stroke-width="1.5" points="247.55,-297.9 250,-304.9 252.45,-297.9 247.55,-297.9"/>
<text text-anchor="middle" x="266.5" y="-269.25" font-family="Helvetica,sans-Serif" font-size="10.00" fill="#4338ca"> &#160;undo &#160;</text>
</g>
<!-- stack -->
<g id="node7" class="node">
<title>stack</title>
<polygon fill="#ffffff" stroke="#999999" stroke-width="1.2" points="455,-355.75 337,-355.75 337,-296.75 461,-296.75 461,-349.75 455,-355.75"/>
<polyline fill="none" stroke="#999999" stroke-width="1.2" points="455,-355.75 455,-349.75"/>
<polyline fill="none" stroke="#999999" stroke-width="1.2" points="461,-349.75 455,-349.75"/>
<text text-anchor="middle" x="399" y="-342.25" font-family="Courier,monospace" font-size="10.00" fill="#4338ca">Compensation Stack</text>
<text text-anchor="middle" x="399" y="-329.5" font-family="Courier,monospace" font-size="10.00" fill="#4338ca">─────────────────</text>
<text text-anchor="middle" x="399" y="-316.75" font-family="Courier,monospace" font-size="10.00" fill="#4338ca">1. Cancel Flight</text>
<text text-anchor="middle" x="399" y="-304" font-family="Courier,monospace" font-size="10.00" fill="#4338ca">2. Cancel Hotel</text>
</g>
<!-- stack&#45;&gt;failure -->
<g id="edge8" class="edge">
<title>stack&#45;&gt;failure</title>
<path fill="none" stroke="#999999" stroke-dasharray="1,5" d="M388.64,-296.58C370.34,-249.83 328,-157.13 263,-104.25 220.44,-69.62 159.24,-51.42 117.23,-42.4"/>
</g>
</g>
</svg>
