<?xml version="1.0" encoding="UTF-8" standalone="no"?>
<!DOCTYPE svg PUBLIC "-//W3C//DTD SVG 1.1//EN"
 "http://www.w3.org/Graphics/SVG/1.1/DTD/svg11.dtd">
<!-- Generated by graphviz version 2.43.0 (0)
 -->
<!-- Title: scatter_gather Pages: 1 -->
<svg width="641pt" height="444pt"
 viewBox="0.00 0.00 640.50 444.00" xmlns="http://www.w3.org/2000/svg" xmlns:xlink="http://www.w3.org/1999/xlink">
<g id="graph0" class="graph" transform="scale(1 1) rotate(0) translate(36 408)">
<title>scatter_gather</title>
<!-- coordinator -->
<g id="node1" class="node">
<title>coordinator</title>
<path fill="#4338ca" stroke="#4338ca" stroke-width="1.2" d="M242.5,-372C242.5,-372 199.5,-372 199.5,-372 193.5,-372 187.5,-366 187.5,-360 187.5,-360 187.5,-348 187.5,-348 187.5,-342 193.5,-336 199.5,-336 199.5,-336 242.5,-336 242.5,-336 248.5,-336 254.5,-342 254.5,-348 254.5,-348 254.5,-360 254.5,-360 254.5,-366 248.5,-372 242.5,-372"/>
<text text-anchor="middle" x="221" y="-357" font-family="Helvetica,sans-Serif" font-size="10.00" fill="#ffffff">Coordinator</text>
<text text-anchor="middle" x="221" y="-346" font-family="Helvetica,sans-Serif" font-size="10.00" fill="#ffffff">Workflow</text>
</g>
<!-- airline1 -->
<g id="node2" class="node">
<title>airline1</title>
<path fill="#ffffff" stroke="#555555" stroke-width="1.2" d="M42,-260C42,-260 12,-260 12,-260 6,-260 0,-254 0,-248 0,-248 0,-236 0,-236 0,-230 6,-224 12,-224 12,-224 42,-224 42,-224 48,-224 54,-230 54,-236 54,-236 54,-248 54,-248 54,-254 48,-260 42,-260"/>
<text text-anchor="middle" x="27" y="-245" font-family="Helvetica,sans-Serif" font-size="10.00" fill="#333333">Airline 1</text>
<text text-anchor="middle" x="27" y="-234" font-family="Helvetica,sans-Serif" font-size="10.00" fill="#333333">Activity</text>
</g>
<!-- coordinator&#45;&gt;airline1 -->
<g id="edge1" class="edge">
<title>coordinator&#45;&gt;airline1</title>
<path fill="none" stroke="#4338ca" d="M187.5,-338.09C167.07,-328.67 140.63,-315.88 118,-303 97.2,-291.16 74.74,-276.38 57.34,-264.45"/>
<polygon fill="#4338ca" stroke="#4338ca" points="58.32,-262.15 51.17,-260.19 55.54,-266.18 58.32,-262.15"/>
<text text-anchor="middle" x="136.5" y="-295.8" font-family="Helvetica,sans-Serif" font-size="9.00" fill="#4338ca"> &#160;search &#160;</text>
</g>
<!-- airline2 -->
<g id="node3" class="node">
<title>airline2</title>
<path fill="#ffffff" stroke="#555555" stroke-width="1.2" d="M139,-260C139,-260 109,-260 109,-260 103,-260 97,-254 97,-248 97,-248 97,-236 97,-236 97,-230 103,-224 109,-224 109,-224 139,-224 139,-224 145,-224 151,-230 151,-236 151,-236 151,-248 151,-248 151,-254 145,-260 139,-260"/>
<text text-anchor="middle" x="124" y="-245" font-family="Helvetica,sans-Serif" font-size="10.00" fill="#333333">Airline 2</text>
<text text-anchor="middle" x="124" y="-234" font-family="Helvetica,sans-Serif" font-size="10.00" fill="#333333">Activity</text>
</g>
<!-- coordinator&#45;&gt;airline2 -->
<g id="edge2" class="edge">
<title>coordinator&#45;&gt;airline2</title>
<path fill="none" stroke="#4338ca" d="M204.21,-335.65C195.13,-326.14 183.79,-314.06 174,-303 163.28,-290.9 151.71,-277.05 142.39,-265.72"/>
<polygon fill="#4338ca" stroke="#4338ca" points="144.07,-263.9 137.74,-260.04 140.28,-267.01 144.07,-263.9"/>
<text text-anchor="middle" x="192.5" y="-295.8" font-family="Helvetica,sans-Serif" font-size="9.00" fill="#4338ca"> &#160;search &#160;</text>
</g>
<!-- airline3 -->
<g id="node4" class="node">
<title>airline3</title>
<path fill="#ffffff" stroke="#555555" stroke-width="1.2" d="M236,-260C236,-260 206,-260 206,-260 200,-260 194,-254 194,-248 194,-248 194,-236 194,-236 194,-230 200,-224 206,-224 206,-224 236,-224 236,-224 242,-224 248,-230 248,-236 248,-236 248,-248 248,-248 248,-254 242,-260 236,-260"/>
<text text-anchor="middle" x="221" y="-245" font-family="Helvetica,sans-Serif" font-size="10.00" fill="#333333">Airline 3</text>
<text text-anchor="middle" x="221" y="-234" font-family="Helvetica,sans-Serif" font-size="10.00" fill="#333333">Activity</text>
</g>
<!-- coordinator&#45;&gt;airline3 -->
<g id="edge3" class="edge">
<title>coordinator&#45;&gt;airline3</title>
<path fill="none" stroke="#4338ca" d="M221,-335.81C221,-317.41 221,-288.05 221,-267.29"/>
<polygon fill="#4338ca" stroke="#4338ca" points="223.45,-267.07 221,-260.07 218.55,-267.07 223.45,-267.07"/>
<text text-anchor="middle" x="239.5" y="-295.8" font-family="Helvetica,sans-Serif" font-size="9.00" fill="#4338ca"> &#160;search &#160;</text>
</g>
<!-- airline4 -->
<g id="node5" class="node">
<title>airline4</title>
<path fill="#ffffff" stroke="#555555" stroke-width="1.2" d="M333,-260C333,-260 303,-260 303,-260 297,-260 291,-254 291,-248 291,-248 291,-236 291,-236 291,-230 297,-224 303,-224 303,-224 333,-224 333,-224 339,-224 345,-230 345,-236 345,-236 345,-248 345,-248 345,-254 339,-260 333,-260"/>
<text text-anchor="middle" x="318" y="-245" font-family="Helvetica,sans-Serif" font-size="10.00" fill="#333333">Airline 4</text>
<text text-anchor="middle" x="318" y="-234" font-family="Helvetica,sans-Serif" font-size="10.00" fill="#333333">Activity</text>
</g>
<!-- coordinator&#45;&gt;airline4 -->
<g id="edge4" class="edge">
<title>coordinator&#45;&gt;airline4</title>
<path fill="none" stroke="#4338ca" d="M236.16,-335.81C252.88,-316.84 279.87,-286.24 298.24,-265.4"/>
<polygon fill="#4338ca" stroke="#4338ca" points="300.16,-266.94 302.95,-260.07 296.48,-263.7 300.16,-266.94"/>
<text text-anchor="middle" x="290.5" y="-295.8" font-family="Helvetica,sans-Serif" font-size="9.00" fill="#4338ca"> &#160;search &#160;</text>
</g>
<!-- airline5 -->
<g id="node6" class="node">
<title>airline5</title>
<path fill="#ffffff" stroke="#555555" stroke-width="1.2" d="M430,-260C430,-260 400,-260 400,-260 394,-260 388,-254 388,-248 388,-248 388,-236 388,-236 388,-230 394,-224 400,-224 400,-224 430,-224 430,-224 436,-224 442,-230 442,-236 442,-236 442,-248 442,-248 442,-254 436,-260 430,-260"/>
<text text-anchor="middle" x="415" y="-245" font-family="Helvetica,sans-Serif" font-size="10.00" fill="#333333">Airline 5</text>
<text text-anchor="middle" x="415" y="-234" font-family="Helvetica,sans-Serif" font-size="10.00" fill="#333333">Activity</text>
</g>
<!-- coordinator&#45;&gt;airline5 -->
<g id="edge5" class="edge">
<title>coordinator&#45;&gt;airline5</title>
<path fill="none" stroke="#4338ca" d="M254.95,-336.59C273.99,-327.16 298.06,-314.86 319,-303 340.67,-290.73 364.4,-275.91 382.84,-264.07"/>
<polygon fill="#4338ca" stroke="#4338ca" points="384.33,-266.03 388.89,-260.18 381.68,-261.91 384.33,-266.03"/>
<text text-anchor="middle" x="353.5" y="-295.8" font-family="Helvetica,sans-Serif" font-size="9.00" fill="#4338ca"> &#160;search &#160;</text>
</g>
<!-- aggregation -->
<g id="node7" class="node">
<title>aggregation</title>
<path fill="#4338ca" stroke="#4338ca" stroke-width="1.2" d="M291,-148C291,-148 247,-148 247,-148 241,-148 235,-142 235,-136 235,-136 235,-124 235,-124 235,-118 241,-112 247,-112 247,-112 291,-112 291,-112 297,-112 303,-118 303,-124 303,-124 303,-136 303,-136 303,-142 297,-148 291,-148"/>
<text text-anchor="middle" x="269" y="-133" font-family="Helvetica,sans-Serif" font-size="10.00" fill="#ffffff">Aggregation</text>
<text text-anchor="middle" x="269" y="-122" font-family="Helvetica,sans-Serif" font-size="10.00" fill="#ffffff">(best price)</text>
</g>
<!-- airline1&#45;&gt;aggregation -->
<g id="edge6" class="edge">
<title>airline1&#45;&gt;aggregation</title>
<path fill="none" stroke="#047857" d="M51.83,-223.95C71.38,-211.03 99.64,-193.43 126,-181 159.36,-165.27 199.09,-151.77 228.2,-142.77"/>
<polygon fill="#047857" stroke="#047857" points="229.01,-145.09 234.98,-140.7 227.57,-140.4 229.01,-145.09"/>
<text text-anchor="middle" x="142" y="-183.8" font-family="Helvetica,sans-Serif" font-size="9.00" fill="#047857"> &#160;result &#160;</text>
</g>
<!-- airline2&#45;&gt;aggregation -->
<g id="edge7" class="edge">
<title>airline2&#45;&gt;aggregation</title>
<path fill="none" stroke="#047857" d="M137.2,-223.83C147.62,-211.01 163.02,-193.6 179,-181 194.11,-169.08 212.44,-158.33 228.6,-149.89"/>
<polygon fill="#047857" stroke="#047857" points="229.8,-152.03 234.91,-146.65 227.56,-147.67 229.8,-152.03"/>
<text text-anchor="middle" x="195" y="-183.8" font-family="Helvetica,sans-Serif" font-size="9.00" fill="#047857"> &#160;result &#160;</text>
</g>
<!-- airline3&#45;&gt;aggregation -->
<g id="edge8" class="edge">
<title>airline3&#45;&gt;aggregation</title>
<path fill="none" stroke="#047857" d="M219.27,-223.78C218.71,-211.41 219.35,-194.59 225,-181 229.18,-170.94 236.25,-161.51 243.51,-153.61"/>
<polygon fill="#047857" stroke="#047857" points="245.44,-155.13 248.54,-148.39 241.91,-151.73 245.44,-155.13"/>
<text text-anchor="middle" x="241" y="-183.8" font-family="Helvetica,sans-Serif" font-size="9.00" fill="#047857"> &#160;result &#160;</text>
</g>
<!-- airline4&#45;&gt;aggregation -->
<g id="edge9" class="edge">
<title>airline4&#45;&gt;aggregation</title>
<path fill="none" stroke="#047857" d="M310.34,-223.81C302.04,-205.17 288.72,-175.28 279.46,-154.48"/>
<polygon fill="#047857" stroke="#047857" points="281.69,-153.46 276.6,-148.07 277.21,-155.46 281.69,-153.46"/>
<text text-anchor="middle" x="310" y="-183.8" font-family="Helvetica,sans-Serif" font-size="9.00" fill="#047857"> &#160;result &#160;</text>
</g>
<!-- airline5&#45;&gt;aggregation -->
<g id="edge10" class="edge">
<title>airline5&#45;&gt;aggregation</title>
<path fill="none" stroke="#047857" d="M392.56,-223.88C376.77,-211.85 355.13,-195.4 336,-181 323.44,-171.55 309.52,-161.15 297.64,-152.29"/>
<polygon fill="#047857" stroke="#047857" points="299.06,-150.29 291.98,-148.08 296.13,-154.22 299.06,-150.29"/>
<text text-anchor="middle" x="364" y="-183.8" font-family="Helvetica,sans-Serif" font-size="9.00" fill="#047857"> &#160;result &#160;</text>
</g>
<!-- result -->
<g id="node9" class="node">
<title>result</title>
<path fill="#ffffff" stroke="#555555" stroke-width="1.2" d="M292.5,-36C292.5,-36 245.5,-36 245.5,-36 239.5,-36 233.5,-30 233.5,-24 233.5,-24 233.5,-12 233.5,-12 233.5,-6 239.5,0 245.5,0 245.5,0 292.5,0 292.5,0 298.5,0 304.5,-6 304.5,-12 304.5,-12 304.5,-24 304.5,-24 304.5,-30 298.5,-36 292.5,-36"/>
<text text-anchor="middle" x="269" y="-21" font-family="Helvetica,sans-Serif" font-size="10.00" fill="#333333">Return</text>
<text text-anchor="middle" x="269" y="-10" font-family="Helvetica,sans-Serif" font-size="10.00" fill="#333333">Best Quotes</text>
</g>
<!-- aggregation&#45;&gt;result -->
<g id="edge12" class="edge">
<title>aggregation&#45;&gt;result</title>
<path fill="none" stroke="#555555" d="M269,-111.81C269,-93.41 269,-64.05 269,-43.29"/>
<polygon fill="#555555" stroke="#555555" points="271.45,-43.07 269,-36.07 266.55,-43.07 271.45,-43.07"/>
<text text-anchor="middle" x="292.5" y="-71.8" font-family="Helvetica,sans-Serif" font-size="9.00" fill="#666666"> &#160;complete &#160;</text>
</g>
<!-- timer -->
<g id="node8" class="node">
<title>timer</title>
<path fill="#b91c1c" stroke="#b91c1c" stroke-width="1.2" d="M556.5,-260C556.5,-260 497.5,-260 497.5,-260 491.5,-260 485.5,-254 485.5,-248 485.5,-248 485.5,-236 485.5,-236 485.5,-230 491.5,-224 497.5,-224 497.5,-224 556.5,-224 556.5,-224 562.5,-224 568.5,-230 568.5,-236 568.5,-236 568.5,-248 568.5,-248 568.5,-254 562.5,-260 556.5,-260"/>
<text text-anchor="middle" x="527" y="-239.5" font-family="Helvetica,sans-Serif" font-size="10.00" fill="#ffffff">Deadline Timer</text>
</g>
<!-- timer&#45;&gt;aggregation -->
<g id="edge11" class="edge">
<title>timer&#45;&gt;aggregation</title>
<path fill="none" stroke="#b91c1c" stroke-dasharray="5,2" d="M488.71,-223.97C461.29,-211.84 423.45,-195.23 390,-181 363.45,-169.7 333.47,-157.31 309.99,-147.69"/>
<polygon fill="#b91c1c" stroke="#b91c1c" points="310.65,-145.31 303.24,-144.93 308.79,-149.85 310.65,-145.31"/>
<text text-anchor="middle" x="441" y="-183.8" font-family="Helvetica,sans-Serif" font-size="9.00" fill="#b91c1c"> &#160;8s deadline &#160;</text>
</g>
</g>
</svg>
