<?xml version="1.0" encoding="UTF-8" standalone="no"?>
<!DOCTYPE svg PUBLIC "-//W3C//DTD SVG 1.1//EN"
 "http://www.w3.org/Graphics/SVG/1.1/DTD/svg11.dtd">
<!-- Generated by graphviz version 12.2.1 (20241206.2353)
 -->
<!-- Title: scatter_gather Pages: 1 -->
<svg width="639pt" height="443pt"
 viewBox="0.00 0.00 639.00 443.25" xmlns="http://www.w3.org/2000/svg" xmlns:xlink="http://www.w3.org/1999/xlink">
<g id="graph0" class="graph" transform="scale(1 1) rotate(0) translate(36 407.25)">
<title>scatter_gather</title>
<!-- coordinator -->
<g id="node1" class="node">
<title>coordinator</title>
<path fill="#4338ca" stroke="#4338ca" stroke-width="1.2" d="M242.12,-371.25C242.12,-371.25 199.88,-371.25 199.88,-371.25 193.88,-371.25 187.88,-365.25 187.88,-359.25 187.88,-359.25 187.88,-347.25 187.88,-347.25 187.88,-341.25 193.88,-335.25 199.88,-335.25 199.88,-335.25 242.12,-335.25 242.12,-335.25 248.12,-335.25 254.12,-341.25 254.12,-347.25 254.12,-347.25 254.12,-359.25 254.12,-359.25 254.12,-365.25 248.12,-371.25 242.12,-371.25"/>
<text text-anchor="middle" x="221" y="-355" font-family="Helvetica,sans-Serif" font-size="10.00" fill="#ffffff">Coordinator</text>
<text text-anchor="middle" x="221" y="-343.75" font-family="Helvetica,sans-Serif" font-size="10.00" fill="#ffffff">Workflow</text>
</g>
<!-- airline1 -->
<g id="node2" class="node">
<title>airline1</title>
<path fill="#ffffff" stroke="#555555" stroke-width="1.2" d="M42,-259.5C42,-259.5 12,-259.5 12,-259.5 6,-259.5 0,-253.5 0,-247.5 0,-247.5 0,-235.5 0,-235.5 0,-229.5 6,-223.5 12,-223.5 12,-223.5 42,-223.5 42,-223.5 48,-223.5 54,-229.5 54,-235.5 54,-235.5 54,-247.5 54,-247.5 54,-253.5 48,-259.5 42,-259.5"/>
<text text-anchor="middle" x="27" y="-243.25" font-family="Helvetica,sans-Serif" font-size="10.00" fill="#333333">Airline 1</text>
<text text-anchor="middle" x="27" y="-232" font-family="Helvetica,sans-Serif" font-size="10.00" fill="#333333">Activity</text>
</g>
<!-- coordinator&#45;&gt;airline1 -->
<g id="edge1" class="edge">
<title>coordinator&#45;&gt;airline1</title>
<path fill="none" stroke="#4338ca" d="M187.49,-337.01C167.4,-327.57 141.51,-314.87 119.25,-302.25 98.59,-290.54 76.21,-276.09 58.67,-264.33"/>
<polygon fill="#4338ca" stroke="#4338ca" points="60.38,-262.53 53.21,-260.65 57.64,-266.6 60.38,-262.53"/>
<text text-anchor="middle" x="137.62" y="-293.7" font-family="Helvetica,sans-Serif" font-size="9.00" fill="#4338ca"> &#160;search &#160;</text>
</g>
<!-- airline2 -->
<g id="node3" class="node">
<title>airline2</title>
<path fill="#ffffff" stroke="#555555" stroke-width="1.2" d="M139,-259.5C139,-259.5 109,-259.5 109,-259.5 103,-259.5 97,-253.5 97,-247.5 97,-247.5 97,-235.5 97,-235.5 97,-229.5 103,-223.5 109,-223.5 109,-223.5 139,-223.5 139,-223.5 145,-223.5 151,-229.5 151,-235.5 151,-235.5 151,-247.5 151,-247.5 151,-253.5 145,-259.5 139,-259.5"/>
<text text-anchor="middle" x="124" y="-243.25" font-family="Helvetica,sans-Serif" font-size="10.00" fill="#333333">Airline 2</text>
<text text-anchor="middle" x="124" y="-232" font-family="Helvetica,sans-Serif" font-size="10.00" fill="#333333">Activity</text>
</g>
<!-- coordinator&#45;&gt;airline2 -->
<g id="edge2" class="edge">
<title>coordinator&#45;&gt;airline2</title>
<path fill="none" stroke="#4338ca" d="M204.33,-334.87C195.3,-325.35 184.03,-313.27 174.25,-302.25 163.97,-290.66 152.86,-277.51 143.7,-266.51"/>
<polygon fill="#4338ca" stroke="#4338ca" points="145.6,-264.95 139.24,-261.13 141.82,-268.08 145.6,-264.95"/>
<text text-anchor="middle" x="192.62" y="-293.7" font-family="Helvetica,sans-Serif" font-size="9.00" fill="#4338ca"> &#160;search &#160;</text>
</g>
<!-- airline3 -->
<g id="node4" class="node">
<title>airline3</title>
<path fill="#ffffff" stroke="#555555" stroke-width="1.2" d="M236,-259.5C236,-259.5 206,-259.5 206,-259.5 200,-259.5 194,-253.5 194,-247.5 194,-247.5 194,-235.5 194,-235.5 194,-229.5 200,-223.5 206,-223.5 206,-223.5 236,-223.5 236,-223.5 242,-223.5 248,-229.5 248,-235.5 248,-235.5 248,-247.5 248,-247.5 248,-253.5 242,-259.5 236,-259.5"/>
<text text-anchor="middle" x="221" y="-243.25" font-family="Helvetica,sans-Serif" font-size="10.00" fill="#333333">Airline 3</text>
<text text-anchor="middle" x="221" y="-232" font-family="Helvetica,sans-Serif" font-size="10.00" fill="#333333">Activity</text>
</g>
<!-- coordinator&#45;&gt;airline3 -->
<g id="edge3" class="edge">
<title>coordinator&#45;&gt;airline3</title>
<path fill="none" stroke="#4338ca" d="M221,-335.1C221,-317.17 221,-288.81 221,-268.2"/>
<polygon fill="#4338ca" stroke="#4338ca" points="223.45,-268.4 221,-261.4 218.55,-268.4 223.45,-268.4"/>
<text text-anchor="middle" x="239.38" y="-293.7" font-family="Helvetica,sans-Serif" font-size="9.00" fill="#4338ca"> &#160;search &#160;</text>
</g>
<!-- airline4 -->
<g id="node5" class="node">
<title>airline4</title>
<path fill="#ffffff" stroke="#555555" stroke-width="1.2" d="M333,-259.5C333,-259.5 303,-259.5 303,-259.5 297,-259.5 291,-253.5 291,-247.5 291,-247.5 291,-235.5 291,-235.5 291,-229.5 297,-223.5 303,-223.5 303,-223.5 333,-223.5 333,-223.5 339,-223.5 345,-229.5 345,-235.5 345,-235.5 345,-247.5 345,-247.5 345,-253.5 339,-259.5 333,-259.5"/>
<text text-anchor="middle" x="318" y="-243.25" font-family="Helvetica,sans-Serif" font-size="10.00" fill="#333333">Airline 4</text>
<text text-anchor="middle" x="318" y="-232" font-family="Helvetica,sans-Serif" font-size="10.00" fill="#333333">Activity</text>
</g>
<!-- coordinator&#45;&gt;airline4 -->
<g id="edge4" class="edge">
<title>coordinator&#45;&gt;airline4</title>
<path fill="none" stroke="#4338ca" d="M236.16,-335.1C252.57,-316.53 278.87,-286.77 297.21,-266.02"/>
<polygon fill="#4338ca" stroke="#4338ca" points="298.83,-267.89 301.63,-261.02 295.16,-264.65 298.83,-267.89"/>
<text text-anchor="middle" x="290.78" y="-293.7" font-family="Helvetica,sans-Serif" font-size="9.00" fill="#4338ca"> &#160;search &#160;</text>
</g>
<!-- airline5 -->
<g id="node6" class="node">
<title>airline5</title>
<path fill="#ffffff" stroke="#555555" stroke-width="1.2" d="M430,-259.5C430,-259.5 400,-259.5 400,-259.5 394,-259.5 388,-253.5 388,-247.5 388,-247.5 388,-235.5 388,-235.5 388,-229.5 394,-223.5 400,-223.5 400,-223.5 430,-223.5 430,-223.5 436,-223.5 442,-229.5 442,-235.5 442,-235.5 442,-247.5 442,-247.5 442,-253.5 436,-259.5 430,-259.5"/>
<text text-anchor="middle" x="415" y="-243.25" font-family="Helvetica,sans-Serif" font-size="10.00" fill="#333333">Airline 5</text>
<text text-anchor="middle" x="415" y="-232" font-family="Helvetica,sans-Serif" font-size="10.00" fill="#333333">Activity</text>
</g>
<!-- coordinator&#45;&gt;airline5 -->
<g id="edge5" class="edge">
<title>coordinator&#45;&gt;airline5</title>
<path fill="none" stroke="#4338ca" d="M254.49,-336.05C273.6,-326.58 297.88,-314.18 319,-302.25 340.12,-290.32 363.23,-275.98 381.48,-264.34"/>
<polygon fill="#4338ca" stroke="#4338ca" points="382.62,-266.51 387.2,-260.68 379.98,-262.39 382.62,-266.51"/>
<text text-anchor="middle" x="353.39" y="-293.7" font-family="Helvetica,sans-Serif" font-size="9.00" fill="#4338ca"> &#160;search &#160;</text>
</g>
<!-- aggregation -->
<g id="node7" class="node">
<title>aggregation</title>
<path fill="#4338ca" stroke="#4338ca" stroke-width="1.2" d="M290.88,-147.75C290.88,-147.75 247.12,-147.75 247.12,-147.75 241.12,-147.75 235.12,-141.75 235.12,-135.75 235.12,-135.75 235.12,-123.75 235.12,-123.75 235.12,-117.75 241.12,-111.75 247.12,-111.75 247.12,-111.75 290.88,-111.75 290.88,-111.75 296.88,-111.75 302.88,-117.75 302.88,-123.75 302.88,-123.75 302.88,-135.75 302.88,-135.75 302.88,-141.75 296.88,-147.75 290.88,-147.75"/>
<text text-anchor="middle" x="269" y="-131.5" font-family="Helvetica,sans-Serif" font-size="10.00" fill="#ffffff">Aggregation</text>
<text text-anchor="middle" x="269" y="-120.25" font-family="Helvetica,sans-Serif" font-size="10.00" fill="#ffffff">(best price)</text>
</g>
<!-- airline1&#45;&gt;aggregation -->
<g id="edge6" class="edge">
<title>airline1&#45;&gt;aggregation</title>
<path fill="none" stroke="#047857" d="M53.38,-223.09C73.44,-210.32 102.01,-193.12 128.5,-180.75 160.53,-165.79 198.35,-152.57 226.68,-143.48"/>
<polygon fill="#047857" stroke="#047857" points="227.41,-145.82 233.34,-141.37 225.93,-141.15 227.41,-145.82"/>
<text text-anchor="middle" x="144.25" y="-181.95" font-family="Helvetica,sans-Serif" font-size="9.00" fill="#047857"> &#160;result &#160;</text>
</g>
<!-- airline2&#45;&gt;aggregation -->
<g id="edge7" class="edge">
<title>airline2&#45;&gt;aggregation</title>
<path fill="none" stroke="#047857" d="M137.91,-223.2C148.67,-210.5 164.42,-193.33 180.5,-180.75 194.83,-169.54 211.98,-159.24 227.35,-150.95"/>
<polygon fill="#047857" stroke="#047857" points="228.35,-153.19 233.39,-147.75 226.06,-148.86 228.35,-153.19"/>
<text text-anchor="middle" x="196.25" y="-181.95" font-family="Helvetica,sans-Serif" font-size="9.00" fill="#047857"> &#160;result &#160;</text>
</g>
<!-- airline3&#45;&gt;aggregation -->
<g id="edge8" class="edge">
<title>airline3&#45;&gt;aggregation</title>
<path fill="none" stroke="#047857" d="M219.48,-223.09C219.07,-210.8 219.89,-194.19 225.5,-180.75 229.52,-171.13 236.14,-162.05 243.02,-154.34"/>
<polygon fill="#047857" stroke="#047857" points="244.75,-156.08 247.78,-149.31 241.19,-152.72 244.75,-156.08"/>
<text text-anchor="middle" x="241.25" y="-181.95" font-family="Helvetica,sans-Serif" font-size="9.00" fill="#047857"> &#160;result &#160;</text>
</g>
<!-- airline4&#45;&gt;aggregation -->
<g id="edge9" class="edge">
<title>airline4&#45;&gt;aggregation</title>
<path fill="none" stroke="#047857" d="M310.34,-223.35C302.26,-205.26 289.45,-176.55 280.23,-155.9"/>
<polygon fill="#047857" stroke="#047857" points="282.47,-154.92 277.38,-149.52 278,-156.91 282.47,-154.92"/>
<text text-anchor="middle" x="310.72" y="-181.95" font-family="Helvetica,sans-Serif" font-size="9.00" fill="#047857"> &#160;result &#160;</text>
</g>
<!-- airline5&#45;&gt;aggregation -->
<g id="edge10" class="edge">
<title>airline5&#45;&gt;aggregation</title>
<path fill="none" stroke="#047857" d="M392.21,-223.2C376.45,-211.25 354.97,-195 336,-180.75 323.87,-171.64 310.49,-161.64 298.88,-152.99"/>
<polygon fill="#047857" stroke="#047857" points="300.57,-151.19 293.5,-148.97 297.65,-155.12 300.57,-151.19"/>
<text text-anchor="middle" x="364.7" y="-181.95" font-family="Helvetica,sans-Serif" font-size="9.00" fill="#047857"> &#160;result &#160;</text>
</g>
<!-- result -->
<g id="node9" class="node">
<title>result</title>
<path fill="#ffffff" stroke="#555555" stroke-width="1.2" d="M292.38,-36C292.38,-36 245.62,-36 245.62,-36 239.62,-36 233.62,-30 233.62,-24 233.62,-24 233.62,-12 233.62,-12 233.62,-6 239.62,0 245.62,0 245.62,0 292.38,0 292.38,0 298.38,0 304.38,-6 304.38,-12 304.38,-12 304.38,-24 304.38,-24 304.38,-30 298.38,-36 292.38,-36"/>
<text text-anchor="middle" x="269" y="-19.75" font-family="Helvetica,sans-Serif" font-size="10.00" fill="#333333">Return</text>
<text text-anchor="middle" x="269" y="-8.5" font-family="Helvetica,sans-Serif" font-size="10.00" fill="#333333">Best Quotes</text>
</g>
<!-- aggregation&#45;&gt;result -->
<g id="edge12" class="edge">
<title>aggregation&#45;&gt;result</title>
<path fill="none" stroke="#555555" d="M269,-111.6C269,-93.67 269,-65.31 269,-44.7"/>
<polygon fill="#555555" stroke="#555555" points="271.45,-44.9 269,-37.9 266.55,-44.9 271.45,-44.9"/>
<text text-anchor="middle" x="292.25" y="-70.2" font-family="Helvetica,sans-Serif" font-size="9.00" fill="#666666"> &#160;complete &#160;</text>
</g>
<!-- timer -->
<g id="node8" class="node">
<title>timer</title>
<path fill="#b91c1c" stroke="#b91c1c" stroke-width="1.2" d="M555,-259.5C555,-259.5 497,-259.5 497,-259.5 491,-259.5 485,-253.5 485,-247.5 485,-247.5 485,-235.5 485,-235.5 485,-229.5 491,-223.5 497,-223.5 497,-223.5 555,-223.5 555,-223.5 561,-223.5 567,-229.5 567,-235.5 567,-235.5 567,-247.5 567,-247.5 567,-253.5 561,-259.5 555,-259.5"/>
<text text-anchor="middle" x="526" y="-237.62" font-family="Helvetica,sans-Serif" font-size="10.00" fill="#ffffff">Deadline Timer</text>
</g>
<!-- timer&#45;&gt;aggregation -->
<g id="edge11" class="edge">
<title>timer&#45;&gt;aggregation</title>
<path fill="none" stroke="#b91c1c" stroke-dasharray="5,2" d="M486.82,-223.01C459.7,-210.98 422.74,-194.7 390,-180.75 363.79,-169.58 334.25,-157.36 310.91,-147.8"/>
<polygon fill="#b91c1c" stroke="#b91c1c" points="312.05,-145.62 304.65,-145.24 310.2,-150.16 312.05,-145.62"/>
<text text-anchor="middle" x="440.84" y="-181.95" font-family="Helvetica,sans-Serif" font-size="9.00" fill="#b91c1c"> &#160;8s deadline &#160;</text>
</g>
</g>
</svg>
