<?xml version="1.0" encoding="UTF-8" standalone="no"?>
<!DOCTYPE svg PUBLIC "-//W3C//DTD SVG 1.1//EN"
 "http://www.w3.org/Graphics/SVG/1.1/DTD/svg11.dtd">
<!-- Generated by graphviz version 2.43.0 (0)
 -->
<!-- Title: pipeline Pages: 1 -->
<svg width="634pt" height="832pt"
 viewBox="0.00 0.00 634.00 832.00" xmlns="http://www.w3.org/2000/svg" xmlns:xlink="http://www.w3.org/1999/xlink">
<g id="graph0" class="graph" transform="scale(1 1) rotate(0) translate(36 796)">
<title>pipeline</title>
<g id="clust1" class="cluster">
<title>cluster_child1</title>
<path fill="#f8f9fa" stroke="#555555" stroke-width="1.5" d="M210.5,-71C210.5,-71 388.5,-71 388.5,-71 394.5,-71 400.5,-77 400.5,-83 400.5,-83 400.5,-591 400.5,-591 400.5,-597 394.5,-603 388.5,-603 388.5,-603 210.5,-603 210.5,-603 204.5,-603 198.5,-597 198.5,-591 198.5,-591 198.5,-83 198.5,-83 198.5,-77 204.5,-71 210.5,-71"/>
<text text-anchor="middle" x="299.5" y="-590.2" font-family="Helvetica,sans-Serif" font-size="11.00" fill="#333333">Child Workflow (one claim)</text>
</g>
<!-- parent -->
<g id="node1" class="node">
<title>parent</title>
<path fill="#4338ca" stroke="#4338ca" stroke-width="1.5" d="M385,-760C385,-760 320,-760 320,-760 314,-760 308,-754 308,-748 308,-748 308,-736 308,-736 308,-730 314,-724 320,-724 320,-724 385,-724 385,-724 391,-724 397,-730 397,-736 397,-736 397,-748 397,-748 397,-754 391,-760 385,-760"/>
<text text-anchor="middle" x="352.5" y="-745" font-family="Helvetica,sans-Serif" font-size="10.00" fill="#ffffff">Parent Workflow</text>
<text text-anchor="middle" x="352.5" y="-734" font-family="Helvetica,sans-Serif" font-size="10.00" fill="#ffffff">(10,000 claims)</text>
</g>
<!-- child1_label -->
<g id="node2" class="node">
<title>child1_label</title>
<path fill="#ffffff" stroke="transparent" stroke-width="1.2" d="M311.5,-673C311.5,-673 281.5,-673 281.5,-673 275.5,-673 269.5,-667 269.5,-661 269.5,-661 269.5,-649 269.5,-649 269.5,-643 275.5,-637 281.5,-637 281.5,-637 311.5,-637 311.5,-637 317.5,-637 323.5,-643 323.5,-649 323.5,-649 323.5,-661 323.5,-661 323.5,-667 317.5,-673 311.5,-673"/>
<text text-anchor="middle" x="296.5" y="-652.8" font-family="Helvetica,sans-Serif" font-size="9.00" fill="#333333">Claim #1</text>
</g>
<!-- parent&#45;&gt;child1_label -->
<g id="edge1" class="edge">
<title>parent&#45;&gt;child1_label</title>
<path fill="none" stroke="#555555" stroke-width="1.2" d="M341.17,-723.8C332.74,-711.01 321.15,-693.42 311.89,-679.36"/>
<polygon fill="#555555" stroke="#555555" stroke-width="1.2" points="313.71,-677.67 307.82,-673.18 309.62,-680.37 313.71,-677.67"/>
</g>
<!-- child2_label -->
<g id="node3" class="node">
<title>child2_label</title>
<path fill="#ffffff" stroke="transparent" stroke-width="1.2" d="M208.5,-673C208.5,-673 178.5,-673 178.5,-673 172.5,-673 166.5,-667 166.5,-661 166.5,-661 166.5,-649 166.5,-649 166.5,-643 172.5,-637 178.5,-637 178.5,-637 208.5,-637 208.5,-637 214.5,-637 220.5,-643 220.5,-649 220.5,-649 220.5,-661 220.5,-661 220.5,-667 214.5,-673 208.5,-673"/>
<text text-anchor="middle" x="193.5" y="-652.8" font-family="Helvetica,sans-Serif" font-size="9.00" fill="#333333">Claim #2</text>
</g>
<!-- parent&#45;&gt;child2_label -->
<g id="edge2" class="edge">
<title>parent&#45;&gt;child2_label</title>
<path fill="none" stroke="#555555" stroke-width="1.2" d="M320.32,-723.8C293.19,-709.29 254.49,-688.6 226.99,-673.9"/>
<polygon fill="#555555" stroke="#555555" stroke-width="1.2" points="227.93,-671.63 220.6,-670.49 225.62,-675.95 227.93,-671.63"/>
</g>
<!-- childn_label -->
<g id="node4" class="node">
<title>childn_label</title>
<path fill="#ffffff" stroke="transparent" stroke-width="1.2" d="M403,-673C403,-673 372,-673 372,-673 366,-673 360,-667 360,-661 360,-661 360,-649 360,-649 360,-643 366,-637 372,-637 372,-637 403,-637 403,-637 409,-637 415,-643 415,-649 415,-649 415,-661 415,-661 415,-667 409,-673 403,-673"/>
<text text-anchor="middle" x="387.5" y="-652.8" font-family="Helvetica,sans-Serif" font-size="9.00" fill="#333333">Claim #N</text>
</g>
<!-- parent&#45;&gt;childn_label -->
<g id="edge4" class="edge">
<title>parent&#45;&gt;childn_label</title>
<path fill="none" stroke="#555555" stroke-width="1.2" d="M359.58,-723.8C364.8,-711.13 371.96,-693.73 377.73,-679.74"/>
<polygon fill="#555555" stroke="#555555" stroke-width="1.2" points="380.03,-680.58 380.43,-673.18 375.5,-678.72 380.03,-680.58"/>
</g>
<!-- dots -->
<g id="node5" class="node">
<title>dots</title>
<path fill="#ffffff" stroke="transparent" stroke-width="1.2" d="M493.5,-673C493.5,-673 463.5,-673 463.5,-673 457.5,-673 451.5,-667 451.5,-661 451.5,-661 451.5,-649 451.5,-649 451.5,-643 457.5,-637 463.5,-637 463.5,-637 493.5,-637 493.5,-637 499.5,-637 505.5,-643 505.5,-649 505.5,-649 505.5,-661 505.5,-661 505.5,-667 499.5,-673 493.5,-673"/>
<text text-anchor="middle" x="478.5" y="-651.2" font-family="Helvetica,sans-Serif" font-size="16.00" fill="#555555">...</text>
</g>
<!-- parent&#45;&gt;dots -->
<g id="edge3" class="edge">
<title>parent&#45;&gt;dots</title>
<path fill="none" stroke="#555555" stroke-width="1.2" d="M378,-723.8C399.86,-709.05 431.19,-687.92 453.04,-673.18"/>
</g>
<!-- ingest -->
<g id="node6" class="node">
<title>ingest</title>
<path fill="#ffffff" stroke="#555555" stroke-width="1.2" d="M311.5,-567C311.5,-567 281.5,-567 281.5,-567 275.5,-567 269.5,-561 269.5,-555 269.5,-555 269.5,-543 269.5,-543 269.5,-537 275.5,-531 281.5,-531 281.5,-531 311.5,-531 311.5,-531 317.5,-531 323.5,-537 323.5,-543 323.5,-543 323.5,-555 323.5,-555 323.5,-561 317.5,-567 311.5,-567"/>
<text text-anchor="middle" x="296.5" y="-546.5" font-family="Helvetica,sans-Serif" font-size="10.00" fill="#333333">Ingest</text>
</g>
<!-- child1_label&#45;&gt;ingest -->
<g id="edge11" class="edge">
<title>child1_label&#45;&gt;ingest</title>
<path fill="none" stroke="#555555" d="M296.5,-636.83C296.5,-629.28 296.5,-619.91 296.5,-610.15"/>
<polygon fill="#555555" stroke="#555555" points="298.95,-610 296.5,-603 294.05,-610 298.95,-610"/>
</g>
<!-- child2_collapsed -->
<g id="node13" class="node">
<title>child2_collapsed</title>
<path fill="#f8f9fa" stroke="#999999" stroke-width="1.2" d="M133,-567C133,-567 12,-567 12,-567 6,-567 0,-561 0,-555 0,-555 0,-543 0,-543 0,-537 6,-531 12,-531 12,-531 133,-531 133,-531 139,-531 145,-537 145,-543 145,-543 145,-555 145,-555 145,-561 139,-567 133,-567"/>
<text text-anchor="middle" x="72.5" y="-546.8" font-family="Helvetica,sans-Serif" font-size="9.00" fill="#666666">Ingest → OCR → ... → Decision</text>
</g>
<!-- child2_label&#45;&gt;child2_collapsed -->
<g id="edge13" class="edge">
<title>child2_label&#45;&gt;child2_collapsed</title>
<path fill="none" stroke="#555555" d="M173.52,-636.83C152.85,-619.06 120.51,-591.26 98.01,-571.92"/>
<polygon fill="#555555" stroke="#555555" points="99.42,-569.9 92.51,-567.2 96.22,-573.62 99.42,-569.9"/>
</g>
<!-- childn_collapsed -->
<g id="node14" class="node">
<title>childn_collapsed</title>
<path fill="#f8f9fa" stroke="#999999" stroke-width="1.2" d="M550,-567C550,-567 429,-567 429,-567 423,-567 417,-561 417,-555 417,-555 417,-543 417,-543 417,-537 423,-531 429,-531 429,-531 550,-531 550,-531 556,-531 562,-537 562,-543 562,-543 562,-555 562,-555 562,-561 556,-567 550,-567"/>
<text text-anchor="middle" x="489.5" y="-546.8" font-family="Helvetica,sans-Serif" font-size="9.00" fill="#666666">Ingest → OCR → ... → Decision</text>
</g>
<!-- childn_label&#45;&gt;childn_collapsed -->
<g id="edge14" class="edge">
<title>childn_label&#45;&gt;childn_collapsed</title>
<path fill="none" stroke="#555555" d="M404.34,-636.83C421.62,-619.21 448.57,-591.73 467.52,-572.42"/>
<polygon fill="#555555" stroke="#555555" points="469.48,-573.91 472.63,-567.2 465.98,-570.48 469.48,-573.91"/>
</g>
<!-- ocr -->
<g id="node7" class="node">
<title>ocr</title>
<path fill="#ffffff" stroke="#555555" stroke-width="1.2" d="M311.5,-480C311.5,-480 281.5,-480 281.5,-480 275.5,-480 269.5,-474 269.5,-468 269.5,-468 269.5,-456 269.5,-456 269.5,-450 275.5,-444 281.5,-444 281.5,-444 311.5,-444 311.5,-444 317.5,-444 323.5,-450 323.5,-456 323.5,-456 323.5,-468 323.5,-468 323.5,-474 317.5,-480 311.5,-480"/>
<text text-anchor="middle" x="296.5" y="-465" font-family="Helvetica,sans-Serif" font-size="10.00" fill="#333333">OCR +</text>
<text text-anchor="middle" x="296.5" y="-454" font-family="Helvetica,sans-Serif" font-size="10.00" fill="#333333">Extract</text>
</g>
<!-- ingest&#45;&gt;ocr -->
<g id="edge5" class="edge">
<title>ingest&#45;&gt;ocr</title>
<path fill="none" stroke="#555555" d="M296.5,-530.8C296.5,-518.36 296.5,-501.36 296.5,-487.5"/>
<polygon fill="#555555" stroke="#555555" points="298.95,-487.18 296.5,-480.18 294.05,-487.18 298.95,-487.18"/>
</g>
<!-- validate -->
<g id="node8" class="node">
<title>validate</title>
<path fill="#ffffff" stroke="#555555" stroke-width="1.2" d="M311.5,-393C311.5,-393 281.5,-393 281.5,-393 275.5,-393 269.5,-387 269.5,-381 269.5,-381 269.5,-369 269.5,-369 269.5,-363 275.5,-357 281.5,-357 281.5,-357 311.5,-357 311.5,-357 317.5,-357 323.5,-363 323.5,-369 323.5,-369 323.5,-381 323.5,-381 323.5,-387 317.5,-393 311.5,-393"/>
<text text-anchor="middle" x="296.5" y="-378" font-family="Helvetica,sans-Serif" font-size="10.00" fill="#333333">Cross&#45;</text>
<text text-anchor="middle" x="296.5" y="-367" font-family="Helvetica,sans-Serif" font-size="10.00" fill="#333333">Validate</text>
</g>
<!-- ocr&#45;&gt;validate -->
<g id="edge6" class="edge">
<title>ocr&#45;&gt;validate</title>
<path fill="none" stroke="#555555" d="M296.5,-443.8C296.5,-431.36 296.5,-414.36 296.5,-400.5"/>
<polygon fill="#555555" stroke="#555555" points="298.95,-400.18 296.5,-393.18 294.05,-400.18 298.95,-400.18"/>
</g>
<!-- fraud -->
<g id="node9" class="node">
<title>fraud</title>
<path fill="#ffffff" stroke="#555555" stroke-width="1.2" d="M311.5,-306C311.5,-306 281.5,-306 281.5,-306 275.5,-306 269.5,-300 269.5,-294 269.5,-294 269.5,-282 269.5,-282 269.5,-276 275.5,-270 281.5,-270 281.5,-270 311.5,-270 311.5,-270 317.5,-270 323.5,-276 323.5,-282 323.5,-282 323.5,-294 323.5,-294 323.5,-300 317.5,-306 311.5,-306"/>
<text text-anchor="middle" x="296.5" y="-291" font-family="Helvetica,sans-Serif" font-size="10.00" fill="#333333">Fraud</text>
<text text-anchor="middle" x="296.5" y="-280" font-family="Helvetica,sans-Serif" font-size="10.00" fill="#333333">Score</text>
</g>
<!-- validate&#45;&gt;fraud -->
<g id="edge7" class="edge">
<title>validate&#45;&gt;fraud</title>
<path fill="none" stroke="#555555" d="M296.5,-356.8C296.5,-344.36 296.5,-327.36 296.5,-313.5"/>
<polygon fill="#555555" stroke="#555555" points="298.95,-313.18 296.5,-306.18 294.05,-313.18 298.95,-313.18"/>
</g>
<!-- review -->
<g id="node10" class="node">
<title>review</title>
<path fill="#ffffff" stroke="#4338ca" stroke-width="1.5" stroke-dasharray="5,2" d="M256.5,-210C256.5,-210 226.5,-210 226.5,-210 220.5,-210 214.5,-204 214.5,-198 214.5,-198 214.5,-186 214.5,-186 214.5,-180 220.5,-174 226.5,-174 226.5,-174 256.5,-174 256.5,-174 262.5,-174 268.5,-180 268.5,-186 268.5,-186 268.5,-198 268.5,-198 268.5,-204 262.5,-210 256.5,-210"/>
<text text-anchor="middle" x="241.5" y="-195" font-family="Helvetica,sans-Serif" font-size="10.00" fill="#4338ca">Adjuster</text>
<text text-anchor="middle" x="241.5" y="-184" font-family="Helvetica,sans-Serif" font-size="10.00" fill="#4338ca">Review</text>
</g>
<!-- fraud&#45;&gt;review -->
<g id="edge8" class="edge">
<title>fraud&#45;&gt;review</title>
<path fill="none" stroke="#4338ca" stroke-width="1.2" stroke-dasharray="5,2" d="M271.86,-269.79C263.85,-262.97 255.7,-254.48 250.5,-245 245.92,-236.63 243.57,-226.46 242.4,-217.35"/>
<polygon fill="#4338ca" stroke="#4338ca" stroke-width="1.2" points="244.84,-217.04 241.7,-210.32 239.96,-217.53 244.84,-217.04"/>
<text text-anchor="middle" x="290.5" y="-237.8" font-family="Helvetica,sans-Serif" font-size="9.00" fill="#4338ca"> &#160;score &gt; threshold &#160;</text>
</g>
<!-- decide -->
<g id="node11" class="node">
<title>decide</title>
<path fill="#ffffff" stroke="#555555" stroke-width="1.2" d="M307,-123C307,-123 276,-123 276,-123 270,-123 264,-117 264,-111 264,-111 264,-99 264,-99 264,-93 270,-87 276,-87 276,-87 307,-87 307,-87 313,-87 319,-93 319,-99 319,-99 319,-111 319,-111 319,-117 313,-123 307,-123"/>
<text text-anchor="middle" x="291.5" y="-102.5" font-family="Helvetica,sans-Serif" font-size="10.00" fill="#333333">Decision</text>
</g>
<!-- fraud&#45;&gt;decide -->
<g id="edge9" class="edge">
<title>fraud&#45;&gt;decide</title>
<path fill="none" stroke="#047857" d="M317.83,-269.95C324.85,-263.03 331.79,-254.45 335.5,-245 337.12,-240.86 336.23,-239.38 335.5,-235 329.2,-197.02 313.14,-155.21 302.26,-129.78"/>
<polygon fill="#047857" stroke="#047857" points="304.38,-128.5 299.35,-123.06 299.88,-130.45 304.38,-128.5"/>
<text text-anchor="middle" x="351.5" y="-189.8" font-family="Helvetica,sans-Serif" font-size="9.00" fill="#047857"> &#160;score ok &#160;</text>
</g>
<!-- review&#45;&gt;decide -->
<g id="edge10" class="edge">
<title>review&#45;&gt;decide</title>
<path fill="none" stroke="#555555" d="M251.62,-173.8C259.14,-161.01 269.49,-143.42 277.76,-129.36"/>
<polygon fill="#555555" stroke="#555555" points="279.96,-130.45 281.4,-123.18 275.74,-127.97 279.96,-130.45"/>
</g>
<!-- aggregate -->
<g id="node15" class="node">
<title>aggregate</title>
<path fill="#4338ca" stroke="#4338ca" stroke-width="1.5" d="M360,-36C360,-36 223,-36 223,-36 217,-36 211,-30 211,-24 211,-24 211,-12 211,-12 211,-6 217,0 223,0 223,0 360,0 360,0 366,0 372,-6 372,-12 372,-12 372,-24 372,-24 372,-30 366,-36 360,-36"/>
<text text-anchor="middle" x="291.5" y="-20.8" font-family="Helvetica,sans-Serif" font-size="9.00" fill="#ffffff">Parent aggregates</text>
<text text-anchor="middle" x="291.5" y="-10.8" font-family="Helvetica,sans-Serif" font-size="9.00" fill="#ffffff">9,855 done | 142 in review | 3 failed</text>
</g>
<!-- decide&#45;&gt;aggregate -->
<g id="edge15" class="edge">
<title>decide&#45;&gt;aggregate</title>
<path fill="none" stroke="#555555" stroke-dasharray="5,2" d="M291.5,-71C291.5,-61.85 291.5,-52.08 291.5,-43.5"/>
<polygon fill="#555555" stroke="#555555" points="293.95,-43.18 291.5,-36.18 289.05,-43.18 293.95,-43.18"/>
</g>
<!-- wait_note -->
<g id="node12" class="node">
<title>wait_note</title>
<polygon fill="#ffffff" stroke="#999999" stroke-width="1.2" points="176.5,-306 90.5,-306 90.5,-270 182.5,-270 182.5,-300 176.5,-306"/>
<polyline fill="none" stroke="#999999" stroke-width="1.2" points="176.5,-306 176.5,-300 "/>
<polyline fill="none" stroke="#999999" stroke-width="1.2" points="182.5,-300 176.5,-300 "/>
<text text-anchor="middle" x="136.5" y="-290.6" font-family="Helvetica,sans-Serif" font-size="8.00" fill="#666666">Blocks for hours/days</text>
<text text-anchor="middle" x="136.5" y="-281.6" font-family="Helvetica,sans-Serif" font-size="8.00" fill="#666666">until human signals</text>
</g>
<!-- wait_note&#45;&gt;review -->
<g id="edge12" class="edge">
<title>wait_note&#45;&gt;review</title>
<path fill="none" stroke="#999999" stroke-dasharray="1,5" d="M155.76,-269.76C174.7,-252.8 203.46,-227.05 222.36,-210.13"/>
</g>
<!-- child2_collapsed&#45;&gt;aggregate -->
<g id="edge16" class="edge">
<title>child2_collapsed&#45;&gt;aggregate</title>
<path fill="none" stroke="#999999" stroke-dasharray="5,2" d="M59.97,-530.72C49.24,-514.18 35.5,-488.11 35.5,-463 35.5,-463 35.5,-463 35.5,-104 35.5,-67.65 129.64,-44.13 203.75,-31.24"/>
<polygon fill="#999999" stroke="#999999" points="204.36,-33.62 210.85,-30.03 203.54,-28.79 204.36,-33.62"/>
</g>
<!-- childn_collapsed&#45;&gt;aggregate -->
<g id="edge17" class="edge">
<title>childn_collapsed&#45;&gt;aggregate</title>
<path fill="none" stroke="#999999" stroke-dasharray="5,2" d="M481.31,-530.85C474.02,-513.99 464.5,-487.3 464.5,-463 464.5,-463 464.5,-463 464.5,-104 464.5,-61.51 421.95,-40.26 379.06,-29.63"/>
<polygon fill="#999999" stroke="#999999" points="379.55,-27.23 372.18,-28.02 378.43,-32 379.55,-27.23"/>
</g>
</g>
</svg>
