<?xml version="1.0" encoding="UTF-8" standalone="no"?>
<!DOCTYPE svg PUBLIC "-//W3C//DTD SVG 1.1//EN"
 "http://www.w3.org/Graphics/SVG/1.1/DTD/svg11.dtd">
<!-- Generated by graphviz version 12.2.1 (20241206.2353)
 -->
<!-- Title: pipeline Pages: 1 -->
<svg width="631pt" height="832pt"
 viewBox="0.00 0.00 631.25 831.75" xmlns="http://www.w3.org/2000/svg" xmlns:xlink="http://www.w3.org/1999/xlink">
<g id="graph0" class="graph" transform="scale(1 1) rotate(0) translate(36 795.75)">
<title>pipeline</title>
<g id="clust1" class="cluster">
<title>cluster_child1</title>
<path fill="#f8f9fa" stroke="#555555" stroke-width="1.5" d="M209.12,-71C209.12,-71 387.12,-71 387.12,-71 393.12,-71 399.12,-77 399.12,-83 399.12,-83 399.12,-590.75 399.12,-590.75 399.12,-596.75 393.12,-602.75 387.12,-602.75 387.12,-602.75 209.12,-602.75 209.12,-602.75 203.12,-602.75 197.12,-596.75 197.12,-590.75 197.12,-590.75 197.12,-83 197.12,-83 197.12,-77 203.12,-71 209.12,-71"/>
<text text-anchor="middle" x="298.12" y="-588.3" font-family="Helvetica,sans-Serif" font-size="11.00" fill="#333333">Child Workflow (one claim)</text>
</g>
<!-- parent -->
<g id="node1" class="node">
<title>parent</title>
<path fill="#4338ca" stroke="#4338ca" stroke-width="1.5" d="M383.12,-759.75C383.12,-759.75 319.12,-759.75 319.12,-759.75 313.12,-759.75 307.12,-753.75 307.12,-747.75 307.12,-747.75 307.12,-735.75 307.12,-735.75 307.12,-729.75 313.12,-723.75 319.12,-723.75 319.12,-723.75 383.12,-723.75 383.12,-723.75 389.12,-723.75 395.12,-729.75 395.12,-735.75 395.12,-735.75 395.12,-747.75 395.12,-747.75 395.12,-753.75 389.12,-759.75 383.12,-759.75"/>
<text text-anchor="middle" x="351.12" y="-743.5" font-family="Helvetica,sans-Serif" font-size="10.00" fill="#ffffff">Parent Workflow</text>
<text text-anchor="middle" x="351.12" y="-732.25" font-family="Helvetica,sans-Serif" font-size="10.00" fill="#ffffff">(10,000 claims)</text>
</g>
<!-- child1_label -->
<g id="node2" class="node">
<title>child1_label</title>
<path fill="#ffffff" stroke="none" stroke-width="1.2" d="M310.12,-672.75C310.12,-672.75 280.12,-672.75 280.12,-672.75 274.12,-672.75 268.12,-666.75 268.12,-660.75 268.12,-660.75 268.12,-648.75 268.12,-648.75 268.12,-642.75 274.12,-636.75 280.12,-636.75 280.12,-636.75 310.12,-636.75 310.12,-636.75 316.12,-636.75 322.12,-642.75 322.12,-648.75 322.12,-648.75 322.12,-660.75 322.12,-660.75 322.12,-666.75 316.12,-672.75 310.12,-672.75"/>
<text text-anchor="middle" x="295.12" y="-651.08" font-family="Helvetica,sans-Serif" font-size="9.00" fill="#333333">Claim #1</text>
</g>
<!-- parent&#45;&gt;child1_label -->
<g id="edge1" class="edge">
<title>parent&#45;&gt;child1_label</title>
<path fill="none" stroke="#555555" stroke-width="1.2" d="M339.79,-723.55C331.54,-711.02 320.25,-693.89 311.09,-679.98"/>
<polygon fill="#555555" stroke="#555555" stroke-width="1.2" points="313.15,-678.65 307.25,-674.15 309.05,-681.35 313.15,-678.65"/>
</g>
<!-- child2_label -->
<g id="node3" class="node">
<title>child2_label</title>
<path fill="#ffffff" stroke="none" stroke-width="1.2" d="M208.12,-672.75C208.12,-672.75 178.12,-672.75 178.12,-672.75 172.12,-672.75 166.12,-666.75 166.12,-660.75 166.12,-660.75 166.12,-648.75 166.12,-648.75 166.12,-642.75 172.12,-636.75 178.12,-636.75 178.12,-636.75 208.12,-636.75 208.12,-636.75 214.12,-636.75 220.12,-642.75 220.12,-648.75 220.12,-648.75 220.12,-660.75 220.12,-660.75 220.12,-666.75 214.12,-672.75 208.12,-672.75"/>
<text text-anchor="middle" x="193.12" y="-651.08" font-family="Helvetica,sans-Serif" font-size="9.00" fill="#333333">Claim #2</text>
</g>
<!-- parent&#45;&gt;child2_label -->
<g id="edge2" class="edge">
<title>parent&#45;&gt;child2_label</title>
<path fill="none" stroke="#555555" stroke-width="1.2" d="M318.77,-723.34C292.23,-709.07 254.74,-688.9 227.63,-674.31"/>
<polygon fill="#555555" stroke="#555555" stroke-width="1.2" points="228.85,-672.19 221.53,-671.03 226.53,-676.5 228.85,-672.19"/>
</g>
<!-- childn_label -->
<g id="node4" class="node">
<title>childn_label</title>
<path fill="#ffffff" stroke="none" stroke-width="1.2" d="M400.25,-672.75C400.25,-672.75 370,-672.75 370,-672.75 364,-672.75 358,-666.75 358,-660.75 358,-660.75 358,-648.75 358,-648.75 358,-642.75 364,-636.75 370,-636.75 370,-636.75 400.25,-636.75 400.25,-636.75 406.25,-636.75 412.25,-642.75 412.25,-648.75 412.25,-648.75 412.25,-660.75 412.25,-660.75 412.25,-666.75 406.25,-672.75 400.25,-672.75"/>
<text text-anchor="middle" x="385.12" y="-651.08" font-family="Helvetica,sans-Serif" font-size="9.00" fill="#333333">Claim #N</text>
</g>
<!-- parent&#45;&gt;childn_label -->
<g id="edge4" class="edge">
<title>parent&#45;&gt;childn_label</title>
<path fill="none" stroke="#555555" stroke-width="1.2" d="M358.01,-723.55C362.92,-711.26 369.62,-694.52 375.12,-680.76"/>
<polygon fill="#555555" stroke="#555555" stroke-width="1.2" points="377.37,-681.73 377.7,-674.32 372.82,-679.91 377.37,-681.73"/>
</g>
<!-- dots -->
<g id="node5" class="node">
<title>dots</title>
<path fill="#ffffff" stroke="none" stroke-width="1.2" d="M490.12,-672.75C490.12,-672.75 460.12,-672.75 460.12,-672.75 454.12,-672.75 448.12,-666.75 448.12,-660.75 448.12,-660.75 448.12,-648.75 448.12,-648.75 448.12,-642.75 454.12,-636.75 460.12,-636.75 460.12,-636.75 490.12,-636.75 490.12,-636.75 496.12,-636.75 502.12,-642.75 502.12,-648.75 502.12,-648.75 502.12,-660.75 502.12,-660.75 502.12,-666.75 496.12,-672.75 490.12,-672.75"/>
<text text-anchor="middle" x="475.12" y="-647.8" font-family="Helvetica,sans-Serif" font-size="16.00" fill="#555555">...</text>
</g>
<!-- parent&#45;&gt;dots -->
<g id="edge3" class="edge">
<title>parent&#45;&gt;dots</title>
<path fill="none" stroke="#555555" stroke-width="1.2" d="M376.52,-723.34C398.2,-708.48 429.19,-687.24 450.61,-672.55"/>
</g>
<!-- ingest -->
<g id="node6" class="node">
<title>ingest</title>
<path fill="#ffffff" stroke="#555555" stroke-width="1.2" d="M310.12,-566.75C310.12,-566.75 280.12,-566.75 280.12,-566.75 274.12,-566.75 268.12,-560.75 268.12,-554.75 268.12,-554.75 268.12,-542.75 268.12,-542.75 268.12,-536.75 274.12,-530.75 280.12,-530.75 280.12,-530.75 310.12,-530.75 310.12,-530.75 316.12,-530.75 322.12,-536.75 322.12,-542.75 322.12,-542.75 322.12,-554.75 322.12,-554.75 322.12,-560.75 316.12,-566.75 310.12,-566.75"/>
<text text-anchor="middle" x="295.12" y="-544.88" font-family="Helvetica,sans-Serif" font-size="10.00" fill="#333333">Ingest</text>
</g>
<!-- child1_label&#45;&gt;ingest -->
<g id="edge11" class="edge">
<title>child1_label&#45;&gt;ingest</title>
<path fill="none" stroke="#555555" d="M295.12,-637.04C295.12,-629.74 295.12,-620.67 295.12,-611.17"/>
<polygon fill="#555555" stroke="#555555" points="297.58,-611.26 295.13,-604.26 292.68,-611.26 297.58,-611.26"/>
</g>
<!-- child2_collapsed -->
<g id="node13" class="node">
<title>child2_collapsed</title>
<path fill="#f8f9fa" stroke="#999999" stroke-width="1.2" d="M132.25,-566.75C132.25,-566.75 12,-566.75 12,-566.75 6,-566.75 0,-560.75 0,-554.75 0,-554.75 0,-542.75 0,-542.75 0,-536.75 6,-530.75 12,-530.75 12,-530.75 132.25,-530.75 132.25,-530.75 138.25,-530.75 144.25,-536.75 144.25,-542.75 144.25,-542.75 144.25,-554.75 144.25,-554.75 144.25,-560.75 138.25,-566.75 132.25,-566.75"/>
<text text-anchor="middle" x="72.12" y="-545.83" font-family="Helvetica,sans-Serif" font-size="9.00" fill="#666666">Ingest → OCR → ... → Decision</text>
</g>
<!-- child2_label&#45;&gt;child2_collapsed -->
<g id="edge13" class="edge">
<title>child2_label&#45;&gt;child2_collapsed</title>
<path fill="none" stroke="#555555" d="M173.41,-636.81C153.06,-619.31 121.17,-591.9 98.62,-572.52"/>
<polygon fill="#555555" stroke="#555555" points="100.28,-570.72 93.38,-568.02 97.09,-574.44 100.28,-570.72"/>
</g>
<!-- childn_collapsed -->
<g id="node14" class="node">
<title>childn_collapsed</title>
<path fill="#f8f9fa" stroke="#999999" stroke-width="1.2" d="M547.25,-566.75C547.25,-566.75 427,-566.75 427,-566.75 421,-566.75 415,-560.75 415,-554.75 415,-554.75 415,-542.75 415,-542.75 415,-536.75 421,-530.75 427,-530.75 427,-530.75 547.25,-530.75 547.25,-530.75 553.25,-530.75 559.25,-536.75 559.25,-542.75 559.25,-542.75 559.25,-554.75 559.25,-554.75 559.25,-560.75 553.25,-566.75 547.25,-566.75"/>
<text text-anchor="middle" x="487.12" y="-545.83" font-family="Helvetica,sans-Serif" font-size="9.00" fill="#666666">Ingest → OCR → ... → Decision</text>
</g>
<!-- childn_label&#45;&gt;childn_collapsed -->
<g id="edge14" class="edge">
<title>childn_label&#45;&gt;childn_collapsed</title>
<path fill="none" stroke="#555555" d="M401.51,-637.04C418.49,-619.74 445.14,-592.56 464.2,-573.13"/>
<polygon fill="#555555" stroke="#555555" points="465.89,-574.91 469.04,-568.19 462.39,-571.47 465.89,-574.91"/>
</g>
<!-- ocr -->
<g id="node7" class="node">
<title>ocr</title>
<path fill="#ffffff" stroke="#555555" stroke-width="1.2" d="M310.12,-479.75C310.12,-479.75 280.12,-479.75 280.12,-479.75 274.12,-479.75 268.12,-473.75 268.12,-467.75 268.12,-467.75 268.12,-455.75 268.12,-455.75 268.12,-449.75 274.12,-443.75 280.12,-443.75 280.12,-443.75 310.12,-443.75 310.12,-443.75 316.12,-443.75 322.12,-449.75 322.12,-455.75 322.12,-455.75 322.12,-467.75 322.12,-467.75 322.12,-473.75 316.12,-479.75 310.12,-479.75"/>
<text text-anchor="middle" x="295.12" y="-463.5" font-family="Helvetica,sans-Serif" font-size="10.00" fill="#333333">OCR +</text>
<text text-anchor="middle" x="295.12" y="-452.25" font-family="Helvetica,sans-Serif" font-size="10.00" fill="#333333">Extract</text>
</g>
<!-- ingest&#45;&gt;ocr -->
<g id="edge5" class="edge">
<title>ingest&#45;&gt;ocr</title>
<path fill="none" stroke="#555555" d="M295.12,-530.55C295.12,-518.53 295.12,-502.27 295.12,-488.69"/>
<polygon fill="#555555" stroke="#555555" points="297.58,-488.73 295.13,-481.73 292.68,-488.73 297.58,-488.73"/>
</g>
<!-- validate -->
<g id="node8" class="node">
<title>validate</title>
<path fill="#ffffff" stroke="#555555" stroke-width="1.2" d="M310.12,-392.75C310.12,-392.75 280.12,-392.75 280.12,-392.75 274.12,-392.75 268.12,-386.75 268.12,-380.75 268.12,-380.75 268.12,-368.75 268.12,-368.75 268.12,-362.75 274.12,-356.75 280.12,-356.75 280.12,-356.75 310.12,-356.75 310.12,-356.75 316.12,-356.75 322.12,-362.75 322.12,-368.75 322.12,-368.75 322.12,-380.75 322.12,-380.75 322.12,-386.75 316.12,-392.75 310.12,-392.75"/>
<text text-anchor="middle" x="295.12" y="-376.5" font-family="Helvetica,sans-Serif" font-size="10.00" fill="#333333">Cross&#45;</text>
<text text-anchor="middle" x="295.12" y="-365.25" font-family="Helvetica,sans-Serif" font-size="10.00" fill="#333333">Validate</text>
</g>
<!-- ocr&#45;&gt;validate -->
<g id="edge6" class="edge">
<title>ocr&#45;&gt;validate</title>
<path fill="none" stroke="#555555" d="M295.12,-443.55C295.12,-431.53 295.12,-415.27 295.12,-401.69"/>
<polygon fill="#555555" stroke="#555555" points="297.58,-401.73 295.13,-394.73 292.68,-401.73 297.58,-401.73"/>
</g>
<!-- fraud -->
<g id="node9" class="node">
<title>fraud</title>
<path fill="#ffffff" stroke="#555555" stroke-width="1.2" d="M310.12,-305.75C310.12,-305.75 280.12,-305.75 280.12,-305.75 274.12,-305.75 268.12,-299.75 268.12,-293.75 268.12,-293.75 268.12,-281.75 268.12,-281.75 268.12,-275.75 274.12,-269.75 280.12,-269.75 280.12,-269.75 310.12,-269.75 310.12,-269.75 316.12,-269.75 322.12,-275.75 322.12,-281.75 322.12,-281.75 322.12,-293.75 322.12,-293.75 322.12,-299.75 316.12,-305.75 310.12,-305.75"/>
<text text-anchor="middle" x="295.12" y="-289.5" font-family="Helvetica,sans-Serif" font-size="10.00" fill="#333333">Fraud</text>
<text text-anchor="middle" x="295.12" y="-278.25" font-family="Helvetica,sans-Serif" font-size="10.00" fill="#333333">Score</text>
</g>
<!-- validate&#45;&gt;fraud -->
<g id="edge7" class="edge">
<title>validate&#45;&gt;fraud</title>
<path fill="none" stroke="#555555" d="M295.12,-356.55C295.12,-344.53 295.12,-328.27 295.12,-314.69"/>
<polygon fill="#555555" stroke="#555555" points="297.58,-314.73 295.13,-307.73 292.68,-314.73 297.58,-314.73"/>
</g>
<!-- review -->
<g id="node10" class="node">
<title>review</title>
<path fill="#ffffff" stroke="#4338ca" stroke-width="1.5" stroke-dasharray="5,2" d="M255.12,-210C255.12,-210 225.12,-210 225.12,-210 219.12,-210 213.12,-204 213.12,-198 213.12,-198 213.12,-186 213.12,-186 213.12,-180 219.12,-174 225.12,-174 225.12,-174 255.12,-174 255.12,-174 261.12,-174 267.12,-180 267.12,-186 267.12,-186 267.12,-198 267.12,-198 267.12,-204 261.12,-210 255.12,-210"/>
<text text-anchor="middle" x="240.12" y="-193.75" font-family="Helvetica,sans-Serif" font-size="10.00" fill="#4338ca">Adjuster</text>
<text text-anchor="middle" x="240.12" y="-182.5" font-family="Helvetica,sans-Serif" font-size="10.00" fill="#4338ca">Review</text>
</g>
<!-- fraud&#45;&gt;review -->
<g id="edge8" class="edge">
<title>fraud&#45;&gt;review</title>
<path fill="none" stroke="#4338ca" stroke-width="1.2" stroke-dasharray="5,2" d="M270.81,-269.46C262.89,-262.63 254.81,-254.17 249.62,-244.75 245.31,-236.91 242.9,-227.49 241.58,-218.85"/>
<polygon fill="#4338ca" stroke="#4338ca" stroke-width="1.2" points="244.03,-218.7 240.77,-212.03 239.16,-219.27 244.03,-218.7"/>
<text text-anchor="middle" x="289.38" y="-236.2" font-family="Helvetica,sans-Serif" font-size="9.00" fill="#4338ca"> &#160;score &gt; threshold &#160;</text>
</g>
<!-- decide -->
<g id="node11" class="node">
<title>decide</title>
<path fill="#ffffff" stroke="#555555" stroke-width="1.2" d="M304.25,-123C304.25,-123 274,-123 274,-123 268,-123 262,-117 262,-111 262,-111 262,-99 262,-99 262,-93 268,-87 274,-87 274,-87 304.25,-87 304.25,-87 310.25,-87 316.25,-93 316.25,-99 316.25,-99 316.25,-111 316.25,-111 316.25,-117 310.25,-123 304.25,-123"/>
<text text-anchor="middle" x="289.12" y="-101.12" font-family="Helvetica,sans-Serif" font-size="10.00" fill="#333333">Decision</text>
</g>
<!-- fraud&#45;&gt;decide -->
<g id="edge9" class="edge">
<title>fraud&#45;&gt;decide</title>
<path fill="none" stroke="#047857" d="M316.87,-269.29C323.74,-262.45 330.49,-254.01 334.12,-244.75 335.71,-240.72 334.85,-239.27 334.12,-235 327.8,-197.65 311.85,-156.69 300.75,-131.17"/>
<polygon fill="#047857" stroke="#047857" points="303.02,-130.24 297.95,-124.83 298.54,-132.22 303.02,-130.24"/>
<text text-anchor="middle" x="350.11" y="-188.32" font-family="Helvetica,sans-Serif" font-size="9.00" fill="#047857"> &#160;score ok &#160;</text>
</g>
<!-- review&#45;&gt;decide -->
<g id="edge10" class="edge">
<title>review&#45;&gt;decide</title>
<path fill="none" stroke="#555555" d="M250.04,-173.8C257.17,-161.44 266.88,-144.59 274.84,-130.78"/>
<polygon fill="#555555" stroke="#555555" points="276.93,-132.07 278.3,-124.78 272.68,-129.62 276.93,-132.07"/>
</g>
<!-- aggregate -->
<g id="node15" class="node">
<title>aggregate</title>
<path fill="#4338ca" stroke="#4338ca" stroke-width="1.5" d="M357.5,-36C357.5,-36 220.75,-36 220.75,-36 214.75,-36 208.75,-30 208.75,-24 208.75,-24 208.75,-12 208.75,-12 208.75,-6 214.75,0 220.75,0 220.75,0 357.5,0 357.5,0 363.5,0 369.5,-6 369.5,-12 369.5,-12 369.5,-24 369.5,-24 369.5,-30 363.5,-36 357.5,-36"/>
<text text-anchor="middle" x="289.12" y="-19.2" font-family="Helvetica,sans-Serif" font-size="9.00" fill="#ffffff">Parent aggregates</text>
<text text-anchor="middle" x="289.12" y="-9.45" font-family="Helvetica,sans-Serif" font-size="9.00" fill="#ffffff">9,855 done | 142 in review | 3 failed</text>
</g>
<!-- decide&#45;&gt;aggregate -->
<g id="edge15" class="edge">
<title>decide&#45;&gt;aggregate</title>
<path fill="none" stroke="#555555" stroke-dasharray="5,2" d="M289.12,-71C289.12,-62.36 289.12,-53.16 289.12,-44.94"/>
<polygon fill="#555555" stroke="#555555" points="291.58,-44.98 289.13,-37.98 286.68,-44.98 291.58,-44.98"/>
</g>
<!-- wait_note -->
<g id="node12" class="node">
<title>wait_note</title>
<polygon fill="#ffffff" stroke="#999999" stroke-width="1.2" points="175,-305.75 89.25,-305.75 89.25,-269.75 181,-269.75 181,-299.75 175,-305.75"/>
<polyline fill="none" stroke="#999999" stroke-width="1.2" points="175,-305.75 175,-299.75"/>
<polyline fill="none" stroke="#999999" stroke-width="1.2" points="181,-299.75 175,-299.75"/>
<text text-anchor="middle" x="135.12" y="-289.15" font-family="Helvetica,sans-Serif" font-size="8.00" fill="#666666">Blocks for hours/days</text>
<text text-anchor="middle" x="135.12" y="-280.15" font-family="Helvetica,sans-Serif" font-size="8.00" fill="#666666">until human signals</text>
</g>
<!-- wait_note&#45;&gt;review -->
<g id="edge12" class="edge">
<title>wait_note&#45;&gt;review</title>
<path fill="none" stroke="#999999" stroke-dasharray="1,5" d="M154.38,-269.55C173.21,-252.75 201.73,-227.28 220.63,-210.4"/>
</g>
<!-- child2_collapsed&#45;&gt;aggregate -->
<g id="edge16" class="edge">
<title>child2_collapsed&#45;&gt;aggregate</title>
<path fill="none" stroke="#999999" stroke-dasharray="5,2" d="M59.26,-530.52C48.24,-514.01 34.12,-487.97 34.12,-462.75 34.12,-462.75 34.12,-462.75 34.12,-104 34.12,-67.98 126.85,-44.49 200.48,-31.52"/>
<polygon fill="#999999" stroke="#999999" points="200.47,-34.01 206.95,-30.4 199.64,-29.18 200.47,-34.01"/>
</g>
<!-- childn_collapsed&#45;&gt;aggregate -->
<g id="edge17" class="edge">
<title>childn_collapsed&#45;&gt;aggregate</title>
<path fill="none" stroke="#999999" stroke-dasharray="5,2" d="M478.8,-530.28C471.53,-513.4 462.12,-486.9 462.12,-462.75 462.12,-462.75 462.12,-462.75 462.12,-104 462.12,-61.95 420.45,-40.7 378,-29.97"/>
<polygon fill="#999999" stroke="#999999" points="378.65,-27.6 371.27,-28.37 377.52,-32.37 378.65,-27.6"/>
</g>
</g>
</svg>
