<?xml version="1.0" encoding="UTF-8" standalone="no"?>
<!DOCTYPE svg PUBLIC "-//W3C//DTD SVG 1.1//EN"
 "http://www.w3.org/Graphics/SVG/1.1/DTD/svg11.dtd">
<!-- Generated by graphviz version 12.2.1 (20241206.2353)
 -->
<!-- Title: perpetual_execution Pages: 1 -->
<svg width="1120pt" height="153pt"
 viewBox="0.00 0.00 1120.45 153.20" xmlns="http://www.w3.org/2000/svg" xmlns:xlink="http://www.w3.org/1999/xlink">
<g id="graph0" class="graph" transform="scale(1 1) rotate(0) translate(21.6 131.6)">
<title>perpetual_execution</title>
<g id="clust1" class="cluster">
<title>cluster_exec1</title>
<path fill="#f8f9fa" stroke="#555555" stroke-width="1.5" d="M20,-8C20,-8 461,-8 461,-8 467,-8 473,-14 473,-20 473,-20 473,-90 473,-90 473,-96 467,-102 461,-102 461,-102 20,-102 20,-102 14,-102 8,-96 8,-90 8,-90 8,-20 8,-20 8,-14 14,-8 20,-8"/>
<text text-anchor="middle" x="240.5" y="-85.65" font-family="Helvetica,sans-Serif" font-size="13.00" fill="#333333">Execution 1 &#160;(history: 0 → N events)</text>
</g>
<g id="clust2" class="cluster">
<title>cluster_exec2</title>
<path fill="#f8f9fa" stroke="#555555" stroke-width="1.5" d="M577.5,-8C577.5,-8 1018.5,-8 1018.5,-8 1024.5,-8 1030.5,-14 1030.5,-20 1030.5,-20 1030.5,-90 1030.5,-90 1030.5,-96 1024.5,-102 1018.5,-102 1018.5,-102 577.5,-102 577.5,-102 571.5,-102 565.5,-96 565.5,-90 565.5,-90 565.5,-20 565.5,-20 565.5,-14 571.5,-8 577.5,-8"/>
<text text-anchor="middle" x="798" y="-85.65" font-family="Helvetica,sans-Serif" font-size="13.00" fill="#333333">Execution 2 &#160;(history: 0 → N events)</text>
</g>
<!-- e1_charge -->
<g id="node1" class="node">
<title>e1_charge</title>
<path fill="#ffffff" stroke="#555555" stroke-width="1.2" d="M72.25,-61C72.25,-61 36,-61 36,-61 30,-61 24,-55 24,-49 24,-49 24,-37 24,-37 24,-31 30,-25 36,-25 36,-25 72.25,-25 72.25,-25 78.25,-25 84.25,-31 84.25,-37 84.25,-37 84.25,-49 84.25,-49 84.25,-55 78.25,-61 72.25,-61"/>
<text text-anchor="middle" x="54.12" y="-37.2" font-family="Helvetica,sans-Serif" font-size="14.00" fill="#333333">Charge</text>
</g>
<!-- e1_receipt -->
<g id="node2" class="node">
<title>e1_receipt</title>
<path fill="#ffffff" stroke="#555555" stroke-width="1.2" d="M179,-61C179,-61 141.25,-61 141.25,-61 135.25,-61 129.25,-55 129.25,-49 129.25,-49 129.25,-37 129.25,-37 129.25,-31 135.25,-25 141.25,-25 141.25,-25 179,-25 179,-25 185,-25 191,-31 191,-37 191,-37 191,-49 191,-49 191,-55 185,-61 179,-61"/>
<text text-anchor="middle" x="160.12" y="-37.2" font-family="Helvetica,sans-Serif" font-size="14.00" fill="#333333">Receipt</text>
</g>
<!-- e1_charge&#45;&gt;e1_receipt -->
<g id="edge1" class="edge">
<title>e1_charge&#45;&gt;e1_receipt</title>
<path fill="none" stroke="#555555" d="M84.65,-43C95.76,-43 108.57,-43 120.4,-43"/>
<polygon fill="#555555" stroke="#555555" points="120.29,-45.45 127.29,-43 120.29,-40.55 120.29,-45.45"/>
</g>
<!-- e1_sleep -->
<g id="node3" class="node">
<title>e1_sleep</title>
<path fill="#ffffff" stroke="#555555" stroke-width="1.2" d="M287.25,-62C287.25,-62 248,-62 248,-62 242,-62 236,-56 236,-50 236,-50 236,-36 236,-36 236,-30 242,-24 248,-24 248,-24 287.25,-24 287.25,-24 293.25,-24 299.25,-30 299.25,-36 299.25,-36 299.25,-50 299.25,-50 299.25,-56 293.25,-62 287.25,-62"/>
<text text-anchor="middle" x="267.62" y="-44.7" font-family="Helvetica,sans-Serif" font-size="14.00" fill="#333333">Sleep</text>
<text text-anchor="middle" x="267.62" y="-29.7" font-family="Helvetica,sans-Serif" font-size="14.00" fill="#333333">30 days</text>
</g>
<!-- e1_receipt&#45;&gt;e1_sleep -->
<g id="edge2" class="edge">
<title>e1_receipt&#45;&gt;e1_sleep</title>
<path fill="none" stroke="#555555" d="M191.36,-43C202.53,-43 215.36,-43 227.22,-43"/>
<polygon fill="#555555" stroke="#555555" points="227.14,-45.45 234.14,-43 227.14,-40.55 227.14,-45.45"/>
</g>
<!-- e1_continue -->
<g id="node4" class="node">
<title>e1_continue</title>
<path fill="#4338ca" stroke="#4338ca" stroke-width="1.5" d="M445,-61C445,-61 356.25,-61 356.25,-61 350.25,-61 344.25,-55 344.25,-49 344.25,-49 344.25,-37 344.25,-37 344.25,-31 350.25,-25 356.25,-25 356.25,-25 445,-25 445,-25 451,-25 457,-31 457,-37 457,-37 457,-49 457,-49 457,-55 451,-61 445,-61"/>
<text text-anchor="middle" x="400.62" y="-37.2" font-family="Helvetica,sans-Serif" font-size="14.00" fill="#ffffff">ContinueAsNew</text>
</g>
<!-- e1_sleep&#45;&gt;e1_continue -->
<g id="edge3" class="edge">
<title>e1_sleep&#45;&gt;e1_continue</title>
<path fill="none" stroke="#555555" d="M299.67,-43C310.53,-43 323.16,-43 335.71,-43"/>
<polygon fill="#555555" stroke="#555555" points="335.41,-45.45 342.41,-43 335.41,-40.55 335.41,-45.45"/>
</g>
<!-- e2_charge -->
<g id="node5" class="node">
<title>e2_charge</title>
<path fill="#ffffff" stroke="#555555" stroke-width="1.2" d="M629.75,-61C629.75,-61 593.5,-61 593.5,-61 587.5,-61 581.5,-55 581.5,-49 581.5,-49 581.5,-37 581.5,-37 581.5,-31 587.5,-25 593.5,-25 593.5,-25 629.75,-25 629.75,-25 635.75,-25 641.75,-31 641.75,-37 641.75,-37 641.75,-49 641.75,-49 641.75,-55 635.75,-61 629.75,-61"/>
<text text-anchor="middle" x="611.62" y="-37.2" font-family="Helvetica,sans-Serif" font-size="14.00" fill="#333333">Charge</text>
</g>
<!-- e1_continue&#45;&gt;e2_charge -->
<g id="edge7" class="edge">
<title>e1_continue&#45;&gt;e2_charge</title>
<path fill="none" stroke="#4338ca" stroke-width="1.5" d="M457.36,-43C488.01,-43 525.89,-43 556.32,-43"/>
<polygon fill="#4338ca" stroke="#4338ca" stroke-width="1.5" points="556.23,-45.45 563.23,-43 556.23,-40.55 556.23,-45.45"/>
<text text-anchor="middle" x="519.25" y="-71.85" font-family="Helvetica,sans-Serif" font-size="12.00" fill="#4338ca"> &#160;Carried State</text>
<text text-anchor="middle" x="519.25" y="-59.10" font-family="Helvetica,sans-Serif" font-size="12.00" fill="#4338ca"> &#160;history reset</text>
<text text-anchor="middle" x="519.25" y="-46.35" font-family="Helvetica,sans-Serif" font-size="12.00" fill="#4338ca"> &#160;to 0 events &#160;</text>
</g>
<!-- e2_receipt -->
<g id="node6" class="node">
<title>e2_receipt</title>
<path fill="#ffffff" stroke="#555555" stroke-width="1.2" d="M736.5,-61C736.5,-61 698.75,-61 698.75,-61 692.75,-61 686.75,-55 686.75,-49 686.75,-49 686.75,-37 686.75,-37 686.75,-31 692.75,-25 698.75,-25 698.75,-25 736.5,-25 736.5,-25 742.5,-25 748.5,-31 748.5,-37 748.5,-37 748.5,-49 748.5,-49 748.5,-55 742.5,-61 736.5,-61"/>
<text text-anchor="middle" x="717.62" y="-37.2" font-family="Helvetica,sans-Serif" font-size="14.00" fill="#333333">Receipt</text>
</g>
<!-- e2_charge&#45;&gt;e2_receipt -->
<g id="edge4" class="edge">
<title>e2_charge&#45;&gt;e2_receipt</title>
<path fill="none" stroke="#555555" d="M642.15,-43C653.26,-43 666.07,-43 677.9,-43"/>
<polygon fill="#555555" stroke="#555555" points="677.79,-45.45 684.79,-43 677.79,-40.55 677.79,-45.45"/>
</g>
<!-- e2_sleep -->
<g id="node7" class="node">
<title>e2_sleep</title>
<path fill="#ffffff" stroke="#555555" stroke-width="1.2" d="M844.75,-62C844.75,-62 805.5,-62 805.5,-62 799.5,-62 793.5,-56 793.5,-50 793.5,-50 793.5,-36 793.5,-36 793.5,-30 799.5,-24 805.5,-24 805.5,-24 844.75,-24 844.75,-24 850.75,-24 856.75,-30 856.75,-36 856.75,-36 856.75,-50 856.75,-50 856.75,-56 850.75,-62 844.75,-62"/>
<text text-anchor="middle" x="825.12" y="-44.7" font-family="Helvetica,sans-Serif" font-size="14.00" fill="#333333">Sleep</text>
<text text-anchor="middle" x="825.12" y="-29.7" font-family="Helvetica,sans-Serif" font-size="14.00" fill="#333333">30 days</text>
</g>
<!-- e2_receipt&#45;&gt;e2_sleep -->
<g id="edge5" class="edge">
<title>e2_receipt&#45;&gt;e2_sleep</title>
<path fill="none" stroke="#555555" d="M748.86,-43C760.03,-43 772.86,-43 784.72,-43"/>
<polygon fill="#555555" stroke="#555555" points="784.64,-45.45 791.64,-43 784.64,-40.55 784.64,-45.45"/>
</g>
<!-- e2_continue -->
<g id="node8" class="node">
<title>e2_continue</title>
<path fill="#4338ca" stroke="#4338ca" stroke-width="1.5" d="M1002.5,-61C1002.5,-61 913.75,-61 913.75,-61 907.75,-61 901.75,-55 901.75,-49 901.75,-49 901.75,-37 901.75,-37 901.75,-31 907.75,-25 913.75,-25 913.75,-25 1002.5,-25 1002.5,-25 1008.5,-25 1014.5,-31 1014.5,-37 1014.5,-37 1014.5,-49 1014.5,-49 1014.5,-55 1008.5,-61 1002.5,-61"/>
<text text-anchor="middle" x="958.12" y="-37.2" font-family="Helvetica,sans-Serif" font-size="14.00" fill="#ffffff">ContinueAsNew</text>
</g>
<!-- e2_sleep&#45;&gt;e2_continue -->
<g id="edge6" class="edge">
<title>e2_sleep&#45;&gt;e2_continue</title>
<path fill="none" stroke="#555555" d="M857.17,-43C868.03,-43 880.66,-43 893.21,-43"/>
<polygon fill="#555555" stroke="#555555" points="892.91,-45.45 899.91,-43 892.91,-40.55 892.91,-45.45"/>
</g>
<!-- ellipsis -->
<g id="node9" class="node">
<title>ellipsis</title>
<path fill="#ffffff" stroke="none" stroke-width="1.2" d="M1072,-52.38C1072,-52.38 1066.75,-52.38 1066.75,-52.38 1064.12,-52.38 1061.5,-49.75 1061.5,-47.12 1061.5,-47.12 1061.5,-38.88 1061.5,-38.88 1061.5,-36.25 1064.12,-33.62 1066.75,-33.62 1066.75,-33.62 1072,-33.62 1072,-33.62 1074.62,-33.62 1077.25,-36.25 1077.25,-38.88 1077.25,-38.88 1077.25,-47.12 1077.25,-47.12 1077.25,-49.75 1074.62,-52.38 1072,-52.38"/>
<text text-anchor="middle" x="1069.38" y="-35.27" font-family="Helvetica,sans-Serif" font-size="18.00" fill="#555555">...</text>
</g>
<!-- e2_continue&#45;&gt;ellipsis -->
<g id="edge8" class="edge">
<title>e2_continue&#45;&gt;ellipsis</title>
<path fill="none" stroke="#4338ca" stroke-width="1.5" d="M1014.71,-43C1028.64,-43 1042.48,-43 1052.62,-43"/>
<polygon fill="#4338ca" stroke="#4338ca" stroke-width="1.5" points="1052.42,-45.45 1059.42,-43 1052.42,-40.55 1052.42,-45.45"/>
</g>
</g>
</svg>
