<?xml version="1.0" encoding="UTF-8" standalone="no"?>
<!DOCTYPE svg PUBLIC "-//W3C//DTD SVG 1.1//EN"
 "http://www.w3.org/Graphics/SVG/1.1/DTD/svg11.dtd">
<!-- Generated by graphviz version 2.43.0 (0)
 -->
<!-- Title: perpetual_execution Pages: 1 -->
<svg width="1124pt" height="151pt"
 viewBox="0.00 0.00 1124.20 151.20" xmlns="http://www.w3.org/2000/svg" xmlns:xlink="http://www.w3.org/1999/xlink">
<g id="graph0" class="graph" transform="scale(1 1) rotate(0) translate(21.6 129.6)">
<title>perpetual_execution</title>
<g id="clust1" class="cluster">
<title>cluster_exec1</title>
<path fill="#f8f9fa" stroke="#555555" stroke-width="1.5" d="M20,-8C20,-8 463,-8 463,-8 469,-8 475,-14 475,-20 475,-20 475,-88 475,-88 475,-94 469,-100 463,-100 463,-100 20,-100 20,-100 14,-100 8,-94 8,-88 8,-88 8,-20 8,-20 8,-14 14,-8 20,-8"/>
<text text-anchor="middle" x="241.5" y="-85.6" font-family="Helvetica,sans-Serif" font-size="13.00" fill="#333333">Execution 1 &#160;(history: 0 → N events)</text>
</g>
<g id="clust2" class="cluster">
<title>cluster_exec2</title>
<path fill="#f8f9fa" stroke="#555555" stroke-width="1.5" d="M579,-8C579,-8 1022,-8 1022,-8 1028,-8 1034,-14 1034,-20 1034,-20 1034,-88 1034,-88 1034,-94 1028,-100 1022,-100 1022,-100 579,-100 579,-100 573,-100 567,-94 567,-88 567,-88 567,-20 567,-20 567,-14 573,-8 579,-8"/>
<text text-anchor="middle" x="800.5" y="-85.6" font-family="Helvetica,sans-Serif" font-size="13.00" fill="#333333">Execution 2 &#160;(history: 0 → N events)</text>
</g>
<!-- e1_charge -->
<g id="node1" class="node">
<title>e1_charge</title>
<path fill="#ffffff" stroke="#555555" stroke-width="1.2" d="M73,-61C73,-61 36,-61 36,-61 30,-61 24,-55 24,-49 24,-49 24,-37 24,-37 24,-31 30,-25 36,-25 36,-25 73,-25 73,-25 79,-25 85,-31 85,-37 85,-37 85,-49 85,-49 85,-55 79,-61 73,-61"/>
<text text-anchor="middle" x="54.5" y="-39.3" font-family="Helvetica,sans-Serif" font-size="14.00" fill="#333333">Charge</text>
</g>
<!-- e1_receipt -->
<g id="node2" class="node">
<title>e1_receipt</title>
<path fill="#ffffff" stroke="#555555" stroke-width="1.2" d="M180,-61C180,-61 142,-61 142,-61 136,-61 130,-55 130,-49 130,-49 130,-37 130,-37 130,-31 136,-25 142,-25 142,-25 180,-25 180,-25 186,-25 192,-31 192,-37 192,-37 192,-49 192,-49 192,-55 186,-61 180,-61"/>
<text text-anchor="middle" x="161" y="-39.3" font-family="Helvetica,sans-Serif" font-size="14.00" fill="#333333">Receipt</text>
</g>
<!-- e1_charge&#45;&gt;e1_receipt -->
<g id="edge1" class="edge">
<title>e1_charge&#45;&gt;e1_receipt</title>
<path fill="none" stroke="#555555" d="M85.17,-43C96.87,-43 110.44,-43 122.79,-43"/>
<polygon fill="#555555" stroke="#555555" points="122.9,-45.45 129.9,-43 122.9,-40.55 122.9,-45.45"/>
</g>
<!-- e1_sleep -->
<g id="node3" class="node">
<title>e1_sleep</title>
<path fill="#ffffff" stroke="#555555" stroke-width="1.2" d="M289,-62C289,-62 249,-62 249,-62 243,-62 237,-56 237,-50 237,-50 237,-36 237,-36 237,-30 243,-24 249,-24 249,-24 289,-24 289,-24 295,-24 301,-30 301,-36 301,-36 301,-50 301,-50 301,-56 295,-62 289,-62"/>
<text text-anchor="middle" x="269" y="-46.8" font-family="Helvetica,sans-Serif" font-size="14.00" fill="#333333">Sleep</text>
<text text-anchor="middle" x="269" y="-31.8" font-family="Helvetica,sans-Serif" font-size="14.00" fill="#333333">30 days</text>
</g>
<!-- e1_receipt&#45;&gt;e1_sleep -->
<g id="edge2" class="edge">
<title>e1_receipt&#45;&gt;e1_sleep</title>
<path fill="none" stroke="#555555" d="M192.09,-43C203.76,-43 217.26,-43 229.61,-43"/>
<polygon fill="#555555" stroke="#555555" points="229.73,-45.45 236.73,-43 229.73,-40.55 229.73,-45.45"/>
</g>
<!-- e1_continue -->
<g id="node4" class="node">
<title>e1_continue</title>
<path fill="#4338ca" stroke="#4338ca" stroke-width="1.5" d="M447,-61C447,-61 358,-61 358,-61 352,-61 346,-55 346,-49 346,-49 346,-37 346,-37 346,-31 352,-25 358,-25 358,-25 447,-25 447,-25 453,-25 459,-31 459,-37 459,-37 459,-49 459,-49 459,-55 453,-61 447,-61"/>
<text text-anchor="middle" x="402.5" y="-39.3" font-family="Helvetica,sans-Serif" font-size="14.00" fill="#ffffff">ContinueAsNew</text>
</g>
<!-- e1_sleep&#45;&gt;e1_continue -->
<g id="edge3" class="edge">
<title>e1_sleep&#45;&gt;e1_continue</title>
<path fill="none" stroke="#555555" d="M301.16,-43C312.44,-43 325.62,-43 338.64,-43"/>
<polygon fill="#555555" stroke="#555555" points="338.85,-45.45 345.85,-43 338.85,-40.55 338.85,-45.45"/>
</g>
<!-- e2_charge -->
<g id="node5" class="node">
<title>e2_charge</title>
<path fill="#ffffff" stroke="#555555" stroke-width="1.2" d="M632,-61C632,-61 595,-61 595,-61 589,-61 583,-55 583,-49 583,-49 583,-37 583,-37 583,-31 589,-25 595,-25 595,-25 632,-25 632,-25 638,-25 644,-31 644,-37 644,-37 644,-49 644,-49 644,-55 638,-61 632,-61"/>
<text text-anchor="middle" x="613.5" y="-39.3" font-family="Helvetica,sans-Serif" font-size="14.00" fill="#333333">Charge</text>
</g>
<!-- e1_continue&#45;&gt;e2_charge -->
<g id="edge7" class="edge">
<title>e1_continue&#45;&gt;e2_charge</title>
<path fill="none" stroke="#4338ca" stroke-width="1.5" d="M459.23,-43C490.43,-43 529.09,-43 559.78,-43"/>
<polygon fill="#4338ca" stroke="#4338ca" stroke-width="1.5" points="560,-45.45 567,-43 560,-40.55 560,-45.45"/>
<text text-anchor="middle" x="521" y="-74.40" font-family="Helvetica,sans-Serif" font-size="12.00" fill="#4338ca"> &#160;Carried State</text>
<text text-anchor="middle" x="521" y="-61.40" font-family="Helvetica,sans-Serif" font-size="12.00" fill="#4338ca"> &#160;history reset</text>
<text text-anchor="middle" x="521" y="-48.40" font-family="Helvetica,sans-Serif" font-size="12.00" fill="#4338ca"> &#160;to 0 events &#160;</text>
</g>
<!-- e2_receipt -->
<g id="node6" class="node">
<title>e2_receipt</title>
<path fill="#ffffff" stroke="#555555" stroke-width="1.2" d="M739,-61C739,-61 701,-61 701,-61 695,-61 689,-55 689,-49 689,-49 689,-37 689,-37 689,-31 695,-25 701,-25 701,-25 739,-25 739,-25 745,-25 751,-31 751,-37 751,-37 751,-49 751,-49 751,-55 745,-61 739,-61"/>
<text text-anchor="middle" x="720" y="-39.3" font-family="Helvetica,sans-Serif" font-size="14.00" fill="#333333">Receipt</text>
</g>
<!-- e2_charge&#45;&gt;e2_receipt -->
<g id="edge4" class="edge">
<title>e2_charge&#45;&gt;e2_receipt</title>
<path fill="none" stroke="#555555" d="M644.17,-43C655.87,-43 669.44,-43 681.79,-43"/>
<polygon fill="#555555" stroke="#555555" points="681.9,-45.45 688.9,-43 681.9,-40.55 681.9,-45.45"/>
</g>
<!-- e2_sleep -->
<g id="node7" class="node">
<title>e2_sleep</title>
<path fill="#ffffff" stroke="#555555" stroke-width="1.2" d="M848,-62C848,-62 808,-62 808,-62 802,-62 796,-56 796,-50 796,-50 796,-36 796,-36 796,-30 802,-24 808,-24 808,-24 848,-24 848,-24 854,-24 860,-30 860,-36 860,-36 860,-50 860,-50 860,-56 854,-62 848,-62"/>
<text text-anchor="middle" x="828" y="-46.8" font-family="Helvetica,sans-Serif" font-size="14.00" fill="#333333">Sleep</text>
<text text-anchor="middle" x="828" y="-31.8" font-family="Helvetica,sans-Serif" font-size="14.00" fill="#333333">30 days</text>
</g>
<!-- e2_receipt&#45;&gt;e2_sleep -->
<g id="edge5" class="edge">
<title>e2_receipt&#45;&gt;e2_sleep</title>
<path fill="none" stroke="#555555" d="M751.09,-43C762.76,-43 776.26,-43 788.61,-43"/>
<polygon fill="#555555" stroke="#555555" points="788.73,-45.45 795.73,-43 788.73,-40.55 788.73,-45.45"/>
</g>
<!-- e2_continue -->
<g id="node8" class="node">
<title>e2_continue</title>
<path fill="#4338ca" stroke="#4338ca" stroke-width="1.5" d="M1006,-61C1006,-61 917,-61 917,-61 911,-61 905,-55 905,-49 905,-49 905,-37 905,-37 905,-31 911,-25 917,-25 917,-25 1006,-25 1006,-25 1012,-25 1018,-31 1018,-37 1018,-37 1018,-49 1018,-49 1018,-55 1012,-61 1006,-61"/>
<text text-anchor="middle" x="961.5" y="-39.3" font-family="Helvetica,sans-Serif" font-size="14.00" fill="#ffffff">ContinueAsNew</text>
</g>
<!-- e2_sleep&#45;&gt;e2_continue -->
<g id="edge6" class="edge">
<title>e2_sleep&#45;&gt;e2_continue</title>
<path fill="none" stroke="#555555" d="M860.16,-43C871.44,-43 884.62,-43 897.64,-43"/>
<polygon fill="#555555" stroke="#555555" points="897.85,-45.45 904.85,-43 897.85,-40.55 897.85,-45.45"/>
</g>
<!-- ellipsis -->
<g id="node9" class="node">
<title>ellipsis</title>
<path fill="#ffffff" stroke="transparent" stroke-width="1.2" d="M1075.67,-53C1075.67,-53 1070.33,-53 1070.33,-53 1067.67,-53 1065,-50.33 1065,-47.67 1065,-47.67 1065,-38.33 1065,-38.33 1065,-35.67 1067.67,-33 1070.33,-33 1070.33,-33 1075.67,-33 1075.67,-33 1078.33,-33 1081,-35.67 1081,-38.33 1081,-38.33 1081,-47.67 1081,-47.67 1081,-50.33 1078.33,-53 1075.67,-53"/>
<text text-anchor="middle" x="1073" y="-38.6" font-family="Helvetica,sans-Serif" font-size="18.00" fill="#555555">...</text>
</g>
<!-- e2_continue&#45;&gt;ellipsis -->
<g id="edge8" class="edge">
<title>e2_continue&#45;&gt;ellipsis</title>
<path fill="none" stroke="#4338ca" stroke-width="1.5" d="M1018.21,-43C1032.89,-43 1047.47,-43 1057.74,-43"/>
<polygon fill="#4338ca" stroke="#4338ca" stroke-width="1.5" points="1057.97,-45.45 1064.97,-43 1057.97,-40.55 1057.97,-45.45"/>
</g>
</g>
</svg>
