<?xml version="1.0" encoding="UTF-8" standalone="no"?>
<!DOCTYPE svg PUBLIC "-//W3C//DTD SVG 1.1//EN"
 "http://www.w3.org/Graphics/SVG/1.1/DTD/svg11.dtd">
<!-- Generated by graphviz version 2.43.0 (0)
 -->
<!-- Title: durable_observer Pages: 1 -->
<svg width="762pt" height="312pt"
 viewBox="0.00 0.00 762.00 312.00" xmlns="http://www.w3.org/2000/svg" xmlns:xlink="http://www.w3.org/1999/xlink">
<g id="graph0" class="graph" transform="scale(1 1) rotate(0) translate(36 276)">
<title>durable_observer</title>
<g id="clust1" class="cluster">
<title>cluster_sources</title>
<path fill="#f8f9fa" stroke="#555555" d="M20,-16C20,-16 86,-16 86,-16 92,-16 98,-22 98,-28 98,-28 98,-220 98,-220 98,-226 92,-232 86,-232 86,-232 20,-232 20,-232 14,-232 8,-226 8,-220 8,-220 8,-28 8,-28 8,-22 14,-16 20,-16"/>
<text text-anchor="middle" x="53" y="-219.2" font-family="Helvetica,sans-Serif" font-size="11.00" fill="#333333">Event Sources</text>
</g>
<g id="clust2" class="cluster">
<title>cluster_observer</title>
<path fill="#f8f9fa" stroke="#4338ca" stroke-width="1.5" d="M186,-8C186,-8 497,-8 497,-8 503,-8 509,-14 509,-20 509,-20 509,-156 509,-156 509,-162 503,-168 497,-168 497,-168 186,-168 186,-168 180,-168 174,-162 174,-156 174,-156 174,-20 174,-20 174,-14 180,-8 186,-8"/>
<text text-anchor="middle" x="341.5" y="-155.2" font-family="Helvetica,sans-Serif" font-size="11.00" fill="#4338ca">Observer Workflow &#160;(user&#45;{id})</text>
</g>
<!-- auth -->
<g id="node1" class="node">
<title>auth</title>
<path fill="#ffffff" stroke="#555555" stroke-width="1.2" d="M78,-204C78,-204 28,-204 28,-204 22,-204 16,-198 16,-192 16,-192 16,-180 16,-180 16,-174 22,-168 28,-168 28,-168 78,-168 78,-168 84,-168 90,-174 90,-180 90,-180 90,-192 90,-192 90,-198 84,-204 78,-204"/>
<text text-anchor="middle" x="53" y="-183.5" font-family="Helvetica,sans-Serif" font-size="10.00" fill="#333333">Auth Service</text>
</g>
<!-- events -->
<g id="node4" class="node">
<title>events</title>
<path fill="#ffffff" stroke="#4338ca" stroke-width="1.2" d="M282,-132C282,-132 202,-132 202,-132 196,-132 190,-126 190,-120 190,-120 190,-108 190,-108 190,-102 196,-96 202,-96 202,-96 282,-96 282,-96 288,-96 294,-102 294,-108 294,-108 294,-120 294,-120 294,-126 288,-132 282,-132"/>
<text text-anchor="middle" x="242" y="-117" font-family="Helvetica,sans-Serif" font-size="10.00" fill="#333333">Events Array</text>
<text text-anchor="middle" x="242" y="-106" font-family="Helvetica,sans-Serif" font-size="10.00" fill="#333333">[ auth, txn, geo, ... ]</text>
</g>
<!-- auth&#45;&gt;events -->
<g id="edge1" class="edge">
<title>auth&#45;&gt;events</title>
<path fill="none" stroke="#555555" d="M90.06,-172.12C111.97,-163.68 140.75,-152.6 167.31,-142.37"/>
<polygon fill="#555555" stroke="#555555" points="168.35,-144.6 174,-139.8 166.59,-140.02 168.35,-144.6"/>
<text text-anchor="middle" x="140" y="-160.8" font-family="Helvetica,sans-Serif" font-size="9.00" fill="#666666"> &#160;signal &#160;</text>
</g>
<!-- txn -->
<g id="node2" class="node">
<title>txn</title>
<path fill="#ffffff" stroke="#555555" stroke-width="1.2" d="M74.5,-132C74.5,-132 31.5,-132 31.5,-132 25.5,-132 19.5,-126 19.5,-120 19.5,-120 19.5,-108 19.5,-108 19.5,-102 25.5,-96 31.5,-96 31.5,-96 74.5,-96 74.5,-96 80.5,-96 86.5,-102 86.5,-108 86.5,-108 86.5,-120 86.5,-120 86.5,-126 80.5,-132 74.5,-132"/>
<text text-anchor="middle" x="53" y="-117" font-family="Helvetica,sans-Serif" font-size="10.00" fill="#333333">Transaction</text>
<text text-anchor="middle" x="53" y="-106" font-family="Helvetica,sans-Serif" font-size="10.00" fill="#333333">Service</text>
</g>
<!-- txn&#45;&gt;events -->
<g id="edge2" class="edge">
<title>txn&#45;&gt;events</title>
<path fill="none" stroke="#555555" d="M86.57,-114C108.77,-114 139.08,-114 166.97,-114"/>
<polygon fill="#555555" stroke="#555555" points="167,-116.45 174,-114 167,-111.55 167,-116.45"/>
<text text-anchor="middle" x="140" y="-116.8" font-family="Helvetica,sans-Serif" font-size="9.00" fill="#666666"> &#160;signal &#160;</text>
</g>
<!-- geo -->
<g id="node3" class="node">
<title>geo</title>
<path fill="#ffffff" stroke="#555555" stroke-width="1.2" d="M76.5,-60C76.5,-60 29.5,-60 29.5,-60 23.5,-60 17.5,-54 17.5,-48 17.5,-48 17.5,-36 17.5,-36 17.5,-30 23.5,-24 29.5,-24 29.5,-24 76.5,-24 76.5,-24 82.5,-24 88.5,-30 88.5,-36 88.5,-36 88.5,-48 88.5,-48 88.5,-54 82.5,-60 76.5,-60"/>
<text text-anchor="middle" x="53" y="-39.5" font-family="Helvetica,sans-Serif" font-size="10.00" fill="#333333">Geo Service</text>
</g>
<!-- geo&#45;&gt;events -->
<g id="edge3" class="edge">
<title>geo&#45;&gt;events</title>
<path fill="none" stroke="#555555" d="M88.74,-55.37C110.77,-63.86 140.13,-75.16 167.18,-85.58"/>
<polygon fill="#555555" stroke="#555555" points="166.59,-87.98 174,-88.21 168.35,-83.4 166.59,-87.98"/>
<text text-anchor="middle" x="140" y="-83.8" font-family="Helvetica,sans-Serif" font-size="9.00" fill="#666666"> &#160;signal &#160;</text>
</g>
<!-- rule -->
<g id="node6" class="node">
<title>rule</title>
<path fill="#4338ca" stroke="#4338ca" stroke-width="1.2" d="M481,-105C481,-105 418,-105 418,-105 412,-105 406,-99 406,-93 406,-93 406,-81 406,-81 406,-75 412,-69 418,-69 418,-69 481,-69 481,-69 487,-69 493,-75 493,-81 493,-81 493,-93 493,-93 493,-99 487,-105 481,-105"/>
<text text-anchor="middle" x="449.5" y="-90" font-family="Helvetica,sans-Serif" font-size="10.00" fill="#ffffff">Correlation Rule</text>
<text text-anchor="middle" x="449.5" y="-79" font-family="Helvetica,sans-Serif" font-size="10.00" fill="#ffffff">evaluate(events)</text>
</g>
<!-- events&#45;&gt;rule -->
<g id="edge5" class="edge">
<title>events&#45;&gt;rule</title>
<path fill="none" stroke="#4338ca" d="M294.06,-107.29C326,-103.09 366.95,-97.72 398.65,-93.55"/>
<polygon fill="#4338ca" stroke="#4338ca" points="399.06,-95.97 405.68,-92.63 398.42,-91.11 399.06,-95.97"/>
<text text-anchor="middle" x="350" y="-105.8" font-family="Helvetica,sans-Serif" font-size="9.00" fill="#4338ca"> &#160;evaluate &#160;</text>
</g>
<!-- timer -->
<g id="node5" class="node">
<title>timer</title>
<path fill="#ffffff" stroke="#999999" stroke-width="1.2" stroke-dasharray="5,2" d="M273,-60C273,-60 211,-60 211,-60 205,-60 199,-54 199,-48 199,-48 199,-36 199,-36 199,-30 205,-24 211,-24 211,-24 273,-24 273,-24 279,-24 285,-30 285,-36 285,-36 285,-48 285,-48 285,-54 279,-60 273,-60"/>
<text text-anchor="middle" x="242" y="-44.8" font-family="Helvetica,sans-Serif" font-size="9.00" fill="#666666">5&#45;min Window</text>
<text text-anchor="middle" x="242" y="-34.8" font-family="Helvetica,sans-Serif" font-size="9.00" fill="#666666">(timer / deadline)</text>
</g>
<!-- timer&#45;&gt;rule -->
<g id="edge4" class="edge">
<title>timer&#45;&gt;rule</title>
<path fill="none" stroke="#999999" stroke-dasharray="5,2" d="M285.08,-51.22C317.97,-58.42 363.78,-68.45 398.53,-76.06"/>
<polygon fill="#999999" stroke="#999999" points="398.41,-78.54 405.77,-77.64 399.45,-73.75 398.41,-78.54"/>
<text text-anchor="middle" x="350" y="-72.8" font-family="Helvetica,sans-Serif" font-size="9.00" fill="#999999"> &#160;deadline &#160;</text>
</g>
<!-- alert -->
<g id="node7" class="node">
<title>alert</title>
<path fill="#b91c1c" stroke="#b91c1c" stroke-width="1.2" d="M678,-105C678,-105 598,-105 598,-105 592,-105 586,-99 586,-93 586,-93 586,-81 586,-81 586,-75 592,-69 598,-69 598,-69 678,-69 678,-69 684,-69 690,-75 690,-81 690,-81 690,-93 690,-93 690,-99 684,-105 678,-105"/>
<text text-anchor="middle" x="638" y="-90" font-family="Helvetica,sans-Serif" font-size="10.00" fill="#ffffff">Alert</text>
<text text-anchor="middle" x="638" y="-79" font-family="Helvetica,sans-Serif" font-size="10.00" fill="#ffffff">(suspicious activity)</text>
</g>
<!-- rule&#45;&gt;alert -->
<g id="edge6" class="edge">
<title>rule&#45;&gt;alert</title>
<path fill="none" stroke="#b91c1c" d="M493.29,-87C518.56,-87 550.91,-87 578.51,-87"/>
<polygon fill="#b91c1c" stroke="#b91c1c" points="578.79,-89.45 585.79,-87 578.79,-84.55 578.79,-89.45"/>
<text text-anchor="middle" x="539.5" y="-89.8" font-family="Helvetica,sans-Serif" font-size="9.00" fill="#b91c1c"> &#160;fires &#160;</text>
</g>
</g>
</svg>
