<?xml version="1.0" encoding="UTF-8" standalone="no"?>
<!DOCTYPE svg PUBLIC "-//W3C//DTD SVG 1.1//EN"
 "http://www.w3.org/Graphics/SVG/1.1/DTD/svg11.dtd">
<!-- Generated by graphviz version 12.2.1 (20241206.2353)
 -->
<!-- Title: durable_observer Pages: 1 -->
<svg width="757pt" height="312pt"
 viewBox="0.00 0.00 757.25 312.00" xmlns="http://www.w3.org/2000/svg" xmlns:xlink="http://www.w3.org/1999/xlink">
<g id="graph0" class="graph" transform="scale(1 1) rotate(0) translate(36 276)">
<title>durable_observer</title>
<g id="clust1" class="cluster">
<title>cluster_sources</title>
<path fill="#f8f9fa" stroke="#555555" d="M20,-8C20,-8 84.25,-8 84.25,-8 90.25,-8 96.25,-14 96.25,-20 96.25,-20 96.25,-212 96.25,-212 96.25,-218 90.25,-224 84.25,-224 84.25,-224 20,-224 20,-224 14,-224 8,-218 8,-212 8,-212 8,-20 8,-20 8,-14 14,-8 20,-8"/>
<text text-anchor="middle" x="52.12" y="-209.55" font-family="Helvetica,sans-Serif" font-size="11.00" fill="#333333">Event Sources</text>
</g>
<g id="clust2" class="cluster">
<title>cluster_observer</title>
<path fill="#f8f9fa" stroke="#4338ca" stroke-width="1.5" d="M184,-72C184,-72 494,-72 494,-72 500,-72 506,-78 506,-84 506,-84 506,-220 506,-220 506,-226 500,-232 494,-232 494,-232 184,-232 184,-232 178,-232 172,-226 172,-220 172,-220 172,-84 172,-84 172,-78 178,-72 184,-72"/>
<text text-anchor="middle" x="339" y="-217.55" font-family="Helvetica,sans-Serif" font-size="11.00" fill="#4338ca">Observer Workflow &#160;(user&#45;{id})</text>
</g>
<!-- auth -->
<g id="node1" class="node">
<title>auth</title>
<path fill="#ffffff" stroke="#555555" stroke-width="1.2" d="M76.25,-196C76.25,-196 28,-196 28,-196 22,-196 16,-190 16,-184 16,-184 16,-172 16,-172 16,-166 22,-160 28,-160 28,-160 76.25,-160 76.25,-160 82.25,-160 88.25,-166 88.25,-172 88.25,-172 88.25,-184 88.25,-184 88.25,-190 82.25,-196 76.25,-196"/>
<text text-anchor="middle" x="52.12" y="-174.12" font-family="Helvetica,sans-Serif" font-size="10.00" fill="#333333">Auth Service</text>
</g>
<!-- events -->
<g id="node4" class="node">
<title>events</title>
<path fill="#ffffff" stroke="#4338ca" stroke-width="1.2" d="M279,-124C279,-124 200,-124 200,-124 194,-124 188,-118 188,-112 188,-112 188,-100 188,-100 188,-94 194,-88 200,-88 200,-88 279,-88 279,-88 285,-88 291,-94 291,-100 291,-100 291,-112 291,-112 291,-118 285,-124 279,-124"/>
<text text-anchor="middle" x="239.5" y="-107.75" font-family="Helvetica,sans-Serif" font-size="10.00" fill="#333333">Events Array</text>
<text text-anchor="middle" x="239.5" y="-96.5" font-family="Helvetica,sans-Serif" font-size="10.00" fill="#333333">[ auth, txn, geo, ... ]</text>
</g>
<!-- auth&#45;&gt;events -->
<g id="edge1" class="edge">
<title>auth&#45;&gt;events</title>
<path fill="none" stroke="#555555" d="M88.43,-164.29C109.9,-155.95 138.13,-144.98 164.32,-134.81"/>
<polygon fill="#555555" stroke="#555555" points="164.96,-137.19 170.59,-132.37 163.18,-132.63 164.96,-137.19"/>
<text text-anchor="middle" x="138.12" y="-151.77" font-family="Helvetica,sans-Serif" font-size="9.00" fill="#666666"> &#160;signal &#160;</text>
</g>
<!-- txn -->
<g id="node2" class="node">
<title>txn</title>
<path fill="#ffffff" stroke="#555555" stroke-width="1.2" d="M73.62,-124C73.62,-124 30.62,-124 30.62,-124 24.63,-124 18.62,-118 18.62,-112 18.62,-112 18.62,-100 18.62,-100 18.62,-94 24.62,-88 30.62,-88 30.62,-88 73.62,-88 73.62,-88 79.62,-88 85.62,-94 85.62,-100 85.62,-100 85.62,-112 85.62,-112 85.62,-118 79.62,-124 73.62,-124"/>
<text text-anchor="middle" x="52.12" y="-107.75" font-family="Helvetica,sans-Serif" font-size="10.00" fill="#333333">Transaction</text>
<text text-anchor="middle" x="52.12" y="-96.5" font-family="Helvetica,sans-Serif" font-size="10.00" fill="#333333">Service</text>
</g>
<!-- txn&#45;&gt;events -->
<g id="edge2" class="edge">
<title>txn&#45;&gt;events</title>
<path fill="none" stroke="#555555" d="M85.84,-106C107.42,-106 136.61,-106 163.68,-106"/>
<polygon fill="#555555" stroke="#555555" points="163.49,-108.45 170.49,-106 163.49,-103.55 163.49,-108.45"/>
<text text-anchor="middle" x="138.12" y="-107.2" font-family="Helvetica,sans-Serif" font-size="9.00" fill="#666666"> &#160;signal &#160;</text>
</g>
<!-- geo -->
<g id="node3" class="node">
<title>geo</title>
<path fill="#ffffff" stroke="#555555" stroke-width="1.2" d="M75.12,-52C75.12,-52 29.13,-52 29.13,-52 23.13,-52 17.12,-46 17.12,-40 17.12,-40 17.12,-28 17.12,-28 17.12,-22 23.12,-16 29.12,-16 29.12,-16 75.12,-16 75.12,-16 81.12,-16 87.12,-22 87.12,-28 87.12,-28 87.12,-40 87.12,-40 87.12,-46 81.12,-52 75.12,-52"/>
<text text-anchor="middle" x="52.12" y="-30.12" font-family="Helvetica,sans-Serif" font-size="10.00" fill="#333333">Geo Service</text>
</g>
<!-- geo&#45;&gt;events -->
<g id="edge3" class="edge">
<title>geo&#45;&gt;events</title>
<path fill="none" stroke="#555555" d="M87.56,-47.37C109.1,-55.74 137.71,-66.85 164.22,-77.15"/>
<polygon fill="#555555" stroke="#555555" points="163.18,-79.37 170.59,-79.62 164.95,-74.81 163.18,-79.37"/>
<text text-anchor="middle" x="138.12" y="-73.36" font-family="Helvetica,sans-Serif" font-size="9.00" fill="#666666"> &#160;signal &#160;</text>
</g>
<!-- rule -->
<g id="node6" class="node">
<title>rule</title>
<path fill="#4338ca" stroke="#4338ca" stroke-width="1.2" d="M478,-169C478,-169 414,-169 414,-169 408,-169 402,-163 402,-157 402,-157 402,-145 402,-145 402,-139 408,-133 414,-133 414,-133 478,-133 478,-133 484,-133 490,-139 490,-145 490,-145 490,-157 490,-157 490,-163 484,-169 478,-169"/>
<text text-anchor="middle" x="446" y="-152.75" font-family="Helvetica,sans-Serif" font-size="10.00" fill="#ffffff">Correlation Rule</text>
<text text-anchor="middle" x="446" y="-141.5" font-family="Helvetica,sans-Serif" font-size="10.00" fill="#ffffff">evaluate(events)</text>
</g>
<!-- events&#45;&gt;rule -->
<g id="edge5" class="edge">
<title>events&#45;&gt;rule</title>
<path fill="none" stroke="#4338ca" d="M291.31,-117.18C322.48,-124.04 362.26,-132.79 393.54,-139.68"/>
<polygon fill="#4338ca" stroke="#4338ca" points="392.87,-142.04 400.24,-141.15 393.93,-137.25 392.87,-142.04"/>
<text text-anchor="middle" x="346.5" y="-135.05" font-family="Helvetica,sans-Serif" font-size="9.00" fill="#4338ca"> &#160;evaluate &#160;</text>
</g>
<!-- timer -->
<g id="node5" class="node">
<title>timer</title>
<path fill="#ffffff" stroke="#999999" stroke-width="1.2" stroke-dasharray="5,2" d="M270,-196C270,-196 209,-196 209,-196 203,-196 197,-190 197,-184 197,-184 197,-172 197,-172 197,-166 203,-160 209,-160 209,-160 270,-160 270,-160 276,-160 282,-166 282,-172 282,-172 282,-184 282,-184 282,-190 276,-196 270,-196"/>
<text text-anchor="middle" x="239.5" y="-179.2" font-family="Helvetica,sans-Serif" font-size="9.00" fill="#666666">5&#45;min Window</text>
<text text-anchor="middle" x="239.5" y="-169.45" font-family="Helvetica,sans-Serif" font-size="9.00" fill="#666666">(timer / deadline)</text>
</g>
<!-- timer&#45;&gt;rule -->
<g id="edge4" class="edge">
<title>timer&#45;&gt;rule</title>
<path fill="none" stroke="#999999" stroke-dasharray="5,2" d="M282.38,-172.47C314.62,-168.21 359.33,-162.31 393.71,-157.77"/>
<polygon fill="#999999" stroke="#999999" points="393.65,-160.25 400.27,-156.91 393.01,-155.39 393.65,-160.25"/>
<text text-anchor="middle" x="346.5" y="-168.12" font-family="Helvetica,sans-Serif" font-size="9.00" fill="#999999"> &#160;deadline &#160;</text>
</g>
<!-- alert -->
<g id="node7" class="node">
<title>alert</title>
<path fill="#b91c1c" stroke="#b91c1c" stroke-width="1.2" d="M673.25,-169C673.25,-169 594.25,-169 594.25,-169 588.25,-169 582.25,-163 582.25,-157 582.25,-157 582.25,-145 582.25,-145 582.25,-139 588.25,-133 594.25,-133 594.25,-133 673.25,-133 673.25,-133 679.25,-133 685.25,-139 685.25,-145 685.25,-145 685.25,-157 685.25,-157 685.25,-163 679.25,-169 673.25,-169"/>
<text text-anchor="middle" x="633.75" y="-152.75" font-family="Helvetica,sans-Serif" font-size="10.00" fill="#ffffff">Alert</text>
<text text-anchor="middle" x="633.75" y="-141.5" font-family="Helvetica,sans-Serif" font-size="10.00" fill="#ffffff">(suspicious activity)</text>
</g>
<!-- rule&#45;&gt;alert -->
<g id="edge6" class="edge">
<title>rule&#45;&gt;alert</title>
<path fill="none" stroke="#b91c1c" d="M490.08,-151C514.95,-151 546.57,-151 573.72,-151"/>
<polygon fill="#b91c1c" stroke="#b91c1c" points="573.48,-153.45 580.48,-151 573.48,-148.55 573.48,-153.45"/>
<text text-anchor="middle" x="536.12" y="-152.2" font-family="Helvetica,sans-Serif" font-size="9.00" fill="#b91c1c"> &#160;fires &#160;</text>
</g>
</g>
</svg>
