<?xml version="1.0" encoding="UTF-8" standalone="no"?>
<!DOCTYPE svg PUBLIC "-//W3C//DTD SVG 1.1//EN"
 "http://www.w3.org/Graphics/SVG/1.1/DTD/svg11.dtd">
<!-- Generated by graphviz version 12.2.1 (20241206.2353)
 -->
<!-- Title: cross_boundary_nexus Pages: 1 -->
<svg width="1432pt" height="321pt"
 viewBox="0.00 0.00 1432.18 321.07" xmlns="http://www.w3.org/2000/svg" xmlns:xlink="http://www.w3.org/1999/xlink">
<g id="graph0" class="graph" transform="scale(1 1) rotate(0) translate(28.8 292.27)">
<title>cross_boundary_nexus</title>
<g id="clust1" class="cluster">
<title>cluster_ns_a</title>
<path fill="#f8f9fa" stroke="#555555" stroke-width="1.5" d="M20,-69.47C20,-69.47 399.5,-69.47 399.5,-69.47 405.5,-69.47 411.5,-75.47 411.5,-81.47 411.5,-81.47 411.5,-171.47 411.5,-171.47 411.5,-177.47 405.5,-183.47 399.5,-183.47 399.5,-183.47 20,-183.47 20,-183.47 14,-183.47 8,-177.47 8,-171.47 8,-171.47 8,-81.47 8,-81.47 8,-75.47 14,-69.47 20,-69.47"/>
<text text-anchor="middle" x="209.75" y="-165.22" font-family="Helvetica,sans-Serif" font-size="15.00" fill="#333333">Namespace A &#160;(Orders)</text>
</g>
<g id="clust2" class="cluster">
<title>cluster_ns_b</title>
<path fill="#f8f9fa" stroke="#555555" stroke-width="1.5" d="M988.21,-141.47C988.21,-141.47 1354.58,-141.47 1354.58,-141.47 1360.58,-141.47 1366.58,-147.47 1366.58,-153.47 1366.58,-153.47 1366.58,-243.47 1366.58,-243.47 1366.58,-249.47 1360.58,-255.47 1354.58,-255.47 1354.58,-255.47 988.21,-255.47 988.21,-255.47 982.21,-255.47 976.21,-249.47 976.21,-243.47 976.21,-243.47 976.21,-153.47 976.21,-153.47 976.21,-147.47 982.21,-141.47 988.21,-141.47"/>
<text text-anchor="middle" x="1171.4" y="-237.22" font-family="Helvetica,sans-Serif" font-size="15.00" fill="#333333">Namespace B &#160;(Fulfillment)</text>
</g>
<!-- order_wf -->
<g id="node1" class="node">
<title>order_wf</title>
<path fill="#ffffff" stroke="#555555" stroke-width="1.2" d="M100.75,-143.22C100.75,-143.22 36,-143.22 36,-143.22 30,-143.22 24,-137.22 24,-131.22 24,-131.22 24,-109.72 24,-109.72 24,-103.72 30,-97.72 36,-97.72 36,-97.72 100.75,-97.72 100.75,-97.72 106.75,-97.72 112.75,-103.72 112.75,-109.72 112.75,-109.72 112.75,-131.22 112.75,-131.22 112.75,-137.22 106.75,-143.22 100.75,-143.22"/>
<text text-anchor="middle" x="68.38" y="-122.12" font-family="Helvetica,sans-Serif" font-size="18.00" fill="#333333">Order</text>
<text text-anchor="middle" x="68.38" y="-103.37" font-family="Helvetica,sans-Serif" font-size="18.00" fill="#333333">Workflow</text>
</g>
<!-- exec_op -->
<g id="node2" class="node">
<title>exec_op</title>
<path fill="#ffffff" stroke="#555555" stroke-width="1.2" d="M383.5,-143.97C383.5,-143.97 292.5,-143.97 292.5,-143.97 286.5,-143.97 280.5,-137.97 280.5,-131.97 280.5,-131.97 280.5,-114.97 280.5,-114.97 280.5,-108.97 286.5,-102.97 292.5,-102.97 292.5,-102.97 383.5,-102.97 383.5,-102.97 389.5,-102.97 395.5,-108.97 395.5,-114.97 395.5,-114.97 395.5,-131.97 395.5,-131.97 395.5,-137.97 389.5,-143.97 383.5,-143.97"/>
<text text-anchor="middle" x="338" y="-126.67" font-family="Courier,monospace" font-size="14.00" fill="#333333">ExecuteNexus</text>
<text text-anchor="middle" x="338" y="-110.17" font-family="Courier,monospace" font-size="14.00" fill="#333333">Operation</text>
</g>
<!-- order_wf&#45;&gt;exec_op -->
<g id="edge1" class="edge">
<title>order_wf&#45;&gt;exec_op</title>
<path fill="none" stroke="#555555" d="M112.97,-120.96C156.09,-121.44 222.62,-122.19 271.98,-122.74"/>
<polygon fill="#555555" stroke="#555555" points="271.83,-125.19 278.86,-122.82 271.89,-120.29 271.83,-125.19"/>
<text text-anchor="middle" x="196.62" y="-126.03" font-family="Helvetica,sans-Serif" font-size="14.00" fill="#666666"> &#160;FulfillOrder &#160;</text>
</g>
<!-- nexus_ep -->
<g id="node3" class="node">
<title>nexus_ep</title>
<path fill="#4338ca" stroke="#4338ca" stroke-width="1.5" d="M728.25,-132.34C728.25,-132.34 716.15,-145.63 716.15,-145.63 712.1,-150.06 702.06,-154.5 696.06,-154.5 696.06,-154.5 663.52,-154.5 663.52,-154.5 657.52,-154.5 647.48,-150.06 643.44,-145.63 643.44,-145.63 631.33,-132.34 631.33,-132.34 627.29,-127.9 627.29,-119.03 631.33,-114.6 631.33,-114.6 643.44,-101.31 643.44,-101.31 647.48,-96.88 657.52,-92.44 663.52,-92.44 663.52,-92.44 696.06,-92.44 696.06,-92.44 702.06,-92.44 712.1,-96.88 716.15,-101.31 716.15,-101.31 728.25,-114.6 728.25,-114.6 732.29,-119.03 732.29,-127.9 728.25,-132.34"/>
<text text-anchor="middle" x="679.79" y="-125.17" font-family="Helvetica,sans-Serif" font-size="14.00" fill="#ffffff">Nexus</text>
<text text-anchor="middle" x="679.79" y="-110.17" font-family="Helvetica,sans-Serif" font-size="14.00" fill="#ffffff">Endpoint</text>
</g>
<!-- exec_op&#45;&gt;nexus_ep -->
<g id="edge3" class="edge">
<title>exec_op&#45;&gt;nexus_ep</title>
<path fill="none" stroke="#4338ca" stroke-width="1.5" d="M395.87,-123.47C455.93,-123.47 550.46,-123.47 613.52,-123.47"/>
<polygon fill="#4338ca" stroke="#4338ca" stroke-width="1.5" points="613.31,-125.92 620.31,-123.47 613.31,-121.02 613.31,-125.92"/>
<text text-anchor="middle" x="509.38" y="-127.17" font-family="Helvetica,sans-Serif" font-size="14.00" fill="#4338ca"> &#160;FulfillOrder operation &#160;</text>
</g>
<!-- handler -->
<g id="node4" class="node">
<title>handler</title>
<path fill="#ffffff" stroke="#555555" stroke-width="1.2" d="M1053.96,-211.97C1053.96,-211.97 1004.21,-211.97 1004.21,-211.97 998.21,-211.97 992.21,-205.97 992.21,-199.97 992.21,-199.97 992.21,-182.97 992.21,-182.97 992.21,-176.97 998.21,-170.97 1004.21,-170.97 1004.21,-170.97 1053.96,-170.97 1053.96,-170.97 1059.96,-170.97 1065.96,-176.97 1065.96,-182.97 1065.96,-182.97 1065.96,-199.97 1065.96,-199.97 1065.96,-205.97 1059.96,-211.97 1053.96,-211.97"/>
<text text-anchor="middle" x="1029.08" y="-194.67" font-family="Courier,monospace" font-size="14.00" fill="#333333">Nexus</text>
<text text-anchor="middle" x="1029.08" y="-178.17" font-family="Courier,monospace" font-size="14.00" fill="#333333">Handler</text>
</g>
<!-- nexus_ep&#45;&gt;handler -->
<g id="edge4" class="edge">
<title>nexus_ep&#45;&gt;handler</title>
<path fill="none" stroke="#4338ca" stroke-width="1.5" d="M728.35,-132.78C795.51,-145.93 917.25,-169.77 983.02,-182.65"/>
<polygon fill="#4338ca" stroke="#4338ca" stroke-width="1.5" points="982.35,-185.01 989.69,-183.95 983.29,-180.2 982.35,-185.01"/>
<text text-anchor="middle" x="837.46" y="-167.26" font-family="Helvetica,sans-Serif" font-size="14.00" fill="#4338ca"> &#160;routes to handler &#160;</text>
</g>
<!-- contract -->
<g id="node6" class="node">
<title>contract</title>
<polygon fill="#ffffff" stroke="#999999" stroke-width="1.2" points="1113.58,-124.97 938.58,-124.97 938.58,-59.97 1119.58,-59.97 1119.58,-118.97 1113.58,-124.97"/>
<polyline fill="none" stroke="#999999" stroke-width="1.2" points="1113.58,-124.97 1113.58,-118.97"/>
<polyline fill="none" stroke="#999999" stroke-width="1.2" points="1119.58,-118.97 1113.58,-118.97"/>
<text text-anchor="middle" x="1029.08" y="-109.57" font-family="Courier,monospace" font-size="12.00" fill="#666666">Operation Contract</text>
<text text-anchor="middle" x="1029.08" y="-95.32" font-family="Courier,monospace" font-size="12.00" fill="#666666">─────────────────</text>
<text text-anchor="middle" x="1029.08" y="-81.07" font-family="Courier,monospace" font-size="12.00" fill="#666666">Input: &#160;OrderRequest</text>
<text text-anchor="middle" x="1029.08" y="-66.82" font-family="Courier,monospace" font-size="12.00" fill="#666666">Output: TrackingNumber</text>
</g>
<!-- nexus_ep&#45;&gt;contract -->
<g id="edge6" class="edge">
<title>nexus_ep&#45;&gt;contract</title>
<path fill="none" stroke="#999999" stroke-dasharray="1,5" d="M732.41,-118.86C786.64,-114.02 872.98,-106.31 938.39,-100.48"/>
</g>
<!-- fulfill_wf -->
<g id="node5" class="node">
<title>fulfill_wf</title>
<path fill="#ffffff" stroke="#555555" stroke-width="1.2" d="M1338.58,-215.22C1338.58,-215.22 1265.58,-215.22 1265.58,-215.22 1259.58,-215.22 1253.58,-209.22 1253.58,-203.22 1253.58,-203.22 1253.58,-181.72 1253.58,-181.72 1253.58,-175.72 1259.58,-169.72 1265.58,-169.72 1265.58,-169.72 1338.58,-169.72 1338.58,-169.72 1344.58,-169.72 1350.58,-175.72 1350.58,-181.72 1350.58,-181.72 1350.58,-203.22 1350.58,-203.22 1350.58,-209.22 1344.58,-215.22 1338.58,-215.22"/>
<text text-anchor="middle" x="1302.08" y="-194.12" font-family="Helvetica,sans-Serif" font-size="18.00" fill="#333333">Fulfillment</text>
<text text-anchor="middle" x="1302.08" y="-175.37" font-family="Helvetica,sans-Serif" font-size="18.00" fill="#333333">Workflow</text>
</g>
<!-- handler&#45;&gt;fulfill_wf -->
<g id="edge2" class="edge">
<title>handler&#45;&gt;fulfill_wf</title>
<path fill="none" stroke="#555555" d="M1066.35,-191.6C1112.08,-191.77 1191.18,-192.06 1244.79,-192.26"/>
<polygon fill="#555555" stroke="#555555" points="1244.64,-194.71 1251.65,-192.29 1244.66,-189.81 1244.64,-194.71"/>
<text text-anchor="middle" x="1186.58" y="-195.82" font-family="Helvetica,sans-Serif" font-size="14.00" fill="#666666"> &#160;starts &#160;</text>
</g>
<!-- fulfill_wf&#45;&gt;exec_op -->
<g id="edge5" class="edge">
<title>fulfill_wf&#45;&gt;exec_op</title>
<path fill="none" stroke="#047857" stroke-dasharray="5,2" d="M1283.27,-169.29C1253.84,-133.13 1191.16,-64.74 1119.58,-38.47 863.62,55.49 531.13,-49.26 397.94,-99.57"/>
<polygon fill="#047857" stroke="#047857" points="397.31,-97.19 391.64,-101.97 399.05,-101.77 397.31,-97.19"/>
<text text-anchor="middle" x="837.46" y="-9.64" font-family="Helvetica,sans-Serif" font-size="14.00" fill="#047857"> &#160;tracking number &#160;</text>
</g>
</g>
</svg>
