<?xml version="1.0" encoding="UTF-8" standalone="no"?>
<!DOCTYPE svg PUBLIC "-//W3C//DTD SVG 1.1//EN"
 "http://www.w3.org/Graphics/SVG/1.1/DTD/svg11.dtd">
<!-- Generated by graphviz version 2.43.0 (0)
 -->
<!-- Title: cross_boundary_nexus Pages: 1 -->
<svg width="1438pt" height="315pt"
 viewBox="0.00 0.00 1437.91 314.69" xmlns="http://www.w3.org/2000/svg" xmlns:xlink="http://www.w3.org/1999/xlink">
<g id="graph0" class="graph" transform="scale(1 1) rotate(0) translate(28.8 285.89)">
<title>cross_boundary_nexus</title>
<g id="clust1" class="cluster">
<title>cluster_ns_a</title>
<path fill="#f8f9fa" stroke="#555555" stroke-width="1.5" d="M20,-66.09C20,-66.09 401,-66.09 401,-66.09 407,-66.09 413,-72.09 413,-78.09 413,-78.09 413,-169.09 413,-169.09 413,-175.09 407,-181.09 401,-181.09 401,-181.09 20,-181.09 20,-181.09 14,-181.09 8,-175.09 8,-169.09 8,-169.09 8,-78.09 8,-78.09 8,-72.09 14,-66.09 20,-66.09"/>
<text text-anchor="middle" x="210.5" y="-165.09" font-family="Helvetica,sans-Serif" font-size="15.00" fill="#333333">Namespace A &#160;(Orders)</text>
</g>
<g id="clust2" class="cluster">
<title>cluster_ns_b</title>
<path fill="#f8f9fa" stroke="#555555" stroke-width="1.5" d="M992.31,-134.09C992.31,-134.09 1360.31,-134.09 1360.31,-134.09 1366.31,-134.09 1372.31,-140.09 1372.31,-146.09 1372.31,-146.09 1372.31,-237.09 1372.31,-237.09 1372.31,-243.09 1366.31,-249.09 1360.31,-249.09 1360.31,-249.09 992.31,-249.09 992.31,-249.09 986.31,-249.09 980.31,-243.09 980.31,-237.09 980.31,-237.09 980.31,-146.09 980.31,-146.09 980.31,-140.09 986.31,-134.09 992.31,-134.09"/>
<text text-anchor="middle" x="1176.31" y="-233.09" font-family="Helvetica,sans-Serif" font-size="15.00" fill="#333333">Namespace B &#160;(Fulfillment)</text>
</g>
<!-- order_wf -->
<g id="node1" class="node">
<title>order_wf</title>
<path fill="#ffffff" stroke="#555555" stroke-width="1.2" d="M101,-140.09C101,-140.09 36,-140.09 36,-140.09 30,-140.09 24,-134.09 24,-128.09 24,-128.09 24,-104.09 24,-104.09 24,-98.09 30,-92.09 36,-92.09 36,-92.09 101,-92.09 101,-92.09 107,-92.09 113,-98.09 113,-104.09 113,-104.09 113,-128.09 113,-128.09 113,-134.09 107,-140.09 101,-140.09"/>
<text text-anchor="middle" x="68.5" y="-121.69" font-family="Helvetica,sans-Serif" font-size="18.00" fill="#333333">Order</text>
<text text-anchor="middle" x="68.5" y="-101.69" font-family="Helvetica,sans-Serif" font-size="18.00" fill="#333333">Workflow</text>
</g>
<!-- exec_op -->
<g id="node2" class="node">
<title>exec_op</title>
<path fill="#ffffff" stroke="#555555" stroke-width="1.2" d="M385,-140.09C385,-140.09 293,-140.09 293,-140.09 287,-140.09 281,-134.09 281,-128.09 281,-128.09 281,-114.09 281,-114.09 281,-108.09 287,-102.09 293,-102.09 293,-102.09 385,-102.09 385,-102.09 391,-102.09 397,-108.09 397,-114.09 397,-114.09 397,-128.09 397,-128.09 397,-134.09 391,-140.09 385,-140.09"/>
<text text-anchor="middle" x="339" y="-124.89" font-family="Courier,monospace" font-size="14.00" fill="#333333">ExecuteNexus</text>
<text text-anchor="middle" x="339" y="-109.89" font-family="Courier,monospace" font-size="14.00" fill="#333333">Operation</text>
</g>
<!-- order_wf&#45;&gt;exec_op -->
<g id="edge1" class="edge">
<title>order_wf&#45;&gt;exec_op</title>
<path fill="none" stroke="#555555" d="M113.24,-116.9C156.72,-117.71 223.91,-118.96 273.51,-119.89"/>
<polygon fill="#555555" stroke="#555555" points="273.65,-122.34 280.7,-120.02 273.74,-117.44 273.65,-122.34"/>
<text text-anchor="middle" x="197" y="-124.89" font-family="Helvetica,sans-Serif" font-size="14.00" fill="#666666"> &#160;FulfillOrder &#160;</text>
</g>
<!-- nexus_ep -->
<g id="node3" class="node">
<title>nexus_ep</title>
<path fill="#4338ca" stroke="#4338ca" stroke-width="1.5" d="M731.33,-129.91C731.33,-129.91 718.95,-143.32 718.95,-143.32 714.88,-147.73 704.81,-152.14 698.81,-152.14 698.81,-152.14 665.5,-152.14 665.5,-152.14 659.5,-152.14 649.43,-147.73 645.36,-143.32 645.36,-143.32 632.98,-129.91 632.98,-129.91 628.91,-125.5 628.91,-116.68 632.98,-112.27 632.98,-112.27 645.36,-98.85 645.36,-98.85 649.43,-94.45 659.5,-90.04 665.5,-90.04 665.5,-90.04 698.81,-90.04 698.81,-90.04 704.81,-90.04 714.88,-94.45 718.95,-98.85 718.95,-98.85 731.33,-112.27 731.33,-112.27 735.4,-116.68 735.4,-125.5 731.33,-129.91"/>
<text text-anchor="middle" x="682.15" y="-124.89" font-family="Helvetica,sans-Serif" font-size="14.00" fill="#ffffff">Nexus</text>
<text text-anchor="middle" x="682.15" y="-109.89" font-family="Helvetica,sans-Serif" font-size="14.00" fill="#ffffff">Endpoint</text>
</g>
<!-- exec_op&#45;&gt;nexus_ep -->
<g id="edge3" class="edge">
<title>exec_op&#45;&gt;nexus_ep</title>
<path fill="none" stroke="#4338ca" stroke-width="1.5" d="M397.1,-121.09C458.01,-121.09 554.26,-121.09 617.55,-121.09"/>
<polygon fill="#4338ca" stroke="#4338ca" stroke-width="1.5" points="617.72,-123.54 624.72,-121.09 617.72,-118.64 617.72,-123.54"/>
<text text-anchor="middle" x="511" y="-126.89" font-family="Helvetica,sans-Serif" font-size="14.00" fill="#4338ca"> &#160;FulfillOrder operation &#160;</text>
</g>
<!-- handler -->
<g id="node4" class="node">
<title>handler</title>
<path fill="#ffffff" stroke="#555555" stroke-width="1.2" d="M1058.31,-203.09C1058.31,-203.09 1008.31,-203.09 1008.31,-203.09 1002.31,-203.09 996.31,-197.09 996.31,-191.09 996.31,-191.09 996.31,-177.09 996.31,-177.09 996.31,-171.09 1002.31,-165.09 1008.31,-165.09 1008.31,-165.09 1058.31,-165.09 1058.31,-165.09 1064.31,-165.09 1070.31,-171.09 1070.31,-177.09 1070.31,-177.09 1070.31,-191.09 1070.31,-191.09 1070.31,-197.09 1064.31,-203.09 1058.31,-203.09"/>
<text text-anchor="middle" x="1033.31" y="-187.89" font-family="Courier,monospace" font-size="14.00" fill="#333333">Nexus</text>
<text text-anchor="middle" x="1033.31" y="-172.89" font-family="Courier,monospace" font-size="14.00" fill="#333333">Handler</text>
</g>
<!-- nexus_ep&#45;&gt;handler -->
<g id="edge4" class="edge">
<title>nexus_ep&#45;&gt;handler</title>
<path fill="none" stroke="#4338ca" stroke-width="1.5" d="M731.7,-129.85C800.13,-142.2 923.88,-164.52 989.22,-176.31"/>
<polygon fill="#4338ca" stroke="#4338ca" stroke-width="1.5" points="988.8,-178.73 996.12,-177.56 989.67,-173.91 988.8,-178.73"/>
<text text-anchor="middle" x="840.81" y="-164.89" font-family="Helvetica,sans-Serif" font-size="14.00" fill="#4338ca"> &#160;routes to handler &#160;</text>
</g>
<!-- contract -->
<g id="node6" class="node">
<title>contract</title>
<polygon fill="#ffffff" stroke="#999999" stroke-width="1.2" points="1118.31,-118.09 942.31,-118.09 942.31,-58.09 1124.31,-58.09 1124.31,-112.09 1118.31,-118.09"/>
<polyline fill="none" stroke="#999999" stroke-width="1.2" points="1118.31,-118.09 1118.31,-112.09 "/>
<polyline fill="none" stroke="#999999" stroke-width="1.2" points="1124.31,-112.09 1118.31,-112.09 "/>
<text text-anchor="middle" x="1033.31" y="-104.49" font-family="Courier,monospace" font-size="12.00" fill="#666666">Operation Contract</text>
<text text-anchor="middle" x="1033.31" y="-91.49" font-family="Courier,monospace" font-size="12.00" fill="#666666">─────────────────</text>
<text text-anchor="middle" x="1033.31" y="-78.49" font-family="Courier,monospace" font-size="12.00" fill="#666666">Input: &#160;OrderRequest</text>
<text text-anchor="middle" x="1033.31" y="-65.49" font-family="Courier,monospace" font-size="12.00" fill="#666666">Output: TrackingNumber</text>
</g>
<!-- nexus_ep&#45;&gt;contract -->
<g id="edge6" class="edge">
<title>nexus_ep&#45;&gt;contract</title>
<path fill="none" stroke="#999999" stroke-dasharray="1,5" d="M735.05,-116.18C789.57,-111.03 876.37,-102.83 942.13,-96.61"/>
</g>
<!-- fulfill_wf -->
<g id="node5" class="node">
<title>fulfill_wf</title>
<path fill="#ffffff" stroke="#555555" stroke-width="1.2" d="M1344.31,-208.09C1344.31,-208.09 1271.31,-208.09 1271.31,-208.09 1265.31,-208.09 1259.31,-202.09 1259.31,-196.09 1259.31,-196.09 1259.31,-172.09 1259.31,-172.09 1259.31,-166.09 1265.31,-160.09 1271.31,-160.09 1271.31,-160.09 1344.31,-160.09 1344.31,-160.09 1350.31,-160.09 1356.31,-166.09 1356.31,-172.09 1356.31,-172.09 1356.31,-196.09 1356.31,-196.09 1356.31,-202.09 1350.31,-208.09 1344.31,-208.09"/>
<text text-anchor="middle" x="1307.81" y="-189.69" font-family="Helvetica,sans-Serif" font-size="18.00" fill="#333333">Fulfillment</text>
<text text-anchor="middle" x="1307.81" y="-169.69" font-family="Helvetica,sans-Serif" font-size="18.00" fill="#333333">Workflow</text>
</g>
<!-- handler&#45;&gt;fulfill_wf -->
<g id="edge2" class="edge">
<title>handler&#45;&gt;fulfill_wf</title>
<path fill="none" stroke="#555555" d="M1070.5,-184.09C1116.91,-184.09 1197.86,-184.09 1251.89,-184.09"/>
<polygon fill="#555555" stroke="#555555" points="1252,-186.54 1259,-184.09 1252,-181.64 1252,-186.54"/>
<text text-anchor="middle" x="1191.81" y="-189.89" font-family="Helvetica,sans-Serif" font-size="14.00" fill="#666666"> &#160;starts &#160;</text>
</g>
<!-- fulfill_wf&#45;&gt;exec_op -->
<g id="edge5" class="edge">
<title>fulfill_wf&#45;&gt;exec_op</title>
<path fill="none" stroke="#047857" stroke-dasharray="5,2" d="M1286.88,-159.94C1256.23,-124.92 1193.76,-61.58 1124.31,-37.09 862.94,55.08 524.66,-50.97 394.41,-99.45"/>
<polygon fill="#047857" stroke="#047857" points="393.32,-97.24 387.62,-101.99 395.04,-101.83 393.32,-97.24"/>
<text text-anchor="middle" x="840.81" y="-11.89" font-family="Helvetica,sans-Serif" font-size="14.00" fill="#047857"> &#160;tracking number &#160;</text>
</g>
</g>
</svg>
