<?xml version="1.0" encoding="utf-8" ?>
<svg baseProfile="full" height="230" version="1.1" viewBox="0 0 900 230" width="900" xmlns="http://www.w3.org/2000/svg" xmlns:ev="http://www.w3.org/2001/xml-events" xmlns:xlink="http://www.w3.org/1999/xlink"><defs /><style type="text/css"><![CDATA[text { font-family: Helvetica, Arial, sans-serif; }]]></style><line stroke="#999999" stroke-width="1.5" x1="45" x2="840" y1="115" y2="115" /><circle cx="65.0" cy="115" fill="#555555" r="4.5" /><line stroke="#999999" stroke-width="0.8" x1="65.0" x2="65.0" y1="115" y2="75" /><text fill="#333333" font-size="13" font-weight="500" text-anchor="middle" x="65.0" y="65">A Pattern Language</text><text fill="#666666" font-size="11" text-anchor="middle" x="65.0" y="81">Alexander</text><text fill="#666666" font-size="10" text-anchor="middle" x="65.0" y="133">1977</text><circle cx="190.83333333333331" cy="115" fill="#555555" r="4.5" /><line stroke="#999999" stroke-width="0.8" x1="190.83333333333331" x2="190.83333333333331" y1="115" y2="155" /><text fill="#333333" font-size="13" font-weight="500" text-anchor="middle" x="190.83333333333331" y="173">Patterns in Smalltalk</text><text fill="#666666" font-size="11" text-anchor="middle" x="190.83333333333331" y="189">Beck &amp; Cunningham</text><text fill="#666666" font-size="10" text-anchor="middle" x="190.83333333333331" y="105">1987</text><circle cx="316.66666666666663" cy="115" fill="#555555" r="4.5" /><line stroke="#999999" stroke-width="0.8" x1="316.66666666666663" x2="316.66666666666663" y1="115" y2="75" /><text fill="#333333" font-size="13" font-weight="500" text-anchor="middle" x="316.66666666666663" y="65">Design Patterns</text><text fill="#666666" font-size="11" text-anchor="middle" x="316.66666666666663" y="81">GoF</text><text fill="#666666" font-size="10" text-anchor="middle" x="316.66666666666663" y="133">1994</text><circle cx="442.5" cy="115" fill="#555555" r="4.5" /><line stroke="#999999" stroke-width="0.8" x1="442.5" x2="442.5" y1="115" y2="155" /><text fill="#333333" font-size="13" font-weight="500" text-anchor="middle" x="442.5" y="173">Reactor / Proactor</text><text fill="#666666" font-size="11" text-anchor="middle" x="442.5" y="189">Schmidt</text><text fill="#666666" font-size="10" text-anchor="middle" x="442.5" y="105">1996</text><circle cx="568.3333333333333" cy="115" fill="#555555" r="4.5" /><line stroke="#999999" stroke-width="0.8" x1="568.3333333333333" x2="568.3333333333333" y1="115" y2="75" /><text fill="#333333" font-size="13" font-weight="500" text-anchor="middle" x="568.3333333333333" y="65">Enterprise Integration</text><text fill="#666666" font-size="11" text-anchor="middle" x="568.3333333333333" y="81">Hohpe &amp; Woolf</text><text fill="#666666" font-size="10" text-anchor="middle" x="568.3333333333333" y="133">2003</text><circle cx="694.1666666666666" cy="115" fill="#555555" r="4.5" /><line stroke="#999999" stroke-width="0.8" x1="694.1666666666666" x2="694.1666666666666" y1="115" y2="155" /><text fill="#333333" font-size="13" font-weight="500" text-anchor="middle" x="694.1666666666666" y="173">Release It!</text><text fill="#666666" font-size="11" text-anchor="middle" x="694.1666666666666" y="189">Nygard</text><text fill="#666666" font-size="10" text-anchor="middle" x="694.1666666666666" y="105">2007</text><circle cx="820.0" cy="115" fill="#555555" r="4.5" /><line stroke="#999999" stroke-width="0.8" x1="820.0" x2="820.0" y1="115" y2="75" /><text fill="#333333" font-size="13" font-weight="500" text-anchor="middle" x="820.0" y="65">CQRS &amp; Event Sourcing</text><text fill="#666666" font-size="11" text-anchor="middle" x="820.0" y="81">Young</text><text fill="#666666" font-size="10" text-anchor="middle" x="820.0" y="133">2010</text></svg>